<?xml version="1.0" encoding="utf-8"?>
<!-- Generator: Adobe Illustrator 25.2.0, SVG Export Plug-In . SVG Version: 6.00 Build 0)  -->
<svg version="1.1" id="Lager_1" xmlns="http://www.w3.org/2000/svg" xmlns:xlink="http://www.w3.org/1999/xlink" x="0px" y="0px"
	 viewBox="0 0 147.28 179.89" style="enable-background:new 0 0 147.28 179.89;" xml:space="preserve">
<style type="text/css">
	.st0{fill:none;stroke:#7C8DA5;stroke-width:1.231;stroke-miterlimit:10;}
	.st1{fill:#7C8DA5;stroke:#7C8DA5;stroke-width:1.231;stroke-miterlimit:10;}
</style>
<g>
	<path class="st0" d="M91.27,45.26l9.52-15.88c1.23-2.05,1.27-4.6,0.11-6.69L91.91,6.5c-1.16-2.09-3.35-3.4-5.73-3.44L67.66,2.76
		c-2.39-0.04-4.62,1.2-5.84,3.25l-9.52,15.88c-1.23,2.05-1.27,4.6-0.11,6.69l8.99,16.19c1.16,2.09,3.35,3.4,5.73,3.44l18.52,0.31
		C87.81,48.55,90.04,47.31,91.27,45.26z"/>
	<path class="st0" d="M133.93,122.09l9.52-15.88c1.23-2.05,1.27-4.6,0.11-6.69l-8.99-16.19c-1.16-2.09-3.35-3.4-5.73-3.44
		l-18.52-0.31c-2.39-0.04-4.62,1.2-5.84,3.25l-9.52,15.88c-1.23,2.05-1.27,4.6-0.11,6.69l8.99,16.19c1.16,2.09,3.35,3.4,5.73,3.44
		l18.52,0.31C130.48,125.38,132.7,124.14,133.93,122.09z"/>
	<path class="st1" d="M90.74,94.8l9.52-15.88c1.23-2.05,1.27-4.6,0.11-6.69l-8.99-16.19c-1.16-2.09-3.35-3.4-5.73-3.44L67.12,52.3
		c-2.39-0.04-4.62,1.2-5.84,3.25l-9.52,15.88c-1.23,2.05-1.27,4.6-0.11,6.69l8.99,16.19c1.16,2.09,3.35,3.4,5.73,3.44l18.52,0.31
		C87.28,98.09,89.51,96.85,90.74,94.8z"/>
	<path class="st0" d="M88.03,146.52l9.52-15.88c1.23-2.05,1.27-4.6,0.11-6.69l-8.99-16.19c-1.16-2.09-3.35-3.4-5.73-3.44
		l-18.52-0.31c-2.39-0.04-4.62,1.2-5.84,3.25l-9.52,15.88c-1.23,2.05-1.27,4.6-0.11,6.69l8.99,16.19c1.16,2.09,3.35,3.4,5.73,3.44
		l18.52,0.31C84.57,149.8,86.8,148.56,88.03,146.52z"/>
	<path class="st1" d="M43.31,173l9.52-15.88c1.23-2.05,1.27-4.6,0.11-6.69l-8.99-16.19c-1.16-2.09-3.35-3.4-5.73-3.44l-18.52-0.31
		c-2.39-0.04-4.62,1.2-5.84,3.25l-9.52,15.88c-1.23,2.05-1.27,4.6-0.11,6.69l8.99,16.19c1.16,2.09,3.35,3.4,5.73,3.44l18.52,0.31
		C39.85,176.28,42.08,175.05,43.31,173z"/>
	<line class="st1" x1="53.59" y1="50.24" x2="38.58" y2="73.48"/>
	<line class="st1" x1="54.47" y1="99.38" x2="38.58" y2="73.48"/>
	<line class="st1" x1="39.47" y1="121.15" x2="54.47" y2="99.38"/>
	<line class="st1" x1="15.63" y1="121.44" x2="39.47" y2="121.15"/>
	<line class="st1" x1="3.57" y1="101.44" x2="15.63" y2="121.44"/>
	<line class="st1" x1="51.82" y1="172.35" x2="60.65" y2="156.75"/>
	<line class="st1" x1="88.6" y1="156.75" x2="60.65" y2="156.75"/>
	<line class="st1" x1="103.9" y1="131.15" x2="88.6" y2="156.75"/>
	<line class="st1" x1="131.86" y1="131.45" x2="103.9" y2="131.15"/>
	<ellipse class="st1" cx="53.97" cy="50.24" rx="1.98" ry="2.21"/>
	<ellipse class="st1" cx="104.79" cy="132.18" rx="1.98" ry="2.21"/>
	<ellipse class="st1" cx="88.6" cy="156.75" rx="1.98" ry="2.21"/>
	<ellipse class="st1" cx="60.65" cy="156.75" rx="1.98" ry="2.21"/>
	<ellipse class="st1" cx="15.93" cy="121" rx="1.98" ry="2.21"/>
	<ellipse class="st1" cx="3.57" cy="101.44" rx="1.98" ry="2.21"/>
	<ellipse class="st1" cx="39.47" cy="121.15" rx="1.98" ry="2.21"/>
	<ellipse class="st1" cx="54.18" cy="99.82" rx="1.98" ry="2.21"/>
	<ellipse class="st1" cx="38.88" cy="73.93" rx="1.98" ry="2.21"/>
</g>
</svg>
