<?xml version="1.0" encoding="utf-8"?>
<!-- Generator: Adobe Illustrator 25.2.0, SVG Export Plug-In . SVG Version: 6.00 Build 0)  -->
<svg version="1.1" id="Lager_1" xmlns="http://www.w3.org/2000/svg" xmlns:xlink="http://www.w3.org/1999/xlink" x="0px" y="0px"
	 viewBox="0 0 330.5 535.9" style="enable-background:new 0 0 330.5 535.9;" xml:space="preserve">
<style type="text/css">
	.st0{fill:#7B8DA6;stroke:#464765;stroke-miterlimit:10;}
	.st1{fill:#A8B2C0;stroke:#464765;stroke-miterlimit:10;}
	.st2{fill:#464765;stroke:#464765;stroke-miterlimit:10;}
	.st3{fill:#6B7B8E;stroke:#756B96;stroke-width:3;stroke-miterlimit:10;}
	.st4{fill:#7B8DA6;stroke:#756B96;stroke-width:2;stroke-miterlimit:10;}
	.st5{fill:#A8B2C0;stroke:#756B96;stroke-width:3;stroke-miterlimit:10;}
	.st6{fill:#756B96;}
	.st7{fill:#B2B2B2;}
	.st8{fill:none;stroke:#756B96;stroke-width:3;stroke-miterlimit:10;}
	.st9{clip-path:url(#SVGID_2_);}
	.st10{clip-path:url(#SVGID_4_);fill:none;stroke:#7B8DA6;stroke-width:2.8574;stroke-miterlimit:10;}
	.st11{clip-path:url(#SVGID_4_);fill:#7B8DA6;}
</style>
<g>
	<g>
		<rect x="131.2" y="38.6" class="st0" width="2.3" height="412.3"/>
		<g>
			<g>
				<polyline class="st1" points="225.6,487.6 91.5,487.1 91.5,481.4 225.5,456 				"/>
				<polyline class="st0" points="225.8,456 252.9,450.9 252.9,455.8 225.8,487.6 				"/>
			</g>
			<polygon class="st2" points="225.3,481.4 92.2,481.4 130.8,450.9 252.4,450.9 			"/>
		</g>
		<g>
			<path class="st3" d="M127.7,517.8c-3.2-32.1,2.7-55.1,16.8-59c9.2-2.6,9.2-2.6,9.2-2.6c-0.7-1.2-2.3-4-3.6-4.6
				c-11,4.4-3,0.9-11.3,4.6c-13,5.7-20.5,29.5-16.1,62.2C125.4,518.1,125.4,518.1,127.7,517.8z"/>
			<path class="st3" d="M102.2,341.8c2.6,32.1,12.6,53.7,27.1,55c9.5,0.9,9.5,0.9,9.5,0.9c-0.5,1.3-1.6,4.4-2.7,5.2
				c-11.6-2.4-3.1-0.4-12-2.5c-13.8-3.2-25.5-25.3-27-58.3C99.8,341.9,99.8,341.9,102.2,341.8z"/>
			<path class="st4" d="M215.4,420.5c-6.4,26.6-15.5,47.1-34.6,47.1s-24.5-19.1-34.6-47.1c-5-13.9-6.3-27,1.4-35.6
				c6-6.7,24.6-10.1,32.9-10.1c7.9,0,27.2,2.8,33,8.9C221.8,392.3,219.1,405.4,215.4,420.5z"/>
			<path class="st5" d="M205.8,422.2c-6.4,26.6-15.5,47.1-34.6,47.1s-24.5-19.1-34.6-47.1c-5-13.9-6.3-27,1.4-35.6
				c6-6.7,24.6-10.1,32.9-10.1c7.9,0,27.2,2.8,33,8.9C212.2,394,209.5,407,205.8,422.2z"/>
			<path class="st4" d="M151.5,374l53,4.1c9.6,0,22.7-12,22.7-21.6v-36c0-9.6-7.8-17.4-17.4-17.4h-58.3c-9.6,0-22.6,5.7-22.6,15.3
				l5.1,38.1C134,366.2,141.9,374,151.5,374z"/>
			<path class="st3" d="M234.9,461.7c-1-0.2-1.7-1.1-1.5-2.1c4.2-31-0.7-53.9-14.5-57.9l-4.4-1.3c-0.9-0.2-1.4-1.1-1.3-2l0.2-1.6
				c0.1-1.3,1.5-2,2.6-1.5c7.2,3.2,1.3,0.3,8.8,4c12.5,6.1,19,29.4,13.7,61c-0.2,1-1.1,1.7-2.2,1.5
				C235.7,461.8,235.3,461.7,234.9,461.7z"/>
			<path class="st5" d="M142.4,379h58.3c9.6,0,17.4-7.8,17.4-17.4v-35.9c0-9.6-7.8-17.4-17.4-17.4h-58.3c-9.6,0-17.4,7.8-17.4,17.4
				v36C124.9,371.2,132.8,379,142.4,379z"/>
			<path class="st3" d="M198.3,452c-1.2-0.2-0.4-0.1-2.4,0c-9,2.8-3.7,0.8-11.6,4.2c-13,5.7-20.5,29.5-16.1,62.2
				c2.7-0.4,2.7-0.4,5-0.7c-3.2-32.1,2.7-55.1,16.8-59c4.1-1.1,6.2-1.7,7.4-2.1c0.8-0.2,1.4-0.9,1.5-1.7c0.2-1,0.4-1.6,0.4-2.2
				C199.1,452.3,198.8,452.1,198.3,452z"/>
			<polygon class="st5" points="158.7,305.1 150,305.2 140,289.7 146.3,285.7 			"/>
			<polygon class="st5" points="183,305.1 191.8,305.2 201.7,289.7 195.5,285.7 			"/>
			<circle class="st3" cx="140.3" cy="282.5" r="9.1"/>
			<circle class="st3" cx="201.5" cy="282.5" r="9.1"/>
			<path class="st4" d="M129.3,525.9l-6.3,3.7c-2.8,1.6-6.3,0.6-7.9-2.1l0,0c-1.6-2.8-0.6-6.3,2.1-7.9l6.3-3.7
				c2.8-1.6,6.3-0.6,7.9,2.1l0,0C133,520.8,132,524.4,129.3,525.9z"/>
			<path class="st4" d="M173,525.9l-6.3,3.7c-2.8,1.6-6.3,0.6-7.9-2.1l0,0c-1.6-2.8-0.6-6.3,2.1-7.9l6.3-3.7
				c2.8-1.6,6.3-0.6,7.9,2.1l0,0C176.7,520.8,175.7,524.4,173,525.9z"/>
			<path class="st4" d="M109.9,333.6c0,5.2-4.8,9.4-10.7,9.4c-5.9,0-10.7-4.2-10.7-9.4c0-3.5,2.1-6.5,5.3-8.1
				c0.9-0.4-1.4,5.1-0.4,8.3c0.8,2.6,4.9,2.8,5.7,2.8c0.9,0,4.6-0.1,5.4-2.6c1-3.2-0.8-8.9,0.1-8.4
				C107.8,327.2,109.9,330.2,109.9,333.6z"/>
			<path class="st4" d="M224.4,467.1c0.4-5.2,5.6-8.9,11.4-8.4s10.2,5.1,9.8,10.3c-0.3,3.5-2.7,6.3-6,7.6c-0.9,0.4,1.8-5,1.1-8.2
				c-0.6-2.6-4.6-3.2-5.5-3.3c-0.9-0.1-4.6-0.3-5.6,2.1c-1.3,3.1,0,8.9-0.8,8.4C225.9,473.6,224.1,470.5,224.4,467.1z"/>
			<g>
				<path class="st6" d="M175.6,422.1c-0.2,0.1-0.3,0.1-0.4,0.1c-0.7,0.2-1.4,0.4-2.2,0.5c-0.4,0.1-0.6,0.2-0.8,0.6
					c-0.3,0.8-0.7,1.5-1,2.3c-0.1,0.3-0.2,0.4-0.6,0.4c-1.4-0.2-2.8-0.4-4.2-0.7c-0.1,0-0.3-0.3-0.4-0.5c-0.1-0.9-0.2-1.8-0.3-2.7
					c0-0.2-0.2-0.4-0.3-0.5c-0.7-0.5-1.4-0.9-2.2-1.3c-0.2-0.1-0.4-0.1-0.6-0.1c-0.9,0.3-1.7,0.6-2.5,1c-0.3,0.1-0.5,0.1-0.6-0.1
					c-0.8-1.1-1.6-2.2-2.5-3.4c-0.2-0.2-0.1-0.4,0.1-0.7c0.6-0.7,1.1-1.4,1.7-2.1c0.1-0.2,0.2-0.5,0.1-0.7c-0.2-0.8-0.4-1.7-0.6-2.5
					c-0.1-0.2-0.2-0.4-0.4-0.5c-0.8-0.4-1.6-0.7-2.4-1.1c-0.3-0.1-0.5-0.3-0.4-0.7c0.2-1.3,0.4-2.7,0.7-4.1c0-0.3,0.2-0.4,0.5-0.4
					c0.9-0.1,1.8-0.2,2.6-0.3c0.3,0,0.5-0.2,0.7-0.4c0.4-0.7,0.8-1.3,1.2-2c0.2-0.3,0.2-0.5,0.1-0.9c-0.3-0.8-0.6-1.6-0.9-2.3
					c-0.1-0.3-0.1-0.6,0.2-0.8c1.1-0.8,2.2-1.6,3.3-2.4c0.2-0.2,0.4-0.1,0.7,0.1c0.7,0.6,1.4,1.1,2.1,1.7c0.1,0.1,0.4,0.2,0.6,0.1
					c0.8-0.2,1.7-0.4,2.5-0.6c0.2-0.1,0.4-0.3,0.5-0.4c0.4-0.8,0.7-1.6,1.1-2.4c0.1-0.3,0.3-0.4,0.6-0.4c1.3,0.2,2.6,0.4,3.9,0.6
					c0.4,0.1,0.5,0.3,0.5,0.7c0.1,0.8,0.2,1.6,0.2,2.4c0,0.3,0.2,0.5,0.5,0.7c0.7,0.4,1.3,0.8,2,1.2c0.2,0.1,0.5,0.2,0.7,0.1
					c0.8-0.3,1.7-0.6,2.5-0.9c0.3-0.1,0.5-0.1,0.6,0.1c0.8,1.1,1.6,2.2,2.4,3.3c0.2,0.3,0.2,0.6-0.1,0.8c-0.5,0.6-1.1,1.3-1.6,2
					c-0.2,0.2-0.2,0.4-0.1,0.7c0.2,0.7,0.4,1.5,0.6,2.3c0.1,0.4,0.2,0.6,0.6,0.8c0.8,0.3,1.5,0.7,2.2,1c0.3,0.1,0.5,0.3,0.4,0.6
					c-0.2,1.4-0.4,2.7-0.7,4.1c0,0.2-0.3,0.3-0.5,0.4c-0.9,0.1-1.8,0.2-2.7,0.3c-0.2,0-0.4,0.2-0.5,0.3c-0.5,0.7-0.9,1.5-1.4,2.2
					c-0.1,0.2-0.1,0.4-0.1,0.6c0.3,0.9,0.7,1.7,1,2.6c0.1,0.2,0,0.5-0.1,0.6c-1.1,0.8-2.3,1.7-3.4,2.5c-0.1,0.1-0.4,0-0.6-0.1
					c-0.7-0.5-1.4-1.1-2.1-1.7C175.8,422.3,175.7,422.2,175.6,422.1z M171,419.5c5.1,0,9.4-4.3,9.3-9.4c0-5.1-4.3-9.3-9.4-9.3
					c-5.1,0-9.3,4.3-9.3,9.4C161.7,415.3,165.9,419.5,171,419.5z"/>
				<path class="st6" d="M171,419.5c-5.1,0-9.4-4.2-9.4-9.4c0-5.1,4.3-9.4,9.4-9.4s9.4,4.3,9.3,9.3
					C180.4,415.2,176.1,419.5,171,419.5z M178.6,410.1c0-4.2-3.4-7.5-7.6-7.5c-4.2,0-7.6,3.4-7.5,7.6c0,4.1,3.4,7.5,7.6,7.5
					C175.2,417.7,178.6,414.3,178.6,410.1z"/>
			</g>
			<circle class="st3" cx="198.9" cy="351.4" r="9.6"/>
			<circle class="st3" cx="143.2" cy="351.4" r="9.6"/>
			<path class="st3" d="M180.6,353.4c-0.4,8.5-4.5,15.2-9.6,15.2s-9.2-6.7-9.6-15.2H180.6z"/>
			<path class="st7" d="M171.6,503.8c0.1,0,0.1,0,0.2,0l0,0C171.7,503.8,171.6,503.8,171.6,503.8z"/>
			<path class="st7" d="M171.3,503.8c0.1,0,0.1,0,0.2,0C171.5,503.8,171.4,503.8,171.3,503.8L171.3,503.8z"/>
			<path class="st8" d="M152.3,279.1c2.5,4.6,4.2,5.6,5.4,5.4c2.3-0.3,2.7-5.2,4.8-5.3c2.2-0.1,3.2,5.1,5.6,5.1
				c2.4,0,3.3-5.4,5.6-5.4c2.2,0,2.8,4.9,5.2,5s3.5-4.8,5.8-4.8c1.5,0,2.8,2.1,3.7,4.3"/>
		</g>
		<rect x="222.9" y="42.9" class="st1" width="2.3" height="438.5"/>
		<rect x="250.5" y="61.2" class="st0" width="2.3" height="389.7"/>
		<rect x="91.5" y="61.2" class="st1" width="2.3" height="420.2"/>
	</g>
	<g id="Teckning_8_1_">
		<g>
			<defs>
				<rect id="SVGID_1_" x="16.2" y="10.7" width="311.2" height="53.3"/>
			</defs>
			<clipPath id="SVGID_2_">
				<use xlink:href="#SVGID_1_"  style="overflow:visible;"/>
			</clipPath>
			<g class="st9">
				<defs>
					<rect id="SVGID_3_" x="16.2" y="10.7" width="311.2" height="53.3"/>
				</defs>
				<clipPath id="SVGID_4_">
					<use xlink:href="#SVGID_3_"  style="overflow:visible;"/>
				</clipPath>
				<line class="st10" x1="253.1" y1="58" x2="171.1" y2="14.8"/>
				<line class="st10" x1="93.4" y1="60.2" x2="173.3" y2="14.8"/>
				<line class="st10" x1="251.5" y1="58.3" x2="323.4" y2="15.7"/>
				<line class="st10" x1="93.4" y1="60.2" x2="21" y2="20.2"/>
				<path class="st11" d="M17.6,20.1c0.1-1.9,1.6-3.3,3.5-3.3c1.8,0.1,3.3,1.7,3.2,3.5c-0.1,1.9-1.6,3.3-3.5,3.3
					C19,23.6,17.5,22,17.6,20.1"/>
				<path class="st10" d="M17.6,20.1c0.1-1.9,1.6-3.3,3.5-3.3c1.8,0.1,3.3,1.7,3.2,3.5c-0.1,1.9-1.6,3.3-3.5,3.3
					C19,23.6,17.5,22,17.6,20.1z"/>
				<path class="st11" d="M89.3,59c0.1-1.9,1.6-3.3,3.5-3.3c1.8,0.1,3.3,1.7,3.2,3.5c-0.1,1.9-1.6,3.3-3.5,3.3
					C90.7,62.5,89.2,60.9,89.3,59"/>
				<path class="st10" d="M89.3,59c0.1-1.9,1.6-3.3,3.5-3.3c1.8,0.1,3.3,1.7,3.2,3.5c-0.1,1.9-1.6,3.3-3.5,3.3
					C90.7,62.5,89.2,60.9,89.3,59z"/>
				<path class="st11" d="M168.5,15.4c0.1-1.9,1.6-3.3,3.5-3.3c1.8,0.1,3.3,1.7,3.2,3.5c-0.1,1.9-1.6,3.3-3.5,3.3
					C169.8,18.9,168.4,17.3,168.5,15.4"/>
				<path class="st10" d="M168.5,15.4c0.1-1.9,1.6-3.3,3.5-3.3c1.8,0.1,3.3,1.7,3.2,3.5c-0.1,1.9-1.6,3.3-3.5,3.3
					C169.8,18.9,168.4,17.3,168.5,15.4z"/>
				<path class="st11" d="M249.7,57.9c0.1-1.9,1.6-3.3,3.5-3.3c1.8,0.1,3.3,1.7,3.2,3.5c-0.1,1.9-1.6,3.3-3.5,3.3
					C251.1,61.3,249.6,59.7,249.7,57.9"/>
				<path class="st10" d="M249.7,57.9c0.1-1.9,1.6-3.3,3.5-3.3c1.8,0.1,3.3,1.7,3.2,3.5c-0.1,1.9-1.6,3.3-3.5,3.3
					C251.1,61.3,249.6,59.7,249.7,57.9z"/>
				<path class="st11" d="M319.3,15.7c0.1-1.9,1.6-3.3,3.5-3.3c1.8,0.1,3.3,1.7,3.2,3.5c-0.1,1.9-1.6,3.3-3.5,3.3
					C320.7,19.1,319.2,17.6,319.3,15.7"/>
				<path class="st10" d="M319.3,15.7c0.1-1.9,1.6-3.3,3.5-3.3c1.8,0.1,3.3,1.7,3.2,3.5c-0.1,1.9-1.6,3.3-3.5,3.3
					C320.7,19.1,319.2,17.6,319.3,15.7z"/>
			</g>
		</g>
	</g>
</g>
</svg>
