<?xml version="1.0" encoding="utf-8"?>
<!-- Generator: Adobe Illustrator 25.2.0, SVG Export Plug-In . SVG Version: 6.00 Build 0)  -->
<svg version="1.1" id="Lager_1" xmlns="http://www.w3.org/2000/svg" xmlns:xlink="http://www.w3.org/1999/xlink" x="0px" y="0px"
	 viewBox="0 0 330.47 605.75" style="enable-background:new 0 0 330.47 605.75;" xml:space="preserve">
<style type="text/css">
	.st0{fill:#7B8DA6;stroke:#464765;stroke-miterlimit:10;}
	.st1{fill:#A8B2C0;stroke:#464765;stroke-miterlimit:10;}
	.st2{fill:#464765;stroke:#464765;stroke-miterlimit:10;}
	.st3{fill:#6B7B8E;stroke:#756B96;stroke-width:3;stroke-miterlimit:10;}
	.st4{fill:#7B8DA6;stroke:#756B96;stroke-width:2;stroke-miterlimit:10;}
	.st5{fill:#A8B2C0;stroke:#756B96;stroke-width:3;stroke-miterlimit:10;}
	.st6{fill:#756B96;}
	.st7{fill:#B2B2B2;}
	.st8{fill:none;stroke:#756B96;stroke-width:3;stroke-miterlimit:10;}
</style>
<g>
	<rect x="86.23" y="1.11" class="st0" width="4.51" height="444.47"/>
	<g>
		<g>
			<polyline class="st1" points="275.18,519.17 6.77,518.1 6.77,506.65 275.14,455.87 			"/>
			<polyline class="st0" points="275.59,455.87 329.97,445.58 329.97,455.45 275.62,519.17 			"/>
		</g>
		<polygon class="st2" points="274.6,506.65 8.24,506.65 85.47,445.58 328.94,445.58 		"/>
	</g>
	<g>
		<path class="st3" d="M79.38,579.54c-6.46-64.21,5.42-110.21,33.58-118.09c18.44-5.16,18.44-5.16,18.44-5.16
			c-1.48-2.46-4.67-8.05-7.16-9.21c-21.92,8.81-5.94,1.89-22.66,9.19c-25.97,11.34-41.1,58.98-32.26,124.6
			C74.67,580.1,74.67,580.1,79.38,579.54z"/>
		<path class="st3" d="M28.29,227.21c5.18,64.33,25.14,107.44,54.26,110.13c19.07,1.76,19.07,1.76,19.07,1.76
			c-1.01,2.68-3.14,8.76-5.39,10.35c-23.14-4.73-6.18-0.79-23.94-4.97C44.7,338,21.26,293.85,18.15,227.71
			C23.55,227.51,23.55,227.51,28.29,227.21z"/>
		<path class="st4" d="M254.91,384.86c-12.82,53.23-30.97,94.25-69.16,94.25s-48.98-38.26-69.16-94.25
			c-10.05-27.88-12.59-54.04,2.75-71.32c11.96-13.48,49.16-20.22,65.89-20.22c15.88,0,54.42,5.64,66.09,17.9
			C267.73,328.45,262.2,354.58,254.91,384.86z"/>
		<path class="st5" d="M235.68,388.13c-12.82,53.23-30.97,94.25-69.16,94.25s-48.98-38.26-69.16-94.25
			c-10.05-27.88-12.59-54.04,2.75-71.32c11.96-13.48,49.15-20.22,65.89-20.22c15.88,0,54.42,5.64,66.09,17.9
			C248.49,331.72,242.97,357.85,235.68,388.13z"/>
		<path class="st4" d="M126.9,291.77l106.16,8.25c19.19,0,45.41-23.96,45.41-43.15v-71.96c0-19.19-15.7-34.9-34.9-34.9H126.9
			c-19.19,0-45.18,11.35-45.18,30.54L92,256.88C92,276.07,107.7,291.77,126.9,291.77z"/>
		<path class="st3" d="M293.83,467.22c-1.98-0.33-3.33-2.19-3.06-4.18c8.37-62.05-1.35-107.96-28.93-115.84l-8.83-2.52
			c-1.73-0.49-2.86-2.16-2.68-3.95l0.33-3.25c0.26-2.52,2.91-4.05,5.22-3.01c14.39,6.46,2.54,0.7,17.54,8.04
			c24.96,12.21,38,58.86,27.48,122.13c-0.34,2.06-2.3,3.44-4.35,3.06C295.52,467.51,294.75,467.37,293.83,467.22z"/>
		<path class="st5" d="M108.68,301.85h116.67c19.19,0,34.9-15.7,34.9-34.9V195c0-19.19-15.7-34.9-34.9-34.9H108.68
			c-19.19,0-34.9,15.7-34.9,34.9v71.96C73.78,286.15,89.48,301.85,108.68,301.85z"/>
		<path class="st3" d="M220.64,447.85c-2.36-0.41-0.75-0.16-4.79-0.04c-18.04,5.69-7.5,1.56-23.29,8.45
			c-25.97,11.34-41.1,58.98-32.26,124.6c5.35-0.77,5.35-0.77,10.06-1.33c-6.46-64.21,5.42-110.21,33.58-118.09
			c8.13-2.28,12.49-3.5,14.83-4.15c1.57-0.44,2.74-1.75,3.01-3.35c0.33-2.02,0.71-3.29,0.71-4.47
			C222.2,448.4,221.53,448.01,220.64,447.85z"/>
		<polygon class="st5" points="141.38,153.9 123.84,154.03 103.99,123.05 116.49,115.04 		"/>
		<polygon class="st5" points="190.08,153.9 207.62,154.03 227.46,123.05 214.96,115.04 		"/>
		<circle class="st3" cx="104.46" cy="108.62" r="18.23"/>
		<circle class="st3" cx="227" cy="108.62" r="18.23"/>
		<path class="st4" d="M82.44,595.88l-12.69,7.33c-5.51,3.18-12.62,1.28-15.8-4.23h0c-3.18-5.51-1.28-12.62,4.23-15.8l12.69-7.33
			c5.51-3.18,12.62-1.28,15.8,4.23l0,0C89.85,585.59,87.95,592.7,82.44,595.88z"/>
		<path class="st4" d="M169.9,595.88l-12.69,7.33c-5.51,3.18-12.62,1.28-15.8-4.23h0c-3.18-5.51-1.28-12.62,4.23-15.8l12.69-7.33
			c5.51-3.18,12.62-1.28,15.8,4.23l0,0C177.32,585.59,175.41,592.7,169.9,595.88z"/>
		<path class="st4" d="M43.65,210.88c0,10.38-9.55,18.8-21.32,18.8S1,221.27,1,210.88c0-6.97,4.3-13.05,10.68-16.3
			c1.73-0.88-2.81,10.27-0.82,16.59c1.62,5.13,9.73,5.62,11.46,5.62c1.79,0,9.23-0.12,10.89-5.16c2.09-6.33-1.63-17.79,0.16-16.83
			C39.54,198.1,43.65,204.07,43.65,210.88z"/>
		<path class="st4" d="M272.83,478.07c0.9-10.35,11.15-17.9,22.88-16.88c11.73,1.02,20.51,10.24,19.61,20.58
			c-0.61,6.94-5.41,12.63-12.06,15.31c-1.8,0.73,3.69-9.98,2.26-16.45c-1.16-5.25-9.2-6.44-10.93-6.59
			c-1.79-0.16-9.2-0.68-11.3,4.19c-2.63,6.12,0.08,17.87-1.62,16.75C275.82,491.16,272.24,484.86,272.83,478.07z"/>
		<g>
			<path class="st6" d="M175.13,388.08c-0.33,0.11-0.6,0.22-0.88,0.29c-1.43,0.36-2.86,0.76-4.31,1.03
				c-0.8,0.14-1.26,0.45-1.56,1.22c-0.62,1.54-1.36,3.03-1.99,4.57c-0.23,0.54-0.5,0.84-1.11,0.74c-2.78-0.44-5.56-0.84-8.32-1.34
				c-0.3-0.05-0.68-0.6-0.73-0.95c-0.27-1.79-0.4-3.59-0.67-5.38c-0.06-0.38-0.37-0.82-0.7-1.03c-1.41-0.93-2.86-1.82-4.33-2.66
				c-0.34-0.19-0.88-0.28-1.24-0.16c-1.71,0.59-3.39,1.25-5.07,1.92c-0.54,0.22-0.93,0.22-1.3-0.29c-1.63-2.25-3.27-4.48-4.91-6.72
				c-0.36-0.49-0.25-0.88,0.13-1.34c1.14-1.35,2.26-2.73,3.32-4.15c0.25-0.33,0.36-0.91,0.28-1.33c-0.34-1.66-0.74-3.31-1.2-4.94
				c-0.11-0.38-0.46-0.81-0.81-0.98c-1.56-0.76-3.14-1.47-4.74-2.13c-0.66-0.27-1.02-0.6-0.89-1.36c0.45-2.7,0.88-5.41,1.32-8.11
				c0.09-0.55,0.39-0.74,0.95-0.79c1.76-0.16,3.52-0.42,5.28-0.57c0.67-0.05,0.99-0.32,1.31-0.9c0.74-1.36,1.54-2.7,2.42-3.97
				c0.43-0.62,0.49-1.1,0.21-1.78c-0.64-1.53-1.16-3.12-1.8-4.64c-0.29-0.69-0.2-1.16,0.39-1.58c2.19-1.58,4.38-3.16,6.56-4.75
				c0.5-0.36,0.88-0.27,1.33,0.12c1.38,1.16,2.79,2.3,4.23,3.39c0.28,0.22,0.78,0.33,1.13,0.25c1.69-0.36,3.38-0.75,5.04-1.23
				c0.41-0.12,0.85-0.51,1.04-0.89c0.77-1.55,1.49-3.13,2.14-4.74c0.27-0.66,0.64-0.9,1.3-0.79c2.63,0.42,5.27,0.83,7.9,1.24
				c0.79,0.12,1.02,0.62,1.08,1.36c0.13,1.62,0.35,3.23,0.48,4.85c0.06,0.68,0.31,1.06,0.94,1.4c1.4,0.74,2.7,1.67,4.09,2.43
				c0.4,0.22,1.02,0.35,1.44,0.21c1.68-0.56,3.32-1.22,4.96-1.88c0.54-0.22,0.93-0.22,1.3,0.29c1.59,2.18,3.2,4.36,4.81,6.52
				c0.47,0.64,0.32,1.12-0.17,1.69c-1.1,1.29-2.11,2.66-3.2,3.97c-0.38,0.46-0.48,0.84-0.29,1.44c0.45,1.48,0.86,2.99,1.12,4.51
				c0.14,0.83,0.49,1.23,1.24,1.53c1.51,0.61,2.97,1.33,4.46,1.96c0.57,0.24,0.91,0.53,0.8,1.2c-0.44,2.74-0.84,5.48-1.33,8.21
				c-0.06,0.31-0.57,0.7-0.92,0.75c-1.79,0.27-3.59,0.4-5.38,0.66c-0.38,0.06-0.84,0.37-1.05,0.7c-0.95,1.44-1.86,2.92-2.72,4.42
				c-0.18,0.31-0.26,0.81-0.14,1.14c0.61,1.74,1.33,3.44,1.92,5.18c0.12,0.34,0,0.98-0.25,1.17c-2.23,1.7-4.51,3.36-6.81,4.96
				c-0.26,0.18-0.9,0.08-1.19-0.13c-1.45-1.08-2.84-2.24-4.25-3.37C175.58,388.37,175.34,388.22,175.13,388.08z M166.06,382.75
				c10.27-0.03,18.74-8.56,18.71-18.86c-0.02-10.16-8.62-18.63-18.87-18.59c-10.22,0.04-18.66,8.56-18.63,18.8
				C147.31,374.33,155.83,382.78,166.06,382.75z"/>
			<path class="st6" d="M166.03,382.76c-10.29-0.01-18.78-8.5-18.76-18.75c0.02-10.24,8.58-18.76,18.81-18.72
				c10.23,0.04,18.72,8.53,18.71,18.7C184.78,374.25,176.27,382.77,166.03,382.76z M181.14,364.01c-0.01-8.39-6.74-15.1-15.15-15.11
				c-8.32-0.01-15.12,6.83-15.1,15.2c0.02,8.29,6.8,15.04,15.12,15.05C174.39,379.15,181.14,372.4,181.14,364.01z"/>
		</g>
		<circle class="st3" cx="221.76" cy="246.48" r="19.27"/>
		<circle class="st3" cx="110.23" cy="246.48" r="19.27"/>
		<path class="st3" d="M185.23,250.54c-0.72,17-9.05,30.42-19.23,30.42s-18.51-13.41-19.23-30.42H185.23z"/>
		<path class="st7" d="M167.11,551.6c0.15,0,0.3-0.01,0.45-0.02v0.04C167.41,551.62,167.26,551.61,167.11,551.6z"/>
		<path class="st7" d="M166.66,551.58c0.15,0.01,0.3,0.02,0.45,0.02c-0.15,0.01-0.3,0.02-0.45,0.02V551.58z"/>
		<path class="st8" d="M128.53,101.79c5.1,9.27,8.5,11.13,10.76,10.8c4.55-0.67,5.4-10.33,9.65-10.56
			c4.44-0.24,6.47,10.17,11.24,10.12c4.84-0.05,6.63-10.84,11.26-10.75c4.4,0.08,5.65,9.89,10.32,10.1
			c4.72,0.21,6.95-9.7,11.69-9.59c3.06,0.07,5.55,4.29,7.37,8.66"/>
	</g>
	<rect x="269.82" y="1.11" class="st1" width="4.51" height="505.54"/>
	<rect x="325.03" y="0.9" class="st0" width="4.51" height="444.68"/>
	<rect x="6.77" y="0.5" class="st1" width="4.51" height="506.15"/>
</g>
</svg>
