<?xml version="1.0" encoding="utf-8"?>
<!-- Generator: Adobe Illustrator 25.2.0, SVG Export Plug-In . SVG Version: 6.00 Build 0)  -->
<svg version="1.1" id="Lager_1" xmlns="http://www.w3.org/2000/svg" xmlns:xlink="http://www.w3.org/1999/xlink" x="0px" y="0px"
	 viewBox="0 0 250 663.89" style="enable-background:new 0 0 250 663.89;" xml:space="preserve">
<style type="text/css">
	.st0{fill:none;stroke:#7C8DA6;stroke-width:1.5823;stroke-miterlimit:10;}
	.st1{fill:#7C8DA5;stroke:#7C8DA6;stroke-width:1.5823;stroke-miterlimit:10;}
	.st2{fill:#7C8DA5;stroke:#7C8DA5;stroke-width:1.5823;stroke-miterlimit:10;}
	.st3{fill:#7A8DA6;stroke:#7C8DA6;stroke-width:1.5823;stroke-miterlimit:10;}
</style>
<g>
	<g>
		<path class="st0" d="M192.46,528.69l14.18-23.54c1.82-3.03,1.89-6.82,0.16-9.91l-13.4-24c-1.73-3.09-4.98-5.04-8.53-5.1
			l-27.58-0.46c-3.55-0.06-6.87,1.78-8.71,4.82l-14.18,23.56c-1.82,3.03-1.89,6.82-0.16,9.91l13.4,24c1.73,3.09,4.98,5.04,8.53,5.1
			l27.58,0.46C187.31,533.56,190.62,531.72,192.46,528.69z"/>
		<line class="st1" x1="207.52" y1="353.65" x2="191.4" y2="322.48"/>
		<line class="st1" x1="153.74" y1="321.79" x2="191.4" y2="322.48"/>
		<line class="st1" x1="139.21" y1="349.87" x2="154.67" y2="321.23"/>
		<line class="st1" x1="156.64" y1="378.51" x2="139.56" y2="349.22"/>
		<line class="st1" x1="190.52" y1="378.1" x2="155.96" y2="377.91"/>
		<line class="st1" x1="221.38" y1="418.2" x2="202.91" y2="387.84"/>
		<path class="st1" d="M248.77,418.19c-9.5,0.02-19,0-28.48-0.35"/>
		<ellipse class="st1" cx="207.16" cy="353.99" rx="1.47" ry="1.47"/>
		<ellipse class="st1" cx="221.19" cy="418.12" rx="1.47" ry="1.47"/>
		<ellipse class="st1" cx="202.72" cy="388.58" rx="1.47" ry="1.47"/>
		<ellipse class="st1" cx="189.78" cy="378.37" rx="1.47" ry="1.47"/>
		<ellipse class="st1" cx="156.08" cy="378.05" rx="1.47" ry="1.47"/>
		<ellipse class="st1" cx="139.88" cy="348.66" rx="1.47" ry="1.47"/>
		<ellipse class="st1" cx="154.29" cy="322.53" rx="1.47" ry="1.47"/>
		<ellipse class="st1" cx="191.08" cy="323.08" rx="1.47" ry="1.47"/>
		<path class="st0" d="M127.86,417.43l14.18-23.56c1.82-3.03,1.89-6.82,0.16-9.91l-13.4-24c-1.73-3.09-4.98-5.04-8.53-5.1
			l-27.58-0.46c-3.55-0.06-6.87,1.78-8.71,4.82L69.8,382.77c-1.82,3.03-1.89,6.82-0.16,9.91l13.4,24c1.73,3.09,4.98,5.04,8.53,5.1
			l27.58,0.46C122.72,422.31,126.03,420.46,127.86,417.43z"/>
		<path class="st1" d="M125.81,491.6l14.18-23.54c1.82-3.03,1.89-6.82,0.16-9.91l-13.4-24c-1.73-3.09-4.98-5.04-8.53-5.1
			l-27.58-0.46c-3.55-0.06-6.87,1.78-8.71,4.82l-14.18,23.56c-1.82,3.03-1.89,6.82-0.16,9.91l13.4,24c1.73,3.09,4.98,5.04,8.53,5.1
			l27.58,0.46C120.67,496.46,123.99,494.63,125.81,491.6z"/>
		<path class="st2" d="M192.36,454.89l14.18-23.56c1.82-3.03,1.89-6.82,0.16-9.91l-13.4-24c-1.73-3.09-4.98-5.04-8.53-5.1
			l-27.58-0.46c-3.55-0.06-6.87,1.78-8.71,4.82l-14.18,23.54c-1.82,3.03-1.89,6.82-0.16,9.91l13.4,24c1.73,3.09,4.98,5.04,8.53,5.1
			l27.58,0.46C187.23,459.77,190.54,457.92,192.36,454.89z"/>
		<path class="st0" d="M62.59,377.67l14.18-23.56c1.82-3.03,1.89-6.82,0.16-9.91l-13.4-24c-1.73-3.09-4.98-5.04-8.53-5.1
			l-27.58-0.46c-3.55-0.06-6.87,1.78-8.71,4.82L4.53,343c-1.82,3.03-1.89,6.82-0.16,9.91l13.4,24c1.73,3.09,4.98,5.04,8.53,5.1
			l27.58,0.46C57.43,382.54,60.76,380.71,62.59,377.67z"/>
		<path class="st3" d="M130.68,341.22l14.18-23.56c1.82-3.03,1.89-6.82,0.16-9.91l-13.4-24c-1.73-3.09-4.98-5.04-8.53-5.1
			l-27.58-0.46c-3.55-0.06-6.87,1.78-8.71,4.82l-14.18,23.56c-1.82,3.03-1.89,6.82-0.16,9.91l13.4,24c1.73,3.09,4.98,5.04,8.53,5.1
			l27.58,0.46C125.53,346.1,128.86,344.27,130.68,341.22z"/>
		<path class="st2" d="M195.95,307.32l14.18-23.56c1.82-3.03,1.89-6.82,0.16-9.91l-13.4-24c-1.73-3.09-4.98-5.04-8.53-5.1
			l-27.58-0.46c-3.55-0.06-6.87,1.78-8.71,4.82l-14.18,23.56c-1.82,3.03-1.89,6.82-0.16,9.91l13.4,24c1.73,3.09,4.98,5.04,8.53,5.1
			l27.58,0.46C190.81,312.2,194.12,310.37,195.95,307.32z"/>
		<path class="st1" d="M248.64,281.67l-24.37-0.39c-3.55-0.06-6.87,1.78-8.71,4.82l-14.18,23.54c-1.82,3.03-1.89,6.82-0.16,9.91
			l13.4,24c1.73,3.09,4.98,5.04,8.53,5.1l26.43,0.44"/>
		<path class="st0" d="M196.22,233.93l14.18-23.56c1.82-3.03,1.89-6.82,0.16-9.91l-13.4-24c-1.73-3.09-4.98-5.04-8.53-5.1
			l-27.58-0.46c-3.55-0.06-6.87,1.78-8.71,4.82l-14.18,23.56c-1.82,3.03-1.89,6.82-0.16,9.91l13.4,24c1.73,3.09,4.98,5.04,8.53,5.1
			l27.58,0.46C191.06,238.8,194.38,236.97,196.22,233.93z"/>
		<path class="st1" d="M129.14,194.93l14.18-23.56c1.82-3.03,1.89-6.82,0.16-9.91l-13.4-24c-1.73-3.09-4.98-5.04-8.53-5.1
			l-27.58-0.46c-3.55-0.06-6.87,1.78-8.71,4.82l-14.18,23.56c-1.82,3.03-1.89,6.82-0.16,9.91l13.4,24c1.73,3.09,4.98,5.04,8.53,5.1
			l27.58,0.46C124,199.81,127.32,197.98,129.14,194.93z"/>
		<path class="st1" d="M195.69,159.25l14.18-23.56c1.82-3.03,1.89-6.82,0.16-9.91l-13.4-24c-1.73-3.09-4.98-5.04-8.53-5.1
			l-27.58-0.46c-3.55-0.06-6.87,1.78-8.71,4.82l-14.18,23.56c-1.82,3.03-1.89,6.82-0.16,9.91l13.4,24c1.73,3.09,4.98,5.04,8.53,5.1
			l27.58,0.46C190.56,164.13,193.87,162.3,195.69,159.25z"/>
		<path class="st1" d="M249.1,61.73"/>
		<path class="st1" d="M249.1,61.73l-24.31-0.39c-3.55-0.06-6.87,1.78-8.71,4.82l-14.18,23.54c-1.82,3.03-1.89,6.82-0.16,9.91
			l13.4,24c1.73,3.09,4.98,5.04,8.53,5.1l27.58,0.46c0.14,0,0.27-0.02,0.41-0.02"/>
	</g>
	<path class="st1" d="M126.43,567l14-23.26c1.81-3,1.87-6.73,0.16-9.79l-13.23-23.7c-1.71-3.06-4.92-4.97-8.44-5.04l-27.23-0.44
		c-3.5-0.06-6.79,1.75-8.59,4.75l-14,23.26c-1.81,3-1.87,6.73-0.16,9.79l13.23,23.7c1.71,3.06,4.92,4.97,8.44,5.04l27.23,0.44
		C121.35,571.82,124.62,570,126.43,567z"/>
	<path class="st1" d="M195.12,82.49l14.21-23.59c1.84-3.05,1.9-6.82,0.16-9.93l-13.42-24.04c-1.73-3.09-5-5.05-8.55-5.1l-27.62-0.46
		c-3.57-0.06-6.88,1.78-8.72,4.82l-14.21,23.59c-1.84,3.05-1.9,6.82-0.16,9.93l13.42,24.04c1.73,3.09,5,5.05,8.55,5.1l27.62,0.46
		C189.97,87.37,193.3,85.54,195.12,82.49z"/>
	<path class="st0" d="M214.41,0.34l-7.99,13.28c-1.74,2.89-1.81,6.49-0.16,9.43L219,45.89c1.65,2.95,4.74,4.8,8.12,4.85l21.9,0.36
		c0.02-0.33,0.02-0.68,0.03-1.01"/>
	<line class="st1" x1="188.68" y1="544.39" x2="150.82" y2="543.64"/>
	<line class="st1" x1="130.33" y1="577.88" x2="151.2" y2="544.02"/>
	<line class="st1" x1="129.95" y1="577.49" x2="150.04" y2="612.88"/>
	<line class="st1" x1="150.44" y1="613.28" x2="125.7" y2="656.36"/>
	<line class="st1" x1="79.33" y1="657.14" x2="125.7" y2="656.36"/>
	<ellipse class="st1" cx="124.81" cy="655.83" rx="1.33" ry="1.67"/>
	<ellipse class="st1" cx="78.44" cy="656.6" rx="1.33" ry="1.67"/>
	<ellipse class="st1" cx="187.35" cy="544.39" rx="1.33" ry="1.67"/>
	<ellipse class="st1" cx="150.53" cy="543.27" rx="1.33" ry="1.67"/>
	<ellipse class="st1" cx="130.96" cy="578.26" rx="1.33" ry="1.67"/>
	<ellipse class="st1" cx="150.04" cy="612.88" rx="1.33" ry="1.67"/>
</g>
</svg>
