<?xml version="1.0" encoding="UTF-8"?>
<!-- Generator: Adobe Illustrator 25.2.0, SVG Export Plug-In . SVG Version: 6.00 Build 0)  -->
<svg version="1.1" id="Lager_1" xmlns="http://www.w3.org/2000/svg" xmlns:xlink="http://www.w3.org/1999/xlink" x="0px" y="0px" viewBox="-10 0 144.4 391.2" style="enable-background:new 0 0 144.4 391.2;" xml:space="preserve">
<style type="text/css">
	.st0{clip-path:url(#SVGID_2_);}
	.st1{clip-path:url(#SVGID_4_);fill:#756B96;}
	.st2{fill:none;stroke:#7C8DA6;stroke-width:0.8792;stroke-miterlimit:10;}
	.st3{fill:#7C8DA5;stroke:#7C8DA6;stroke-width:0.8792;stroke-miterlimit:10;}
	.st4{fill:#7C8DA5;stroke:#7C8DA5;stroke-width:0.8792;stroke-miterlimit:10;}
	.st5{fill:#7A8DA6;stroke:#7C8DA6;stroke-width:0.8792;stroke-miterlimit:10;}
	.st6{fill:#1F1F1D;stroke:#7C8DA6;stroke-width:1.4831;stroke-miterlimit:10;}
	.st7{clip-path:url(#SVGID_6_);}
	.st8{clip-path:url(#SVGID_8_);fill:#756B96;}
	.st9{clip-path:url(#SVGID_10_);}
	.st10{clip-path:url(#SVGID_12_);fill:#756B96;}
</style>
<g>
	<g id="Teckning_4_3_">
		<g>
			<defs>
				<rect id="SVGID_1_" x="82.6" y="113.4" width="30.6" height="30.6"/>
			</defs>
			<clipPath id="SVGID_2_">
				<use xlink:href="#SVGID_1_" style="overflow:visible;"/>
			</clipPath>
			<g class="st0">
				<defs>
					<rect id="SVGID_3_" x="82.6" y="113.4" width="30.6" height="30.6"/>
				</defs>
				<clipPath id="SVGID_4_">
					<use xlink:href="#SVGID_3_" style="overflow:visible;"/>
				</clipPath>
				<path class="st1" d="M102.3,140.2c-0.2,0.1-0.3,0.1-0.4,0.1c-0.7,0.2-1.4,0.4-2.1,0.5c-0.4,0.1-0.6,0.2-0.7,0.6      c-0.3,0.7-0.6,1.5-1,2.2c-0.1,0.3-0.2,0.4-0.5,0.4c-1.3-0.2-2.7-0.4-4-0.6c-0.1,0-0.3-0.3-0.4-0.5c-0.1-0.9-0.2-1.7-0.3-2.6      c0-0.2-0.2-0.4-0.3-0.5c-0.7-0.4-1.4-0.9-2.1-1.3c-0.2-0.1-0.4-0.1-0.6-0.1c-0.8,0.3-1.6,0.6-2.4,0.9c-0.3,0.1-0.4,0.1-0.6-0.1      c-0.8-1.1-1.6-2.1-2.4-3.2c-0.2-0.2-0.1-0.4,0.1-0.6c0.5-0.6,1.1-1.3,1.6-2c0.1-0.2,0.2-0.4,0.1-0.6c-0.2-0.8-0.4-1.6-0.6-2.4      c-0.1-0.2-0.2-0.4-0.4-0.5c-0.7-0.4-1.5-0.7-2.3-1c-0.3-0.1-0.5-0.3-0.4-0.7c0.2-1.3,0.4-2.6,0.6-3.9c0-0.3,0.2-0.4,0.5-0.4      c0.8-0.1,1.7-0.2,2.5-0.3c0.3,0,0.5-0.2,0.6-0.4c0.4-0.7,0.7-1.3,1.2-1.9c0.2-0.3,0.2-0.5,0.1-0.9c-0.3-0.7-0.6-1.5-0.9-2.2      c-0.1-0.3-0.1-0.6,0.2-0.8c1.1-0.8,2.1-1.5,3.1-2.3c0.2-0.2,0.4-0.1,0.6,0.1c0.7,0.6,1.3,1.1,2,1.6c0.1,0.1,0.4,0.2,0.5,0.1      c0.8-0.2,1.6-0.4,2.4-0.6c0.2-0.1,0.4-0.2,0.5-0.4c0.4-0.7,0.7-1.5,1-2.3c0.1-0.3,0.3-0.4,0.6-0.4c1.3,0.2,2.5,0.4,3.8,0.6      c0.4,0.1,0.5,0.3,0.5,0.7c0.1,0.8,0.2,1.5,0.2,2.3c0,0.3,0.1,0.5,0.5,0.7c0.7,0.4,1.3,0.8,2,1.2c0.2,0.1,0.5,0.2,0.7,0.1      c0.8-0.3,1.6-0.6,2.4-0.9c0.3-0.1,0.4-0.1,0.6,0.1c0.8,1,1.5,2.1,2.3,3.1c0.2,0.3,0.2,0.5-0.1,0.8c-0.5,0.6-1,1.3-1.5,1.9      c-0.2,0.2-0.2,0.4-0.1,0.7c0.2,0.7,0.4,1.4,0.5,2.2c0.1,0.4,0.2,0.6,0.6,0.7c0.7,0.3,1.4,0.6,2.1,0.9c0.3,0.1,0.4,0.3,0.4,0.6      c-0.2,1.3-0.4,2.6-0.6,3.9c0,0.1-0.3,0.3-0.4,0.4c-0.9,0.1-1.7,0.2-2.6,0.3c-0.2,0-0.4,0.2-0.5,0.3c-0.5,0.7-0.9,1.4-1.3,2.1      c-0.1,0.1-0.1,0.4-0.1,0.5c0.3,0.8,0.6,1.6,0.9,2.5c0.1,0.2,0,0.5-0.1,0.6c-1.1,0.8-2.2,1.6-3.3,2.4c-0.1,0.1-0.4,0-0.6-0.1      c-0.7-0.5-1.4-1.1-2-1.6C102.5,140.3,102.4,140.3,102.3,140.2 M98,137.7c4.9,0,9-4.1,9-9c0-4.9-4.1-8.9-9-8.9      c-4.9,0-8.9,4.1-8.9,9C89,133.6,93,137.7,98,137.7"/>
				<path class="st1" d="M97.9,137.7c-4.9,0-9-4.1-9-9c0-4.9,4.1-9,9-9c4.9,0,9,4.1,9,9C106.9,133.6,102.8,137.7,97.9,137.7       M105.2,128.7c0-4-3.2-7.2-7.3-7.2c-4,0-7.2,3.3-7.2,7.3c0,4,3.3,7.2,7.2,7.2C101.9,135.9,105.2,132.7,105.2,128.7"/>
			</g>
		</g>
	</g>
	<g>
		<path class="st2" d="M108.7,315.9l7.9-13.1c1-1.7,1-3.8,0.1-5.5l-7.4-13.3c-1-1.7-2.8-2.8-4.7-2.8l-15.3-0.3c-2,0-3.8,1-4.8,2.7    l-7.9,13.1c-1,1.7-1,3.8-0.1,5.5l7.4,13.3c1,1.7,2.8,2.8,4.7,2.8l15.3,0.3C105.8,318.6,107.7,317.6,108.7,315.9z"/>
		<line class="st3" x1="116.3" y1="217.4" x2="107.4" y2="200.1"/>
		<line class="st3" x1="86.4" y1="199.7" x2="107.4" y2="200.1"/>
		<line class="st3" x1="78.4" y1="215.3" x2="86.9" y2="199.4"/>
		<line class="st3" x1="88" y1="231.2" x2="78.5" y2="214.9"/>
		<line class="st3" x1="106.9" y1="231" x2="87.7" y2="230.9"/>
		<line class="st3" x1="124" y1="253.3" x2="113.7" y2="236.4"/>
		<path class="st3" d="M139.2,253.3c-5.3,0-10.6,0-15.8-0.2"/>
		<path class="st2" d="M72,252.8l7.9-13.1c1-1.7,1-3.8,0.1-5.5l-7.4-13.3c-1-1.7-2.8-2.8-4.7-2.8l-15.3-0.3c-2,0-3.8,1-4.8,2.7    l-7.9,13.1c-1,1.7-1,3.8-0.1,5.5l7.4,13.3c1,1.7,2.8,2.8,4.7,2.8l15.3,0.3C69.2,255.5,71,254.5,72,252.8z"/>
		<path class="st3" d="M71.4,295.8l7.9-13.1c1-1.7,1-3.8,0.1-5.5l-7.4-13.3c-1-1.7-2.8-2.8-4.7-2.8l-15.3-0.3c-2,0-3.8,1-4.8,2.7    l-7.9,13.1c-1,1.7-1,3.8-0.1,5.5l7.4,13.3c1,1.7,2.8,2.8,4.7,2.8l15.3,0.3C68.6,298.5,70.4,297.5,71.4,295.8z"/>
		<path class="st4" d="M109.1,273.7l7.9-13.1c1-1.7,1-3.8,0.1-5.5l-7.4-13.3c-1-1.7-2.8-2.8-4.7-2.8l-15.3-0.3c-2,0-3.8,1-4.8,2.7    l-7.9,13.1c-1,1.7-1,3.8-0.1,5.5l7.4,13.3c1,1.7,2.8,2.8,4.7,2.8l15.3,0.3C106.3,276.4,108.1,275.3,109.1,273.7z"/>
		<path class="st2" d="M35.8,230.7l7.9-13.1c1-1.7,1-3.8,0.1-5.5l-7.4-13.3c-1-1.7-2.8-2.8-4.7-2.8l-15.3-0.3c-2,0-3.8,1-4.8,2.7    l-7.9,13.1c-1,1.7-1,3.8-0.1,5.5l7.4,13.3c1,1.7,2.8,2.8,4.7,2.8l15.3,0.3C32.9,233.4,34.8,232.4,35.8,230.7z"/>
		<path class="st5" d="M73.6,210.5l7.9-13.1c1-1.7,1-3.8,0.1-5.5l-7.4-13.3c-1-1.7-2.8-2.8-4.7-2.8l-15.3-0.3c-2,0-3.8,1-4.8,2.7    l-7.9,13.1c-1,1.7-1,3.8-0.1,5.5l7.4,13.3c1,1.7,2.8,2.8,4.7,2.8l15.3,0.3C70.8,213.2,72.6,212.2,73.6,210.5z"/>
		<path class="st4" d="M109.9,188.2l7.9-13.1c1-1.7,1-3.8,0.1-5.5l-7.4-13.3c-1-1.7-2.8-2.8-4.7-2.8l-15.3-0.3c-2,0-3.8,1-4.8,2.7    L77.6,169c-1,1.7-1,3.8-0.1,5.5l7.4,13.3c1,1.7,2.8,2.8,4.7,2.8l15.3,0.3C107,191,108.9,189.9,109.9,188.2z"/>
		<path class="st3" d="M140.4,177.4l-13.5-0.2c-2,0-3.8,1-4.8,2.7l-7.9,13.1c-1,1.7-1,3.8-0.1,5.5l7.4,13.3c1,1.7,2.8,2.8,4.7,2.8    l14.7,0.2"/>
		<path class="st2" d="M109.6,145.3l7.9-13.1c1-1.7,1-3.8,0.1-5.5l-7.4-13.3c-1-1.7-2.8-2.8-4.7-2.8l-15.3-0.3c-2,0-3.8,1-4.8,2.7    l-7.9,13.1c-1,1.7-1,3.8-0.1,5.5l7.4,13.3c1,1.7,2.8,2.8,4.7,2.8l15.3,0.3C106.7,148,108.6,147,109.6,145.3z"/>
		<path class="st3" d="M72.3,123.7l7.9-13.1c1-1.7,1-3.8,0.1-5.5l-7.4-13.3c-1-1.7-2.8-2.8-4.7-2.8l-15.3-0.3c-2,0-3.8,1-4.8,2.7    l-7.9,13.1c-1,1.7-1,3.8-0.1,5.5l7.4,13.3c1,1.7,2.8,2.8,4.7,2.8l15.3,0.3C69.5,126.4,71.3,125.3,72.3,123.7z"/>
		<path class="st3" d="M109.3,102.7l7.9-13.1c1-1.7,1-3.8,0.1-5.5l-7.4-13.3c-1-1.7-2.8-2.8-4.7-2.8l-15.3-0.3c-2,0-3.8,1-4.8,2.7    l-7.9,13.1c-1,1.7-1,3.8-0.1,5.5l7.4,13.3c1,1.7,2.8,2.8,4.7,2.8l15.3,0.3C106.5,105.4,108.3,104.4,109.3,102.7z"/>
		<path class="st3" d="M139.4,55.2"/>
		<path class="st3" d="M141.1,47.9l-13.5-0.2c-2,0-3.8,1-4.8,2.7l-7.9,13.1c-1,1.7-1,3.8-0.1,5.5l7.4,13.3c1,1.7,2.8,2.8,4.7,2.8    c0,0,14.2,0.4,14.3,0.4"/>
		<path class="st3" d="M70.8,338.7l7.8-12.9c1-1.7,1-3.7,0.1-5.4l-7.3-13.2c-1-1.7-2.7-2.8-4.7-2.8l-15.1-0.2c-1.9,0-3.8,1-4.8,2.6    l-7.8,12.9c-1,1.7-1,3.7-0.1,5.4l7.3,13.2c1,1.7,2.7,2.8,4.7,2.8l15.1,0.2C67.9,341.4,69.7,340.4,70.8,338.7z"/>
		<path class="st3" d="M110.7,60.8l7.9-13.1c1-1.7,1.1-3.8,0.1-5.5l-7.5-13.4c-1-1.7-2.8-2.8-4.7-2.8l-15.3-0.3c-2,0-3.8,1-4.8,2.7    l-7.9,13.1c-1,1.7-1.1,3.8-0.1,5.5l7.5,13.4c1,1.7,2.8,2.8,4.7,2.8l15.3,0.3C107.9,63.5,109.7,62.5,110.7,60.8z"/>
		<line class="st3" x1="46.8" y1="388.3" x2="72.6" y2="387.9"/>
		<path class="st2" d="M143,5.6l-14.7-0.2c-2,0-3.8,1-4.8,2.7l-7.9,13.1c-1,1.7-1.1,3.8-0.1,5.5l7.5,13.4c1,1.7,2.8,2.8,4.7,2.8    l15.3,0.3"/>
		<circle class="st6" cx="46.6" cy="388.2" r="0.8"/>
		<circle class="st6" cx="72.6" cy="387.4" r="0.8"/>
		<circle class="st6" cx="75.2" cy="344.5" r="0.8"/>
		<g>
			<line class="st3" x1="107.6" y1="325.6" x2="86.6" y2="325.2"/>
			<line class="st3" x1="75.2" y1="344.2" x2="86.8" y2="325.4"/>
			<line class="st3" x1="75" y1="344" x2="86.1" y2="363.7"/>
			<line class="st3" x1="86.3" y1="363.9" x2="72.6" y2="387.9"/>
			<circle class="st6" cx="86.3" cy="364.1" r="0.8"/>
			<circle class="st6" cx="86.8" cy="325.4" r="0.8"/>
			<circle class="st6" cx="107.5" cy="325.7" r="0.8"/>
		</g>
		<circle class="st6" cx="123.9" cy="253.1" r="0.8"/>
		<circle class="st6" cx="78.9" cy="215.4" r="0.8"/>
		<circle class="st6" cx="87.2" cy="199.7" r="0.8"/>
		<circle class="st6" cx="107.4" cy="200.5" r="0.8"/>
		<circle class="st6" cx="116" cy="217.1" r="0.8"/>
		<circle class="st6" cx="87.9" cy="230.9" r="0.8"/>
		<circle class="st6" cx="106.5" cy="231.1" r="0.8"/>
		<circle class="st6" cx="114" cy="236.5" r="0.8"/>
	</g>
	<g id="Teckning_4_1_">
		<g>
			<defs>
				<rect id="SVGID_5_" x="45.3" y="92.2" width="30.6" height="30.6"/>
			</defs>
			<clipPath id="SVGID_6_">
				<use xlink:href="#SVGID_5_" style="overflow:visible;"/>
			</clipPath>
			<g class="st7">
				<defs>
					<rect id="SVGID_7_" x="45.3" y="92.2" width="30.6" height="30.6"/>
				</defs>
				<clipPath id="SVGID_8_">
					<use xlink:href="#SVGID_7_" style="overflow:visible;"/>
				</clipPath>
				<path class="st8" d="M65,119.1c-0.2,0.1-0.3,0.1-0.4,0.1c-0.7,0.2-1.4,0.4-2.1,0.5c-0.4,0.1-0.6,0.2-0.7,0.6      c-0.3,0.7-0.6,1.5-1,2.2c-0.1,0.3-0.2,0.4-0.5,0.4c-1.3-0.2-2.7-0.4-4-0.6c-0.1,0-0.3-0.3-0.4-0.5c-0.1-0.9-0.2-1.7-0.3-2.6      c0-0.2-0.2-0.4-0.3-0.5c-0.7-0.4-1.4-0.9-2.1-1.3c-0.2-0.1-0.4-0.1-0.6-0.1c-0.8,0.3-1.6,0.6-2.4,0.9c-0.3,0.1-0.4,0.1-0.6-0.1      c-0.8-1.1-1.6-2.1-2.4-3.2c-0.2-0.2-0.1-0.4,0.1-0.6c0.5-0.6,1.1-1.3,1.6-2c0.1-0.2,0.2-0.4,0.1-0.6c-0.2-0.8-0.4-1.6-0.6-2.4      c-0.1-0.2-0.2-0.4-0.4-0.5c-0.7-0.4-1.5-0.7-2.3-1c-0.3-0.1-0.5-0.3-0.4-0.7c0.2-1.3,0.4-2.6,0.6-3.9c0-0.3,0.2-0.4,0.5-0.4      c0.8-0.1,1.7-0.2,2.5-0.3c0.3,0,0.5-0.2,0.6-0.4c0.4-0.7,0.7-1.3,1.2-1.9c0.2-0.3,0.2-0.5,0.1-0.9c-0.3-0.7-0.6-1.5-0.9-2.2      c-0.1-0.3-0.1-0.6,0.2-0.8c1.1-0.8,2.1-1.5,3.1-2.3c0.2-0.2,0.4-0.1,0.6,0.1c0.7,0.6,1.3,1.1,2,1.6c0.1,0.1,0.4,0.2,0.5,0.1      c0.8-0.2,1.6-0.4,2.4-0.6c0.2-0.1,0.4-0.2,0.5-0.4c0.4-0.7,0.7-1.5,1-2.3c0.1-0.3,0.3-0.4,0.6-0.4c1.3,0.2,2.5,0.4,3.8,0.6      c0.4,0.1,0.5,0.3,0.5,0.7c0.1,0.8,0.2,1.5,0.2,2.3c0,0.3,0.1,0.5,0.5,0.7c0.7,0.4,1.3,0.8,2,1.2c0.2,0.1,0.5,0.2,0.7,0.1      c0.8-0.3,1.6-0.6,2.4-0.9c0.3-0.1,0.4-0.1,0.6,0.1c0.8,1,1.5,2.1,2.3,3.1c0.2,0.3,0.2,0.5-0.1,0.8c-0.5,0.6-1,1.3-1.5,1.9      c-0.2,0.2-0.2,0.4-0.1,0.7c0.2,0.7,0.4,1.4,0.5,2.2c0.1,0.4,0.2,0.6,0.6,0.7c0.7,0.3,1.4,0.6,2.1,0.9c0.3,0.1,0.4,0.3,0.4,0.6      c-0.2,1.3-0.4,2.6-0.6,3.9c0,0.1-0.3,0.3-0.4,0.4c-0.9,0.1-1.7,0.2-2.6,0.3c-0.2,0-0.4,0.2-0.5,0.3c-0.5,0.7-0.9,1.4-1.3,2.1      c-0.1,0.1-0.1,0.4-0.1,0.5c0.3,0.8,0.6,1.6,0.9,2.5c0.1,0.2,0,0.5-0.1,0.6c-1.1,0.8-2.2,1.6-3.3,2.4c-0.1,0.1-0.4,0-0.6-0.1      c-0.7-0.5-1.4-1.1-2-1.6C65.2,119.2,65.1,119.1,65,119.1 M60.7,116.5c4.9,0,9-4.1,9-9c0-4.9-4.1-8.9-9-8.9c-4.9,0-8.9,4.1-8.9,9      C51.7,112.5,55.8,116.5,60.7,116.5"/>
				<path class="st8" d="M60.7,116.5c-4.9,0-9-4.1-9-9c0-4.9,4.1-9,9-9c4.9,0,9,4.1,9,9C69.7,112.4,65.6,116.5,60.7,116.5       M67.9,107.5c0-4-3.2-7.2-7.3-7.2c-4,0-7.2,3.3-7.2,7.3c0,4,3.3,7.2,7.2,7.2C64.7,114.8,67.9,111.5,67.9,107.5"/>
			</g>
		</g>
	</g>
	<g id="Teckning_4_5_">
		<g>
			<defs>
				<rect id="SVGID_9_" x="44.3" y="264.4" width="30.6" height="30.6"/>
			</defs>
			<clipPath id="SVGID_10_">
				<use xlink:href="#SVGID_9_" style="overflow:visible;"/>
			</clipPath>
			<g class="st9">
				<defs>
					<rect id="SVGID_11_" x="44.3" y="264.4" width="30.6" height="30.6"/>
				</defs>
				<clipPath id="SVGID_12_">
					<use xlink:href="#SVGID_11_" style="overflow:visible;"/>
				</clipPath>
				<path class="st10" d="M64,291.2c-0.2,0.1-0.3,0.1-0.4,0.1c-0.7,0.2-1.4,0.4-2.1,0.5c-0.4,0.1-0.6,0.2-0.7,0.6      c-0.3,0.7-0.6,1.5-1,2.2c-0.1,0.3-0.2,0.4-0.5,0.4c-1.3-0.2-2.7-0.4-4-0.6c-0.1,0-0.3-0.3-0.4-0.5c-0.1-0.9-0.2-1.7-0.3-2.6      c0-0.2-0.2-0.4-0.3-0.5c-0.7-0.4-1.4-0.9-2.1-1.3c-0.2-0.1-0.4-0.1-0.6-0.1c-0.8,0.3-1.6,0.6-2.4,0.9c-0.3,0.1-0.4,0.1-0.6-0.1      c-0.8-1.1-1.6-2.1-2.4-3.2c-0.2-0.2-0.1-0.4,0.1-0.6c0.5-0.6,1.1-1.3,1.6-2c0.1-0.2,0.2-0.4,0.1-0.6c-0.2-0.8-0.4-1.6-0.6-2.4      c-0.1-0.2-0.2-0.4-0.4-0.5c-0.7-0.4-1.5-0.7-2.3-1c-0.3-0.1-0.5-0.3-0.4-0.7c0.2-1.3,0.4-2.6,0.6-3.9c0-0.3,0.2-0.4,0.5-0.4      c0.8-0.1,1.7-0.2,2.5-0.3c0.3,0,0.5-0.2,0.6-0.4c0.4-0.7,0.7-1.3,1.2-1.9c0.2-0.3,0.2-0.5,0.1-0.9c-0.3-0.7-0.6-1.5-0.9-2.2      c-0.1-0.3-0.1-0.6,0.2-0.8c1.1-0.8,2.1-1.5,3.1-2.3c0.2-0.2,0.4-0.1,0.6,0.1c0.7,0.6,1.3,1.1,2,1.6c0.1,0.1,0.4,0.2,0.5,0.1      c0.8-0.2,1.6-0.4,2.4-0.6c0.2-0.1,0.4-0.2,0.5-0.4c0.4-0.7,0.7-1.5,1-2.3c0.1-0.3,0.3-0.4,0.6-0.4c1.3,0.2,2.5,0.4,3.8,0.6      c0.4,0.1,0.5,0.3,0.5,0.7c0.1,0.8,0.2,1.5,0.2,2.3c0,0.3,0.1,0.5,0.5,0.7c0.7,0.4,1.3,0.8,2,1.2c0.2,0.1,0.5,0.2,0.7,0.1      c0.8-0.3,1.6-0.6,2.4-0.9c0.3-0.1,0.4-0.1,0.6,0.1c0.8,1,1.5,2.1,2.3,3.1c0.2,0.3,0.2,0.5-0.1,0.8c-0.5,0.6-1,1.3-1.5,1.9      c-0.2,0.2-0.2,0.4-0.1,0.7c0.2,0.7,0.4,1.4,0.5,2.2c0.1,0.4,0.2,0.6,0.6,0.7c0.7,0.3,1.4,0.6,2.1,0.9c0.3,0.1,0.4,0.3,0.4,0.6      c-0.2,1.3-0.4,2.6-0.6,3.9c0,0.1-0.3,0.3-0.4,0.4c-0.9,0.1-1.7,0.2-2.6,0.3c-0.2,0-0.4,0.2-0.5,0.3c-0.5,0.7-0.9,1.4-1.3,2.1      c-0.1,0.1-0.1,0.4-0.1,0.5c0.3,0.8,0.6,1.6,0.9,2.5c0.1,0.2,0,0.5-0.1,0.6c-1.1,0.8-2.2,1.6-3.3,2.4c-0.1,0.1-0.4,0-0.6-0.1      c-0.7-0.5-1.4-1.1-2-1.6C64.2,291.3,64.1,291.3,64,291.2 M59.7,288.6c4.9,0,9-4.1,9-9c0-4.9-4.1-8.9-9-8.9c-4.9,0-8.9,4.1-8.9,9      C50.7,284.6,54.8,288.7,59.7,288.6"/>
				<path class="st10" d="M59.7,288.6c-4.9,0-9-4.1-9-9c0-4.9,4.1-9,9-9c4.9,0,9,4.1,9,9C68.6,284.6,64.6,288.7,59.7,288.6       M66.9,279.7c0-4-3.2-7.2-7.3-7.2c-4,0-7.2,3.3-7.2,7.3c0,4,3.3,7.2,7.2,7.2C63.7,286.9,66.9,283.7,66.9,279.7"/>
			</g>
		</g>
	</g>
</g>
</svg>