<?xml version="1.0" encoding="utf-8"?>
<!-- Generator: Adobe Illustrator 25.2.0, SVG Export Plug-In . SVG Version: 6.00 Build 0)  -->
<svg version="1.1" id="Lager_1" xmlns="http://www.w3.org/2000/svg" xmlns:xlink="http://www.w3.org/1999/xlink" x="0px" y="0px"
	 viewBox="0 0 250 711.9" style="enable-background:new 0 0 260.3 711.9;" xml:space="preserve">
<style type="text/css">
	.st0{fill:none;stroke:#7C8DA6;stroke-width:1.6115;stroke-miterlimit:10;}
	.st1{fill:#7C8DA5;stroke:#7C8DA6;stroke-width:1.6115;stroke-miterlimit:10;}
	.st2{fill:#7C8DA5;stroke:#7C8DA5;stroke-width:1.6115;stroke-miterlimit:10;}
	.st3{fill:#7A8DA6;stroke:#7C8DA6;stroke-width:1.6115;stroke-miterlimit:10;}
	.st4{fill:#1F1F1D;stroke:#7C8DA6;stroke-width:2.7185;stroke-miterlimit:10;}
</style>
<g>
	<path class="st0" d="M197.3,575.9l14.4-24c1.9-3.1,1.9-6.9,0.2-10.1l-13.6-24.4c-1.8-3.2-5.1-5.1-8.7-5.2l-28.1-0.5
		c-3.6-0.1-7,1.8-8.9,4.9l-14.4,24c-1.9,3.1-1.9,6.9-0.2,10.1l13.6,24.4c1.8,3.2,5.1,5.1,8.7,5.2l28.1,0.5
		C192.1,580.8,195.4,579,197.3,575.9z"/>
	<line class="st1" x1="211.3" y1="395.3" x2="194.9" y2="363.6"/>
	<line class="st1" x1="156.5" y1="362.9" x2="194.9" y2="363.6"/>
	<line class="st1" x1="141.7" y1="391.5" x2="157.5" y2="362.3"/>
	<line class="st1" x1="159.5" y1="420.6" x2="142.1" y2="390.8"/>
	<line class="st1" x1="194" y1="420.2" x2="158.8" y2="420"/>
	<line class="st1" x1="225.4" y1="461.1" x2="206.6" y2="430.1"/>
	<path class="st1" d="M253.3,461c-9.7,0-19.3,0-29-0.4"/>
	<path class="st0" d="M130.1,460.3l14.4-24c1.9-3.1,1.9-6.9,0.2-10.1l-13.6-24.4c-1.8-3.2-5.1-5.1-8.7-5.2l-28.1-0.5
		c-3.6-0.1-7,1.8-8.9,4.9L71,425c-1.9,3.1-1.9,6.9-0.2,10.1l13.6,24.4c1.8,3.2,5.1,5.1,8.7,5.2l28.1,0.5
		C124.9,465.2,128.3,463.4,130.1,460.3z"/>
	<path class="st1" d="M129,539l14.4-24c1.9-3.1,1.9-6.9,0.2-10.1l-13.6-24.4c-1.8-3.2-5.1-5.1-8.7-5.2l-28.1-0.5
		c-3.6-0.1-7,1.8-8.9,4.9l-14.4,24c-1.9,3.1-1.9,6.9-0.2,10.1l13.6,24.4c1.8,3.2,5.1,5.1,8.7,5.2l28.1,0.5
		C123.7,544,127.1,542.1,129,539z"/>
	<path class="st2" d="M198.1,498.4l14.4-24c1.9-3.1,1.9-6.9,0.2-10.1l-13.6-24.4c-1.8-3.2-5.1-5.1-8.7-5.2l-28.1-0.5
		c-3.6-0.1-7,1.8-8.9,4.9l-14.4,24c-1.9,3.1-1.9,6.9-0.2,10.1l13.6,24.4c1.8,3.2,5.1,5.1,8.7,5.2l28.1,0.5
		C192.9,503.4,196.3,501.5,198.1,498.4z"/>
	<path class="st0" d="M63.7,419.8l14.4-24c1.9-3.1,1.9-6.9,0.2-10.1l-13.6-24.4c-1.8-3.2-5.1-5.1-8.7-5.2l-28.1-0.5
		c-3.6-0.1-7,1.8-8.9,4.9l-14.4,24c-1.9,3.1-1.9,6.9-0.2,10.1L18,419c1.8,3.2,5.1,5.1,8.7,5.2l28.1,0.5
		C58.4,424.7,61.8,422.9,63.7,419.8z"/>
	<path class="st3" d="M133,382.7l14.4-24c1.9-3.1,1.9-6.9,0.2-10.1L134,324.1c-1.8-3.2-5.1-5.1-8.7-5.2l-28.1-0.5
		c-3.6-0.1-7,1.8-8.9,4.9l-14.4,24c-1.9,3.1-1.9,6.9-0.2,10.1l13.6,24.4c1.8,3.2,5.1,5.1,8.7,5.2l28.1,0.5
		C127.8,387.6,131.2,385.8,133,382.7z"/>
	<path class="st2" d="M199.5,341.9l14.4-24c1.9-3.1,1.9-6.9,0.2-10.1l-13.6-24.4c-1.8-3.2-5.1-5.1-8.7-5.2l-28.1-0.5
		c-3.6-0.1-7,1.8-8.9,4.9l-14.4,24c-1.9,3.1-1.9,6.9-0.2,10.1l13.6,24.4c1.8,3.2,5.1,5.1,8.7,5.2l28.1,0.5
		C194.3,346.8,197.6,345,199.5,341.9z"/>
	<path class="st1" d="M255.5,322l-24.8-0.4c-3.6-0.1-7,1.8-8.9,4.9l-14.4,24c-1.9,3.1-1.9,6.9-0.2,10.1l13.6,24.4
		c1.8,3.2,5.1,5.1,8.7,5.2l26.9,0.5"/>
	<path class="st0" d="M199,263.2l14.4-24c1.9-3.1,1.9-6.9,0.2-10.1l-13.6-24.4c-1.8-3.2-5.1-5.1-8.7-5.2l-28.1-0.5
		c-3.6-0.1-7,1.8-8.9,4.9l-14.4,24c-1.9,3.1-1.9,6.9-0.2,10.1l13.6,24.4c1.8,3.2,5.1,5.1,8.7,5.2l28.1,0.5
		C193.7,268.2,197.1,266.3,199,263.2z"/>
	<path class="st1" d="M130.7,223.5l14.4-24c1.9-3.1,1.9-6.9,0.2-10.1L131.6,165c-1.8-3.2-5.1-5.1-8.7-5.2l-28.1-0.5
		c-3.6-0.1-7,1.8-8.9,4.9l-14.4,24c-1.9,3.1-1.9,6.9-0.2,10.1L85,222.7c1.8,3.2,5.1,5.1,8.7,5.2l28.1,0.5
		C125.4,228.5,128.8,226.6,130.7,223.5z"/>
	<path class="st1" d="M198.5,185l14.4-24c1.9-3.1,1.9-6.9,0.2-10.1l-13.6-24.4c-1.8-3.2-5.1-5.1-8.7-5.2l-28.1-0.5
		c-3.6-0.1-7,1.8-8.9,4.9l-14.4,24c-1.9,3.1-1.9,6.9-0.2,10.1l13.6,24.4c1.8,3.2,5.1,5.1,8.7,5.2l28.1,0.5
		C193.2,190,196.6,188.1,198.5,185z"/>
	<path class="st1" d="M253.6,98"/>
	<path class="st1" d="M256.7,84.6L232,84.2c-3.6-0.1-7,1.8-8.9,4.9l-14.4,24c-1.9,3.1-1.9,6.9-0.2,10.1l13.6,24.4
		c1.8,3.2,5.1,5.1,8.7,5.2c0,0,26,0.8,26.1,0.8"/>
	<path class="st1" d="M127.8,617.7L142,594c1.8-3.1,1.9-6.8,0.2-10l-13.5-24.1c-1.7-3.1-5-5.1-8.6-5.1l-27.7-0.5
		c-3.6-0.1-6.9,1.8-8.8,4.8l-14.3,23.7c-1.8,3.1-1.9,6.8-0.2,10l13.5,24.1c1.7,3.1,5,5.1,8.6,5.1l27.7,0.5
		C122.6,622.6,125.9,620.7,127.8,617.7z"/>
	<path class="st1" d="M201.1,108.3l14.5-24c1.9-3.1,1.9-6.9,0.2-10.1l-13.7-24.5c-1.8-3.2-5.1-5.1-8.7-5.2L165.2,44
		c-3.6-0.1-7,1.8-8.9,4.9l-14.5,24c-1.9,3.1-1.9,6.9-0.2,10.1l13.7,24.5c1.8,3.2,5.1,5.1,8.7,5.2l28.1,0.5
		C195.8,113.3,199.2,111.4,201.1,108.3z"/>
	<line class="st1" x1="83.9" y1="708.5" x2="131.2" y2="707.7"/>
	<path class="st0" d="M260.2,7.1l-27-0.4c-3.6-0.1-7,1.8-8.9,4.9l-14.5,24c-1.9,3.1-1.9,6.9-0.2,10.1l13.7,24.5
		c1.8,3.2,5.1,5.1,8.7,5.2l28.1,0.5"/>
	<circle class="st4" cx="83.5" cy="708.3" r="1.4"/>
	<circle class="st4" cx="131.2" cy="707" r="1.4"/>
	<circle class="st4" cx="135.8" cy="628.3" r="1.4"/>
	<g>
		<line class="st1" x1="195.3" y1="593.7" x2="156.7" y2="592.9"/>
		<line class="st1" x1="135.9" y1="627.8" x2="157.1" y2="593.3"/>
		<line class="st1" x1="135.5" y1="627.4" x2="156" y2="663.5"/>
		<line class="st1" x1="156.4" y1="663.9" x2="131.2" y2="707.7"/>
		<circle class="st4" cx="156.3" cy="664.1" r="1.4"/>
		<circle class="st4" cx="157.2" cy="593.2" r="1.4"/>
		<circle class="st4" cx="195.1" cy="593.8" r="1.4"/>
	</g>
	<circle class="st4" cx="225.2" cy="460.7" r="1.4"/>
	<circle class="st4" cx="142.6" cy="391.6" r="1.4"/>
	<circle class="st4" cx="157.9" cy="362.9" r="1.4"/>
	<circle class="st4" cx="194.9" cy="364.4" r="1.4"/>
	<circle class="st4" cx="210.7" cy="394.7" r="1.4"/>
	<circle class="st4" cx="159.2" cy="420.1" r="1.4"/>
	<circle class="st4" cx="193.3" cy="420.4" r="1.4"/>
	<circle class="st4" cx="207.1" cy="430.3" r="1.4"/>
</g>
</svg>
