<?xml version="1.0" encoding="utf-8"?>
<!-- Generator: Adobe Illustrator 25.2.0, SVG Export Plug-In . SVG Version: 6.00 Build 0)  -->
<svg version="1.1" id="Lager_1" xmlns="http://www.w3.org/2000/svg" xmlns:xlink="http://www.w3.org/1999/xlink" x="0px" y="0px"
	 viewBox="0 0 140.55 123.42" style="enable-background:new 0 0 140.55 123.42;" xml:space="preserve">
<style type="text/css">
	.st0{fill:none;stroke:#7B8DA6;stroke-miterlimit:10;}
	.st1{fill:#7B8DA6;stroke:#7B8DA6;stroke-miterlimit:10;}
	.st2{fill:none;}
	.st3{font-family:'Aptly-Bold';}
	.st4{font-size:40.5254px;}
</style>
<g>
	<path class="st0" d="M38.98,108.73L14.15,67.31c-1.67-2.79-1.73-6.25-0.15-9.09l23.45-42.21c1.58-2.84,4.55-4.62,7.8-4.67
		l48.28-0.8c3.25-0.05,6.28,1.63,7.95,4.41l24.83,41.41c1.67,2.79,1.73,6.25,0.15,9.09L103,107.67c-1.58,2.84-4.55,4.62-7.8,4.67
		l-48.28,0.8C43.68,113.19,40.65,111.51,38.98,108.73z"/>
	<circle class="st1" cx="127.9" cy="60.14" r="1.72"/>
	<circle class="st1" cx="12" cy="63.47" r="1.72"/>
	<circle class="st1" cx="97.68" cy="11.38" r="1.72"/>
	<circle class="st1" cx="41.19" cy="12.76" r="1.72"/>
	<g>
		<path class="st0" d="M33.89,117.57L3.64,67.11c-1.6-2.67-1.65-5.98-0.14-8.7L32.06,6.98c1.51-2.72,4.35-4.42,7.46-4.47l58.83-0.97
			c3.11-0.05,6.01,1.56,7.6,4.22l30.25,50.46c1.6,2.67,1.65,5.98,0.14,8.7l-28.57,51.43c-1.51,2.72-4.35,4.42-7.46,4.47l-58.83,0.97
			C38.39,121.84,35.49,120.23,33.89,117.57z"/>
	</g>
	<rect x="61.83" y="42.6" class="st2" width="32.85" height="50.64"/>
	<text transform="matrix(1 0 0 1 61.8307 76.0372)" class="st0 st3 st4">2</text>
	<circle class="st1" cx="41.75" cy="112.35" r="1.72"/>
	<circle class="st1" cx="100.36" cy="111.31" r="1.72"/>
</g>
</svg>
