<?xml version="1.0" encoding="utf-8"?>
<!-- Generator: Adobe Illustrator 25.2.0, SVG Export Plug-In . SVG Version: 6.00 Build 0)  -->
<svg version="1.1" id="Lager_1" xmlns="http://www.w3.org/2000/svg" xmlns:xlink="http://www.w3.org/1999/xlink" x="0px" y="0px"
	 viewBox="0 0 138.26 122.69" style="enable-background:new 0 0 138.26 122.69;" xml:space="preserve">
<style type="text/css">
	.st0{fill:#7B8DA6;stroke:#7B8DA6;stroke-width:3.2538;stroke-miterlimit:10;}
	.st1{fill:none;stroke:#7B8DA6;stroke-miterlimit:10;}
	.st2{fill:none;}
	.st3{font-family:'Aptly-Bold';}
	.st4{font-size:40.5254px;}
</style>
<circle class="st0" cx="96.64" cy="110.84" r="1.72"/>
<circle class="st0" cx="124.95" cy="59.61" r="1.72"/>
<circle class="st0" cx="95.58" cy="10.38" r="1.72"/>
<g>
	<path class="st1" d="M31.82,117.14L1.87,67.18c-1.69-2.82-1.75-6.33-0.15-9.21L30,7.06c1.6-2.88,4.61-4.68,7.9-4.74l58.24-0.96
		c3.29-0.05,6.36,1.65,8.05,4.47l29.95,49.95c1.69,2.82,1.75,6.33,0.15,9.21l-28.29,50.91c-1.6,2.88-4.61,4.68-7.9,4.74l-58.24,0.96
		C36.58,121.66,33.51,119.96,31.82,117.14z"/>
	<path class="st1" d="M36.24,107.8l-24.6-41.02c-1.74-2.91-1.8-6.52-0.16-9.48l23.23-41.81c1.64-2.96,4.74-4.82,8.13-4.88
		l47.83-0.79c3.39-0.06,6.55,1.7,8.29,4.6l24.6,41.02c1.74,2.91,1.8,6.52,0.16,9.48l-23.23,41.81c-1.64,2.96-4.74,4.82-8.13,4.88
		l-47.83,0.79C41.14,112.46,37.98,110.71,36.24,107.8z"/>
	<rect x="60.57" y="40.43" class="st2" width="32.85" height="53.38"/>
	<text transform="matrix(1 0 0 1 60.5754 73.8611)" class="st1 st3 st4">1</text>
</g>
<circle class="st0" cx="39.62" cy="111.56" r="1.72"/>
<circle class="st0" cx="10.25" cy="62.49" r="1.72"/>
<circle class="st0" cx="38.08" cy="11.94" r="1.72"/>
</svg>
