<?xml version="1.0" encoding="utf-8"?>
<!-- Generator: Adobe Illustrator 25.2.0, SVG Export Plug-In . SVG Version: 6.00 Build 0)  -->
<svg version="1.1" id="Lager_1" xmlns="http://www.w3.org/2000/svg" xmlns:xlink="http://www.w3.org/1999/xlink" x="0px" y="0px"
	 viewBox="0 0 138.26 124.8" style="enable-background:new 0 0 138.26 124.8;" xml:space="preserve">
<style type="text/css">
	.st0{fill:none;stroke:#7B8DA6;stroke-miterlimit:10;}
	.st1{fill:#7B8DA6;stroke:#7B8DA6;stroke-miterlimit:10;}
	.st2{fill:none;}
	.st3{font-family:'Aptly-Bold';}
	.st4{font-size:27px;}
</style>
<g>
	<path class="st0" d="M31.51,117.88L3.92,71.86C1.5,67.82,1.41,62.8,3.7,58.68l26.06-46.91c2.29-4.12,6.6-6.7,11.3-6.78l53.65-0.89
		c4.71-0.08,9.1,2.36,11.52,6.4l27.59,46.02c2.42,4.04,2.5,9.06,0.22,13.18l-26.06,46.91c-2.29,4.12-6.6,6.7-11.3,6.78l-53.65,0.89
		C38.32,124.36,33.93,121.92,31.51,117.88z"/>
	<path class="st0" d="M36.82,109.67L13.51,70.77c-2.14-3.57-2.21-8-0.19-11.63L35.34,19.5c2.02-3.63,5.82-5.91,9.98-5.98l45.34-0.75
		c4.16-0.07,8.03,2.09,10.17,5.65l23.32,38.89c2.14,3.57,2.21,8,0.19,11.63l-22.02,39.64c-2.02,3.63-5.82,5.91-9.98,5.98
		l-45.34,0.75C42.84,115.38,38.96,113.23,36.82,109.67z"/>
	<circle class="st1" cx="126.03" cy="62.2" r="1.72"/>
	<circle class="st1" cx="11.69" cy="65.02" r="1.72"/>
	<circle class="st1" cx="42.23" cy="114.26" r="1.72"/>
	<circle class="st1" cx="97.77" cy="112.62" r="1.72"/>
	<circle class="st1" cx="96.68" cy="15.05" r="1.72"/>
	<circle class="st1" cx="39.41" cy="16.14" r="1.72"/>
	<rect x="61.71" y="50.59" class="st2" width="34.29" height="48.88"/>
	<text transform="matrix(1 0 0 1 61.7129 72.8646)" class="st0 st3 st4">3</text>
</g>
</svg>
