<?xml version="1.0" encoding="utf-8"?>
<!-- Generator: Adobe Illustrator 25.2.0, SVG Export Plug-In . SVG Version: 6.00 Build 0)  -->
<svg version="1.1" id="Lager_1" xmlns="http://www.w3.org/2000/svg" xmlns:xlink="http://www.w3.org/1999/xlink" x="0px" y="0px"
	 viewBox="0 0 172.3 148.9" style="enable-background:new 0 0 172.3 148.9;" xml:space="preserve">
<style type="text/css">
	.st0{fill:none;stroke:#7C8DA6;stroke-width:1.2091;stroke-miterlimit:10;}
	.st1{fill:none;}
	.st2{font-family:'Aptly-Bold';}
	.st3{font-size:48.9996px;}
</style>
<g>
	<path class="st0" d="M43.2,141.8L7,81.4C5,78,4.9,73.7,6.9,70.3L41,8.7C43,5.2,46.6,3,50.6,3L121,1.8c4-0.1,7.7,2,9.7,5.4L167,67.6
		c2,3.4,2.1,7.7,0.2,11.1l-34.2,61.6c-1.9,3.5-5.6,5.7-9.6,5.7L53,147.2C49,147.3,45.3,145.2,43.2,141.8z"/>
	<path class="st0" d="M48.6,130.5L18.8,80.9c-2.1-3.5-2.2-7.9-0.2-11.5l28.1-50.6c2-3.6,5.7-5.8,9.8-5.9l57.8-1
		c4.1-0.1,7.9,2.1,10,5.6l29.7,49.6c2.1,3.5,2.2,7.9,0.2,11.5l-28.1,50.6c-2,3.6-5.7,5.8-9.8,5.9l-57.8,1
		C54.5,136.1,50.7,134,48.6,130.5z"/>
	<rect x="78" y="49" class="st1" width="39.7" height="64.5"/>
	<text transform="matrix(1 0 0 1 78.0169 89.4701)" class="st0 st2 st3">1</text>
</g>
</svg>
