<?xml version="1.0" encoding="utf-8"?>
<!-- Generator: Adobe Illustrator 25.2.0, SVG Export Plug-In . SVG Version: 6.00 Build 0)  -->
<svg version="1.1" id="Lager_1" xmlns="http://www.w3.org/2000/svg" xmlns:xlink="http://www.w3.org/1999/xlink" x="0px" y="0px"
	 viewBox="0 0 312.82 400.08" style="enable-background:new 0 0 312.82 400.08;" xml:space="preserve">
<style type="text/css">
	.st0{fill:none;stroke:#7B8DA6;stroke-width:2.3987;stroke-miterlimit:10;}
	.st1{fill:#1E1E1C;stroke:#7B8DA6;stroke-width:3.6593;stroke-miterlimit:10;}
	.st2{fill:none;stroke:#7B8DA6;stroke-width:2.3898;stroke-miterlimit:10;}
</style>
<g>
	<g>
		<path class="st0" d="M288.16,148.72l18.8-31.36c2.32-3.87,2.4-8.68,0.21-12.62l-17.76-31.96c-2.19-3.94-6.31-6.41-10.82-6.49
			l-36.56-0.6c-4.51-0.07-8.71,2.26-11.03,6.13l-18.8,31.36c-2.32,3.87-2.4,8.68-0.21,12.62l17.76,31.96
			c2.19,3.94,6.31,6.41,10.82,6.49l36.56,0.6C281.64,154.92,285.84,152.59,288.16,148.72z"/>
		<path class="st0" d="M204.99,88.34l18.8-31.36c2.32-3.87,2.4-8.68,0.21-12.62L206.24,12.4c-2.19-3.94-6.31-6.41-10.82-6.49
			l-36.56-0.6c-4.51-0.07-8.71,2.26-11.03,6.13l-18.8,31.36c-2.32,3.87-2.4,8.68-0.21,12.62l17.76,31.96
			c2.19,3.94,6.31,6.41,10.82,6.49l36.56,0.6C198.46,94.54,202.67,92.21,204.99,88.34z"/>
		<path class="st0" d="M52.73,141.18l-17.76-31.96c-2.19-3.94-6.31-6.41-10.82-6.49l-17.07-0.28c-0.13,27.56-0.32,55.13-0.64,82.69
			c-0.02,1.96-0.06,3.92-0.08,5.88l16.33,0.27c4.51,0.07,8.71-2.26,11.03-6.13l18.8-31.36C54.84,149.93,54.92,145.12,52.73,141.18z"
			/>
		<path class="st0" d="M120.09,140.59l18.8-31.36c2.32-3.87,2.4-8.68,0.21-12.62l-17.76-31.96c-2.19-3.94-6.31-6.41-10.82-6.49
			l-36.56-0.6c-4.51-0.07-8.71,2.26-11.03,6.13l-18.8,31.36c-2.32,3.87-2.4,8.68-0.21,12.62l17.76,31.96
			c2.19,3.94,6.31,6.41,10.82,6.49l36.56,0.6C113.57,146.79,117.77,144.45,120.09,140.59z"/>
		<path class="st0" d="M7.12,93.75l18.67,0.31c4.51,0.07,8.71-2.26,11.03-6.13l18.8-31.36c2.32-3.87,2.4-8.68,0.21-12.62
			L38.07,11.99c-2.19-3.94-6.31-6.41-10.82-6.49L7.33,5.18"/>
		<path class="st0" d="M7.33,5.18C7.32,34.7,7.25,64.23,7.12,93.75"/>
		<line class="st0" x1="221.98" y1="157.36" x2="198.98" y2="114.01"/>
		<line class="st0" x1="152.62" y1="114.38" x2="198.98" y2="114.01"/>
		<line class="st0" x1="131.88" y1="151.33" x2="152.62" y2="114.38"/>
		<line class="st0" x1="131.88" y1="151.33" x2="151.49" y2="185.25"/>
		<circle class="st1" cx="151.06" cy="186.01" r="1.93"/>
		<circle class="st1" cx="132.31" cy="151.7" r="1.93"/>
		<circle class="st1" cx="152.67" cy="115.14" r="1.93"/>
		<circle class="st1" cx="198.98" cy="114.01" r="1.93"/>
		<circle class="st1" cx="221.65" cy="157.73" r="1.93"/>
		<path class="st0" d="M117.9,337.92l18.8-31.36c2.32-3.87,2.4-8.68,0.21-12.62l-17.76-31.96c-2.19-3.94-6.31-6.41-10.82-6.49
			l-36.56-0.6c-4.51-0.07-8.71,2.26-11.03,6.13l-18.8,31.36c-2.32,3.87-2.4,8.68-0.21,12.62l17.76,31.96
			c2.19,3.94,6.31,6.41,10.82,6.49l36.56,0.6C111.38,344.12,115.58,341.78,117.9,337.92z"/>
		<path class="st0" d="M51.75,242.46L34,210.49c-2.19-3.94-6.31-6.41-10.82-6.49l-16.99-0.28c-0.43,29.53-1,59.04-1.52,88.55
			l17.05,0.28c4.51,0.07,8.71-2.26,11.03-6.13l18.8-31.36C53.86,251.2,53.94,246.4,51.75,242.46z"/>
		<line class="st0" x1="67.03" y1="245.39" x2="120.4" y2="246.69"/>
		<line class="st0" x1="147.25" y1="291.14" x2="119.24" y2="246.11"/>
		<line class="st0" x1="67.71" y1="245.97" x2="43.03" y2="204.54"/>
		<line class="st0" x1="147.25" y1="291.14" x2="194.88" y2="291.43"/>
		<circle class="st1" cx="194.88" cy="291.43" r="1.93"/>
		<circle class="st1" cx="147.91" cy="290.86" r="1.93"/>
		<circle class="st1" cx="119.82" cy="246.89" r="1.93"/>
		<circle class="st1" cx="67.03" cy="245.39" r="1.93"/>
		<circle class="st1" cx="43.41" cy="204.83" r="1.93"/>
	</g>
	<path class="st2" d="M49.75,347.74L32.11,315.8c-2.17-3.94-6.27-6.41-10.75-6.48l-17.1-0.28c-0.5,29.49-0.89,58.99-0.99,88.5
		l16.64,0.28c4.48,0.07,8.65-2.26,10.96-6.12l18.68-31.34C51.84,356.48,51.92,351.68,49.75,347.74z"/>
</g>
</svg>
