<?xml version="1.0" encoding="utf-8"?>
<!-- Generator: Adobe Illustrator 25.2.0, SVG Export Plug-In . SVG Version: 6.00 Build 0)  -->
<svg version="1.1" id="Lager_1" xmlns="http://www.w3.org/2000/svg" xmlns:xlink="http://www.w3.org/1999/xlink" x="0px" y="0px"
	 viewBox="0 0 595.28 841.89" style="enable-background:new 0 0 595.28 841.89;" xml:space="preserve">
<style type="text/css">
	.st0{fill:none;stroke:#1E1E1C;stroke-width:2.2473;stroke-miterlimit:10;}
	.st1{fill:#1E1E1C;stroke:#1E1E1C;stroke-width:2.2473;stroke-miterlimit:10;}
</style>
<g>
	<path class="st0" d="M513.13,361.03l16.91-29.28c2.18-3.78,2.18-8.43,0-12.21l-16.91-29.28c-2.18-3.78-6.21-6.1-10.57-6.1h-33.81
		c-4.36,0-8.39,2.33-10.57,6.1l-16.91,29.28c-2.18,3.78-2.18,8.43,0,12.21l16.91,29.28c2.18,3.78,6.21,6.1,10.57,6.1h33.81
		C506.92,367.14,510.95,364.81,513.13,361.03z"/>
	<path class="st0" d="M347.02,550.91l17.39-29c2.24-3.74,2.32-8.39,0.2-12.21l-16.42-29.56c-2.12-3.81-6.11-6.21-10.47-6.28
		l-33.81-0.56c-4.36-0.07-8.43,2.19-10.67,5.93l-17.39,29c-2.24,3.74-2.32,8.39-0.2,12.21l16.42,29.56
		c2.12,3.81,6.11,6.21,10.47,6.28l33.81,0.56C340.71,556.91,344.78,554.65,347.02,550.91z"/>
	<path class="st0" d="M428.95,505l17.39-29c2.24-3.74,2.32-8.39,0.2-12.21l-16.42-29.56c-2.12-3.81-6.11-6.21-10.47-6.28
		l-33.81-0.56c-4.36-0.07-8.43,2.19-10.67,5.93l-17.39,29c-2.24,3.74-2.32,8.39-0.2,12.21L374,504.09
		c2.12,3.81,6.11,6.21,10.47,6.28l33.81,0.56C422.64,511,426.71,508.74,428.95,505z"/>
	<path class="st0" d="M432.55,410.91l17.39-29c2.24-3.74,2.32-8.39,0.2-12.21l-16.42-29.56c-2.12-3.81-6.11-6.21-10.47-6.28
		l-33.81-0.56c-4.36-0.07-8.43,2.19-10.67,5.93l-17.39,29c-2.24,3.74-2.32,8.39-0.2,12.21L377.6,410c2.12,3.81,6.11,6.21,10.47,6.28
		l33.81,0.56C426.24,416.91,430.31,414.65,432.55,410.91z"/>
	<path class="st0" d="M166.96,501.39l17.39-29c2.24-3.74,2.32-8.39,0.2-12.21l-16.42-29.56c-2.12-3.81-6.11-6.21-10.47-6.28
		l-33.81-0.56c-4.36-0.07-8.43,2.19-10.67,5.93l-17.39,29c-2.24,3.74-2.32,8.39-0.2,12.21l16.42,29.56
		c2.12,3.81,6.11,6.21,10.47,6.28l33.81,0.56C160.64,507.39,164.71,505.13,166.96,501.39z"/>
	<path class="st0" d="M267.34,503.2l17.39-29c2.24-3.74,2.32-8.39,0.2-12.21l-16.42-29.56c-2.12-3.81-6.11-6.21-10.47-6.28
		l-33.81-0.56c-4.36-0.07-8.43,2.19-10.67,5.93l-17.39,29c-2.24,3.74-2.32,8.39-0.2,12.21l16.42,29.56
		c2.12,3.81,6.11,6.21,10.47,6.28l33.81,0.56C261.03,509.2,265.1,506.94,267.34,503.2z"/>
	<path class="st0" d="M102.61,504.31l-16.42-29.56c-2.12-3.81-6.11-6.21-10.47-6.28l-8.46-0.14c0.3,5.07,0.26,10.43-0.84,15.12
		c1.67,1.79,2.37,4.74,0.46,7.18c-0.94,1.2-1.68,2.43-2.29,3.69c1.52,1.29,2.34,3.66,2.08,5.56c-0.91,6.65-1.96,13.25-1.85,19.96
		c0,0.07,0,0.15,0,0.22c2.17,10.36,2.08,20.72,2.03,31.24l7.5,0.12c4.36,0.07,8.43-2.19,10.67-5.93l17.39-29
		C104.65,512.77,104.73,508.12,102.61,504.31z"/>
	<path class="st0" d="M102.16,411.57l-16.42-29.56c-2.12-3.81-6.11-6.21-10.47-6.28l-8.83-0.15c-0.38,13.72-0.94,27.43-1.63,41.14
		c2.36,6.19,2.13,13.46,1.75,19.88c-0.4,6.71-0.81,13.18-0.31,19.89c0.05,0.66,0.11,1.36,0.17,2.08l7.46,0.12
		c4.36,0.07,8.43-2.19,10.67-5.93l17.39-29C104.2,420.04,104.28,415.38,102.16,411.57z"/>
	<line class="st0" x1="344.69" y1="381.67" x2="372.09" y2="422.36"/>
	<line class="st0" x1="347.51" y1="465.47" x2="372.89" y2="421.96"/>
	<line class="st0" x1="295.94" y1="464.66" x2="347.51" y2="465.47"/>
	<line class="st0" x1="272.17" y1="417.93" x2="298.36" y2="463.86"/>
	<line class="st0" x1="216.57" y1="416.72" x2="272.17" y2="417.93"/>
	<ellipse class="st1" cx="217.78" cy="417.32" rx="3.61" ry="4.03"/>
	<ellipse class="st1" cx="296.34" cy="464.46" rx="3.61" ry="4.03"/>
	<ellipse class="st1" cx="272.17" cy="418.74" rx="3.61" ry="4.03"/>
	<ellipse class="st1" cx="347.51" cy="465.67" rx="3.61" ry="4.03"/>
	<ellipse class="st1" cx="371.28" cy="422.76" rx="3.61" ry="4.03"/>
	<ellipse class="st1" cx="345.9" cy="380.66" rx="3.61" ry="4.03"/>
</g>
</svg>
