<?xml version="1.0" encoding="utf-8"?>
<!-- Generator: Adobe Illustrator 25.2.0, SVG Export Plug-In . SVG Version: 6.00 Build 0)  -->
<svg version="1.1" id="Lager_1" xmlns="http://www.w3.org/2000/svg" xmlns:xlink="http://www.w3.org/1999/xlink" x="0px" y="0px"
	 viewBox="0 0 150.18 181.92" style="enable-background:new 0 0 150.18 181.92;" xml:space="preserve">
<style type="text/css">
	.st0{fill:none;stroke:#7B8DA6;stroke-miterlimit:10;}
	.st1{fill:#7B8DA6;stroke:#7B8DA6;stroke-miterlimit:10;}
</style>
<g>
	<g>
		<path class="st0" d="M135.42,124.49l9.52-15.88c1.23-2.05,1.27-4.6,0.11-6.69l-8.99-16.19c-1.16-2.09-3.35-3.4-5.73-3.44
			l-18.52-0.31c-2.39-0.04-4.62,1.2-5.84,3.25l-9.52,15.88c-1.23,2.05-1.27,4.6-0.11,6.69l8.99,16.19c1.16,2.09,3.35,3.4,5.73,3.44
			l18.52,0.31C131.97,127.78,134.19,126.54,135.42,124.49z"/>
		<path class="st0" d="M92.23,97.2l9.52-15.88c1.23-2.05,1.27-4.6,0.11-6.69l-8.99-16.19c-1.16-2.09-3.35-3.4-5.73-3.44L68.61,54.7
			c-2.39-0.04-4.62,1.2-5.84,3.25l-9.52,15.88c-1.23,2.05-1.27,4.6-0.11,6.69l8.99,16.19c1.16,2.09,3.35,3.4,5.73,3.44l18.52,0.31
			C88.77,100.49,91,99.25,92.23,97.2z"/>
		<path class="st0" d="M89.52,148.92l9.52-15.88c1.23-2.05,1.27-4.6,0.11-6.69l-8.99-16.19c-1.16-2.09-3.35-3.4-5.73-3.44
			l-18.52-0.31c-2.39-0.04-4.62,1.2-5.84,3.25l-9.52,15.88c-1.23,2.05-1.27,4.6-0.11,6.69l8.99,16.19c1.16,2.09,3.35,3.4,5.73,3.44
			l18.52,0.31C86.07,152.2,88.29,150.96,89.52,148.92z"/>
		<path class="st0" d="M44.8,175.4l9.52-15.88c1.23-2.05,1.27-4.6,0.11-6.69l-8.99-16.19c-1.16-2.09-3.35-3.4-5.73-3.44l-18.52-0.31
			c-2.39-0.04-4.62,1.2-5.84,3.25l-9.52,15.88c-1.23,2.05-1.27,4.6-0.11,6.69l8.99,16.19c1.16,2.09,3.35,3.4,5.73,3.44l18.52,0.31
			C41.34,178.68,43.57,177.45,44.8,175.4z"/>
		<line class="st0" x1="55.08" y1="52.64" x2="40.07" y2="75.88"/>
		<line class="st0" x1="55.96" y1="101.78" x2="40.07" y2="75.88"/>
		<line class="st0" x1="40.96" y1="123.55" x2="55.96" y2="101.78"/>
		<line class="st0" x1="17.12" y1="123.84" x2="40.96" y2="123.55"/>
		<line class="st0" x1="5.06" y1="103.84" x2="17.12" y2="123.84"/>
		<line class="st0" x1="53.31" y1="174.75" x2="62.14" y2="159.15"/>
		<line class="st0" x1="90.09" y1="159.15" x2="62.14" y2="159.15"/>
		<line class="st0" x1="105.39" y1="133.55" x2="90.09" y2="159.15"/>
		<line class="st0" x1="133.35" y1="133.85" x2="105.39" y2="133.55"/>
		<ellipse class="st1" cx="55.46" cy="52.64" rx="1.98" ry="2.21"/>
		<ellipse class="st1" cx="106.28" cy="134.58" rx="1.98" ry="2.21"/>
		<ellipse class="st1" cx="90.09" cy="159.15" rx="1.98" ry="2.21"/>
		<ellipse class="st1" cx="62.14" cy="159.15" rx="1.98" ry="2.21"/>
		<ellipse class="st1" cx="17.42" cy="123.4" rx="1.98" ry="2.21"/>
		<ellipse class="st1" cx="5.06" cy="103.84" rx="1.98" ry="2.21"/>
		<ellipse class="st1" cx="40.96" cy="123.55" rx="1.98" ry="2.21"/>
		<ellipse class="st1" cx="55.67" cy="102.22" rx="1.98" ry="2.21"/>
		<ellipse class="st1" cx="40.37" cy="76.33" rx="1.98" ry="2.21"/>
	</g>
	<path class="st0" d="M91.9,47.62l9.22-15.89c1.14-1.96,1.18-4.37,0.1-6.36L92.54,9.19c-1.12-2.08-3.28-3.4-5.64-3.44L69.37,5.46
		c-2.37-0.04-4.57,1.21-5.75,3.25L54.4,24.6c-1.14,1.96-1.18,4.37-0.1,6.36l8.69,16.18c1.12,2.08,3.28,3.4,5.64,3.44l17.52,0.29
		C88.52,50.92,90.72,49.67,91.9,47.62z"/>
</g>
<ellipse class="st1" cx="53.7" cy="174.39" rx="1.98" ry="2.21"/>
<ellipse class="st1" cx="133.33" cy="134" rx="1.98" ry="2.21"/>
</svg>
