<?xml version="1.0" encoding="utf-8"?>
<!-- Generator: Adobe Illustrator 25.2.0, SVG Export Plug-In . SVG Version: 6.00 Build 0)  -->
<svg version="1.1" id="Lager_1" xmlns="http://www.w3.org/2000/svg" xmlns:xlink="http://www.w3.org/1999/xlink" x="0px" y="0px"
	 viewBox="0 0 472.28 275.89" style="enable-background:new 0 0 472.28 275.89;" xml:space="preserve">
<style type="text/css">
	.st0{fill:none;stroke:#1E1E1C;stroke-width:2.2473;stroke-miterlimit:10;}
	.st1{fill:#1E1E1C;stroke:#1E1E1C;stroke-width:2.2473;stroke-miterlimit:10;}
</style>
<g>
	<path class="st0" d="M452.13,78.03l16.91-29.28c2.18-3.78,2.18-8.43,0-12.21L452.13,7.26c-2.18-3.78-6.21-6.1-10.57-6.1h-33.81
		c-4.36,0-8.39,2.33-10.57,6.1l-16.91,29.28c-2.18,3.78-2.18,8.43,0,12.21l16.91,29.28c2.18,3.78,6.21,6.1,10.57,6.1h33.81
		C445.92,84.14,449.95,81.81,452.13,78.03z"/>
	<path class="st0" d="M286.02,267.91l17.39-29c2.24-3.74,2.32-8.39,0.2-12.21l-16.42-29.56c-2.12-3.81-6.11-6.21-10.47-6.28
		l-33.81-0.56c-4.36-0.07-8.43,2.19-10.67,5.93l-17.39,29c-2.24,3.74-2.32,8.39-0.2,12.21L231.07,267
		c2.12,3.81,6.11,6.21,10.47,6.28l33.81,0.56C279.71,273.91,283.78,271.65,286.02,267.91z"/>
	<path class="st0" d="M367.95,222l17.39-29c2.24-3.74,2.32-8.39,0.2-12.21l-16.42-29.56c-2.12-3.81-6.11-6.21-10.47-6.28
		l-33.81-0.56c-4.36-0.07-8.43,2.19-10.67,5.93l-17.39,29c-2.24,3.74-2.32,8.39-0.2,12.21L313,221.09
		c2.12,3.81,6.11,6.21,10.47,6.28l33.81,0.56C361.64,228,365.71,225.74,367.95,222z"/>
	<path class="st0" d="M371.55,127.91l17.39-29c2.24-3.74,2.32-8.39,0.2-12.21l-16.42-29.56c-2.12-3.81-6.11-6.21-10.47-6.28
		l-33.81-0.56c-4.36-0.07-8.43,2.19-10.67,5.93l-17.39,29c-2.24,3.74-2.32,8.39-0.2,12.21L316.6,127c2.12,3.81,6.11,6.21,10.47,6.28
		l33.81,0.56C365.24,133.91,369.31,131.65,371.55,127.91z"/>
	<path class="st0" d="M105.96,218.39l17.39-29c2.24-3.74,2.32-8.39,0.2-12.21l-16.42-29.56c-2.12-3.81-6.11-6.21-10.47-6.28
		l-33.81-0.56c-4.36-0.07-8.43,2.19-10.67,5.93l-17.39,29c-2.24,3.74-2.32,8.39-0.2,12.21l16.42,29.56
		c2.12,3.81,6.11,6.21,10.47,6.28l33.81,0.56C99.64,224.39,103.71,222.13,105.96,218.39z"/>
	<path class="st0" d="M206.34,220.2l17.39-29c2.24-3.74,2.32-8.39,0.2-12.21l-16.42-29.56c-2.12-3.81-6.11-6.21-10.47-6.28
		l-33.81-0.56c-4.36-0.07-8.43,2.19-10.67,5.93l-17.39,29c-2.24,3.74-2.32,8.39-0.2,12.21l16.42,29.56
		c2.12,3.81,6.11,6.21,10.47,6.28l33.81,0.56C200.03,226.2,204.1,223.94,206.34,220.2z"/>
	<path class="st0" d="M41.61,221.31l-16.42-29.56c-2.12-3.81-6.11-6.21-10.47-6.28l-8.46-0.14c0.3,5.07,0.26,10.43-0.84,15.12
		c1.67,1.79,2.37,4.74,0.46,7.18c-0.94,1.2-1.68,2.43-2.29,3.69c1.52,1.29,2.34,3.66,2.08,5.56c-0.91,6.65-1.96,13.25-1.85,19.96
		c0,0.07,0,0.15,0,0.22c2.17,10.36,2.08,20.72,2.03,31.24l7.5,0.12c4.36,0.07,8.43-2.19,10.67-5.93l17.39-29
		C43.65,229.77,43.73,225.12,41.61,221.31z"/>
	<path class="st0" d="M41.16,128.57L24.74,99.01c-2.12-3.81-6.11-6.21-10.47-6.28l-8.83-0.15c-0.38,13.72-0.94,27.43-1.63,41.14
		c2.36,6.19,2.13,13.46,1.75,19.88c-0.4,6.71-0.81,13.18-0.31,19.89c0.05,0.66,0.11,1.36,0.17,2.08l7.46,0.12
		c4.36,0.07,8.43-2.19,10.67-5.93l17.39-29C43.2,137.04,43.28,132.38,41.16,128.57z"/>
	<line class="st0" x1="283.69" y1="98.67" x2="311.09" y2="139.36"/>
	<line class="st0" x1="286.51" y1="182.47" x2="311.89" y2="138.96"/>
	<line class="st0" x1="234.94" y1="181.66" x2="286.51" y2="182.47"/>
	<line class="st0" x1="211.17" y1="134.93" x2="237.36" y2="180.86"/>
	<line class="st0" x1="155.57" y1="133.72" x2="211.17" y2="134.93"/>
	<ellipse class="st1" cx="156.78" cy="134.32" rx="3.61" ry="4.03"/>
	<ellipse class="st1" cx="235.34" cy="181.46" rx="3.61" ry="4.03"/>
	<ellipse class="st1" cx="211.17" cy="135.74" rx="3.61" ry="4.03"/>
	<ellipse class="st1" cx="286.51" cy="182.67" rx="3.61" ry="4.03"/>
	<ellipse class="st1" cx="310.28" cy="139.76" rx="3.61" ry="4.03"/>
	<ellipse class="st1" cx="284.9" cy="97.66" rx="3.61" ry="4.03"/>
</g>
</svg>
