<?xml version="1.0" encoding="utf-8"?>
<!-- Generator: Adobe Illustrator 25.2.0, SVG Export Plug-In . SVG Version: 6.00 Build 0)  -->
<svg version="1.1" id="Lager_1" xmlns="http://www.w3.org/2000/svg" xmlns:xlink="http://www.w3.org/1999/xlink" x="0px" y="0px"
	 viewBox="0 0 474.28 278.89" style="enable-background:new 0 0 474.28 278.89;" xml:space="preserve">
<style type="text/css">
	.st0{fill:none;stroke:#7C8DA5;stroke-width:2.2473;stroke-miterlimit:10;}
	.st1{fill:#7C8DA5;stroke:#7C8DA5;stroke-width:2.2473;stroke-miterlimit:10;}
</style>
<g>
	<path class="st0" d="M450.4,79.98L467.3,50.7c2.18-3.78,2.18-8.43,0-12.21L450.4,9.21c-2.18-3.78-6.21-6.1-10.57-6.1l-33.81,0
		c-4.36,0-8.39,2.33-10.57,6.1l-16.91,29.28c-2.18,3.78-2.18,8.43,0,12.21l16.91,29.28c2.18,3.78,6.21,6.1,10.57,6.1h33.81
		C444.19,86.09,448.22,83.76,450.4,79.98z"/>
	<path class="st0" d="M284.29,269.86l17.39-29c2.24-3.74,2.32-8.39,0.2-12.21l-16.42-29.56c-2.12-3.81-6.11-6.21-10.47-6.28
		l-33.81-0.56c-4.36-0.07-8.43,2.19-10.67,5.93l-17.39,29c-2.24,3.74-2.32,8.39-0.2,12.21l16.42,29.56
		c2.12,3.81,6.11,6.21,10.47,6.28l33.81,0.56C277.98,275.86,282.04,273.6,284.29,269.86z"/>
	<path class="st1" d="M366.22,223.95l17.39-29c2.24-3.74,2.32-8.39,0.2-12.21l-16.42-29.56c-2.12-3.81-6.11-6.21-10.47-6.28
		l-33.81-0.56c-4.36-0.07-8.43,2.19-10.67,5.93l-17.39,29c-2.24,3.74-2.32,8.39-0.2,12.21l16.42,29.56
		c2.12,3.81,6.11,6.21,10.47,6.28l33.81,0.56C359.91,229.95,363.97,227.69,366.22,223.95z"/>
	<path class="st1" d="M369.82,129.86l17.39-29c2.24-3.74,2.32-8.39,0.2-12.21L370.99,59.1c-2.12-3.81-6.11-6.21-10.47-6.28
		l-33.81-0.56c-4.36-0.07-8.43,2.19-10.67,5.93l-17.39,29c-2.24,3.74-2.32,8.39-0.2,12.21l16.42,29.56
		c2.12,3.81,6.11,6.21,10.47,6.28l33.81,0.56C363.51,135.86,367.58,133.6,369.82,129.86z"/>
	<path class="st0" d="M104.22,220.34l17.39-29c2.24-3.74,2.32-8.39,0.2-12.21l-16.42-29.56c-2.12-3.81-6.11-6.21-10.47-6.28
		l-33.81-0.56c-4.36-0.07-8.43,2.19-10.67,5.93l-17.39,29c-2.24,3.74-2.32,8.39-0.2,12.21l16.42,29.56
		c2.12,3.81,6.11,6.21,10.47,6.28l33.81,0.56C97.91,226.35,101.98,224.09,104.22,220.34z"/>
	<path class="st1" d="M204.61,222.15l17.39-29c2.24-3.74,2.32-8.39,0.2-12.21l-16.42-29.56c-2.12-3.81-6.11-6.21-10.47-6.28
		l-33.81-0.56c-4.36-0.07-8.43,2.19-10.67,5.93l-17.39,29c-2.24,3.74-2.32,8.39-0.2,12.21l16.42,29.56
		c2.12,3.81,6.11,6.21,10.47,6.28l33.81,0.56C198.3,228.15,202.36,225.89,204.61,222.15z"/>
	<path class="st0" d="M39.88,223.26L23.46,193.7c-2.12-3.81-6.11-6.21-10.47-6.28l-8.46-0.14c0.3,5.07,0.26,10.43-0.84,15.12
		c1.67,1.79,2.37,4.74,0.46,7.18c-0.94,1.2-1.68,2.43-2.29,3.69c1.52,1.29,2.34,3.66,2.08,5.56c-0.91,6.65-1.96,13.25-1.85,19.96
		c0,0.07,0,0.15,0,0.22c2.17,10.36,2.08,20.72,2.03,31.24l7.5,0.12c4.36,0.07,8.43-2.19,10.67-5.93l17.39-29
		C41.92,231.72,42,227.07,39.88,223.26z"/>
	<path class="st1" d="M39.43,130.52l-16.42-29.56c-2.12-3.81-6.11-6.21-10.47-6.28l-8.83-0.15c-0.38,13.72-0.94,27.43-1.63,41.14
		c2.36,6.19,2.13,13.46,1.75,19.88c-0.4,6.71-0.81,13.18-0.31,19.89c0.05,0.66,0.11,1.36,0.17,2.08l7.46,0.12
		c4.36,0.07,8.43-2.19,10.67-5.93l17.39-29C41.47,138.99,41.55,134.33,39.43,130.52z"/>
	<line class="st1" x1="281.96" y1="100.62" x2="309.35" y2="141.31"/>
	<line class="st1" x1="284.78" y1="184.42" x2="310.16" y2="140.91"/>
	<line class="st1" x1="233.21" y1="183.61" x2="284.78" y2="184.42"/>
	<line class="st1" x1="209.44" y1="136.88" x2="235.62" y2="182.81"/>
	<line class="st1" x1="153.84" y1="135.67" x2="209.44" y2="136.88"/>
	<ellipse class="st1" cx="155.04" cy="136.27" rx="3.61" ry="4.03"/>
	<ellipse class="st1" cx="233.61" cy="183.41" rx="3.61" ry="4.03"/>
	<ellipse class="st1" cx="209.44" cy="137.69" rx="3.61" ry="4.03"/>
	<ellipse class="st1" cx="284.78" cy="184.62" rx="3.61" ry="4.03"/>
	<ellipse class="st1" cx="308.55" cy="141.71" rx="3.61" ry="4.03"/>
	<ellipse class="st1" cx="283.17" cy="99.61" rx="3.61" ry="4.03"/>
</g>
</svg>
