<?xml version="1.0" encoding="utf-8"?>
<!-- Generator: Adobe Illustrator 25.2.0, SVG Export Plug-In . SVG Version: 6.00 Build 0)  -->
<svg version="1.1" id="Lager_1" xmlns="http://www.w3.org/2000/svg" xmlns:xlink="http://www.w3.org/1999/xlink" x="0px" y="0px"
	 viewBox="10 0 252.3 422.9" style="enable-background:new 0 0 252.3 422.9;" xml:space="preserve">
<style type="text/css">
	.st0{fill:none;stroke:#7C8DA6;stroke-width:1.782;stroke-miterlimit:10;}
	.st1{fill:#7C8DA5;stroke:#7C8DA6;stroke-width:1.782;stroke-miterlimit:10;}
	.st2{fill:none;stroke:#7C8DA6;stroke-width:1.3637;stroke-miterlimit:10;}
	.st3{fill:#1F1F1D;stroke:#7C8DA6;stroke-width:2.7185;stroke-miterlimit:10;}
	.st4{fill:none;stroke:#7C8DA6;stroke-width:1.7754;stroke-miterlimit:10;}
	.st5{clip-path:url(#SVGID_2_);}
	.st6{clip-path:url(#SVGID_4_);fill:#6B7B8E;}
	.st7{clip-path:url(#SVGID_4_);fill:none;stroke:#756B96;stroke-width:1.1771;stroke-miterlimit:10;}
	.st8{clip-path:url(#SVGID_4_);fill:#7B8DA6;}
	.st9{clip-path:url(#SVGID_4_);fill:none;stroke:#756B96;stroke-width:0.7848;stroke-miterlimit:10;}
	.st10{clip-path:url(#SVGID_4_);fill:#A8B2C0;}
	.st11{clip-path:url(#SVGID_4_);fill:#B2B2B2;}
	.st12{clip-path:url(#SVGID_4_);fill:#756B96;}
</style>
<g>
	<path class="st0" d="M224.2,108.9l14-23.3c1.7-2.9,1.8-6.4,0.2-9.4l-13.2-23.7c-1.6-2.9-4.7-4.8-8-4.8l-27.2-0.4
		c-3.4-0.1-6.5,1.7-8.2,4.6l-14,23.3c-1.7,2.9-1.8,6.4-0.2,9.4l13.2,23.7c1.6,2.9,4.7,4.8,8,4.8l27.2,0.4
		C219.3,113.5,222.4,111.8,224.2,108.9z"/>
	<path class="st1" d="M160.3,67.8l14-23.3c1.7-2.9,1.8-6.4,0.2-9.4l-13.2-23.7c-1.6-2.9-4.7-4.8-8-4.8L126,6.1
		c-3.4-0.1-6.5,1.7-8.2,4.6l-14,23.3c-1.7,2.9-1.8,6.4-0.2,9.4l13.2,23.7c1.6,2.9,4.7,4.8,8,4.8l27.2,0.4
		C155.4,72.4,158.6,70.7,160.3,67.8z"/>
	<path class="st1" d="M40.3,110.3L27.1,86.6c-1.6-2.9-4.7-4.8-8-4.8L6.4,81.6c-0.1,20.5-0.2,41-0.5,61.4c0,1.5,0,2.9-0.1,4.4
		l12.1,0.2c3.4,0.1,6.5-1.7,8.2-4.6l14-23.3C41.9,116.8,41.9,113.3,40.3,110.3z"/>
	<path class="st0" d="M94.8,107.4l14-23.3c1.7-2.9,1.8-6.4,0.2-9.4L95.8,51c-1.6-2.9-4.7-4.8-8-4.8l-27.2-0.4
		c-3.4-0.1-6.5,1.7-8.2,4.6l-14,23.3c-1.7,2.9-1.8,6.4-0.2,9.4l13.2,23.7c1.6,2.9,4.7,4.8,8,4.8l27.2,0.4
		C90,112,93.1,110.2,94.8,107.4z"/>
	<path class="st1" d="M6.4,71.2l13.9,0.2c3.4,0.1,6.5-1.7,8.2-4.6l14-23.3c1.7-2.9,1.8-6.4,0.2-9.4L29.4,10.5
		c-1.6-2.9-4.7-4.8-8-4.8L6.6,5.4"/>
	<path class="st0" d="M6.6,5.4c0,21.9-0.1,43.9-0.2,65.8"/>
	<g>
		<line class="st0" x1="172.8" y1="118.5" x2="155.7" y2="86.2"/>
		<line class="st2" x1="121.2" y1="86.4" x2="155.7" y2="86.2"/>
		<line class="st0" x1="105.8" y1="114" x2="121.2" y2="86.5"/>
		<line class="st0" x1="105.8" y1="114" x2="120.4" y2="139.2"/>
		<circle class="st3" cx="120.1" cy="139.7" r="1.4"/>
		<circle class="st3" cx="106.1" cy="114.2" r="1.4"/>
		<circle class="st3" cx="121.3" cy="87.1" r="1.4"/>
		<circle class="st3" cx="155.7" cy="86.2" r="1.4"/>
		<circle class="st3" cx="172.5" cy="118.7" r="1.4"/>
	</g>
	<path class="st1" d="M91.8,259.3l14-23.3c1.7-2.9,1.8-6.4,0.2-9.4l-13.2-23.7c-1.6-2.9-4.7-4.8-8-4.8l-27.2-0.4
		c-3.4-0.1-6.5,1.7-8.2,4.6l-14,23.3c-1.7,2.9-1.8,6.4-0.2,9.4l13.2,23.7c1.6,2.9,4.7,4.8,8,4.8l27.2,0.4
		C86.9,263.9,90,262.2,91.8,259.3z"/>
	<path class="st0" d="M39.2,186.9L26,163.2c-1.6-2.9-4.7-4.8-8-4.8l-12.6-0.2C5,180.1,4.6,202,4.2,224l12.7,0.2
		c3.4,0.1,6.5-1.7,8.2-4.6l14-23.3C40.7,193.4,40.8,189.9,39.2,186.9z"/>
	<g>
		<line class="st0" x1="57.1" y1="185.5" x2="96.8" y2="186.4"/>
		<line class="st0" x1="116.7" y1="219.4" x2="95.9" y2="186"/>
		<line class="st0" x1="57.6" y1="185.9" x2="39.3" y2="155.1"/>
		<line class="st0" x1="116.7" y1="219.4" x2="152.1" y2="219.7"/>
		<circle class="st3" cx="152.1" cy="219.7" r="1.4"/>
		<circle class="st3" cx="117.2" cy="219.2" r="1.4"/>
		<circle class="st3" cx="96.3" cy="186.6" r="1.4"/>
		<circle class="st3" cx="57.1" cy="185.5" r="1.4"/>
		<circle class="st3" cx="39.6" cy="155.3" r="1.4"/>
	</g>
	<path class="st4" d="M38.4,264l-13.1-23.7c-1.6-2.9-4.7-4.8-8-4.8l-12.7-0.2c-0.4,21.9-0.7,43.8-0.7,65.7l12.4,0.2
		c3.3,0.1,6.4-1.7,8.1-4.5l13.9-23.3C40,270.5,40,266.9,38.4,264z"/>
	<g id="robot_maskot_håller_i_sig_1_">
		<g>
			<defs>
				<rect id="SVGID_1_" x="47.4" y="140.2" width="233.6" height="330.3"/>
			</defs>
			<clipPath id="SVGID_2_">
				<use xlink:href="#SVGID_1_"  style="overflow:visible;"/>
			</clipPath>
			<g class="st5">
				<defs>
					<rect id="SVGID_3_" x="47.4" y="140.2" width="233.6" height="330.3"/>
				</defs>
				<clipPath id="SVGID_4_">
					<use xlink:href="#SVGID_3_"  style="overflow:visible;"/>
				</clipPath>
				<path class="st6" d="M107,384.7c2.2-25.2,10.1-42.1,21.6-43.1l7.5-0.6c-0.4-1.1-1.2-3.4-2.1-4.1c-9.1,1.8-2.4,0.3-9.4,1.9
					c-10.8,2.5-20.1,19.7-21.5,45.7C105.2,384.6,105.2,384.6,107,384.7"/>
				<path class="st7" d="M107,384.7c2.2-25.2,10.1-42.1,21.6-43.1l7.5-0.6c-0.4-1.1-1.2-3.4-2.1-4.1c-9.1,1.8-2.4,0.3-9.4,1.9
					c-10.8,2.5-20.1,19.7-21.5,45.7C105.2,384.6,105.2,384.6,107,384.7z"/>
				<path class="st6" d="M152.2,228.4c-10,22.6-11.4,44.5-5.8,54.1c3.8,6.5,5,5.6,5,5.6c-1,0.5-3.7,2.8-4.8,2.7
					c-5.4-7.5-2.4-2.3-5.1-8.9c-4.4-10.7-3.3-35.2,8.1-55.9C151.3,227.3,150.7,227.3,152.2,228.4"/>
				<path class="st7" d="M152.2,228.4c-10,22.6-11.4,44.5-5.8,54.1c3.8,6.5,5,5.6,5,5.6c-1,0.5-3.7,2.8-4.8,2.7
					c-5.4-7.5-2.4-2.3-5.1-8.9c-4.4-10.7-3.3-35.2,8.1-55.9C151.3,227.3,150.7,227.3,152.2,228.4z"/>
				<path class="st8" d="M187,339.1c-16,14.3-31.1,23.4-43.4,14.9c-12.3-8.5-7.2-23.3-1.2-45.9c3-11.2,8-20.2,16.8-22.4
					c6.9-1.7,20.4,4.5,25.8,8.2c5.1,3.6,16.3,14,17.3,20.6C203.8,323.8,196.1,331,187,339.1"/>
				<path class="st9" d="M187,339.1c-16,14.3-31.1,23.4-43.4,14.9c-12.3-8.5-7.2-23.3-1.2-45.9c3-11.2,8-20.2,16.8-22.4
					c6.9-1.7,20.4,4.5,25.8,8.2c5.1,3.6,16.3,14,17.3,20.6C203.8,323.8,196.1,331,187,339.1z"/>
				<path class="st10" d="M180.1,335.8c-16,14.3-31.1,23.4-43.4,14.9c-12.3-8.5-7.2-23.3-1.2-45.9c3-11.2,8-20.2,16.8-22.4
					c6.9-1.7,20.4,4.5,25.8,8.2c5.1,3.6,16.3,14,17.3,20.6C196.8,320.5,189.2,327.7,180.1,335.8"/>
				<path class="st7" d="M180.1,335.8c-16,14.3-31.1,23.4-43.4,14.9c-12.3-8.5-7.2-23.3-1.2-45.9c3-11.2,8-20.2,16.8-22.4
					c6.9-1.7,20.4,4.5,25.8,8.2c5.1,3.6,16.3,14,17.3,20.6C196.8,320.5,189.2,327.7,180.1,335.8z"/>
				<path class="st8" d="M166.6,280.4l32.4,26.4c6.2,4.3,20,2.4,24.3-3.7l16.1-23.2c4.3-6.2,2.7-14.8-3.4-19.1l-37.6-26.1
					c-6.2-4.3-17.1-6.5-21.4-0.3l-13.8,26.9C158.8,267.6,160.4,276.1,166.6,280.4"/>
				<path class="st9" d="M166.6,280.4l32.4,26.4c6.2,4.3,20,2.4,24.3-3.7l16.1-23.2c4.3-6.2,2.7-14.8-3.4-19.1l-37.6-26.1
					c-6.2-4.3-17.1-6.5-21.4-0.3l-13.8,26.9C158.8,267.6,160.4,276.1,166.6,280.4z"/>
				<path class="st6" d="M192.6,375c-0.7-0.4-0.9-1.3-0.5-2c12.7-21,16.3-39.1,7.6-46.2l-2.8-2.3c-0.5-0.4-0.7-1.2-0.3-1.8l0.6-1.1
					c0.5-0.9,1.7-1,2.4-0.3c4.2,4.6,0.8,0.6,5.1,5.6c7.1,8.3,4.5,27.1-9.1,48.3c-0.4,0.7-1.4,0.9-2,0.4
					C193.2,375.4,192.9,375.2,192.6,375"/>
				<path class="st7" d="M192.6,375c-0.7-0.4-0.9-1.3-0.5-2c12.7-21,16.3-39.1,7.6-46.2l-2.8-2.3c-0.5-0.4-0.7-1.2-0.3-1.8l0.6-1.1
					c0.5-0.9,1.7-1,2.4-0.3c4.2,4.6,0.8,0.6,5.1,5.6c7.1,8.3,4.5,27.1-9.1,48.3c-0.4,0.7-1.4,0.9-2,0.4
					C193.2,375.4,192.9,375.2,192.6,375z"/>
				<path class="st10" d="M158.4,279.6l37.6,26.1c6.2,4.3,14.8,2.7,19.1-3.4l16.1-23.2c4.3-6.2,2.7-14.8-3.4-19.1l-37.6-26.1
					c-6.2-4.3-14.8-2.7-19.1,3.4L155,260.6C150.7,266.7,152.3,275.3,158.4,279.6"/>
				<path class="st7" d="M158.4,279.6l37.6,26.1c6.2,4.3,14.8,2.7,19.1-3.4l16.1-23.2c4.3-6.2,2.7-14.8-3.4-19.1l-37.6-26.1
					c-6.2-4.3-14.8-2.7-19.1,3.4L155,260.6C150.7,266.7,152.3,275.3,158.4,279.6z"/>
				<path class="st6" d="M158.7,352.5c-0.9,0.2-0.3,0.1-1.7,0.7c-5.6,4.9-2.4,1.7-7,6.7c-7.5,8.2-5.5,27.7,8.1,49.9
					c1.8-1.1,1.8-1.1,3.4-2.1c-12.5-22-15.5-40.4-6.6-47.7c2.6-2.1,3.9-3.2,4.7-3.8c0.5-0.4,0.7-1.1,0.6-1.7
					c-0.2-0.8-0.3-1.3-0.5-1.7C159.3,352.4,159,352.4,158.7,352.5"/>
				<path class="st7" d="M158.7,352.5c-0.9,0.2-0.3,0.1-1.7,0.7c-5.6,4.9-2.4,1.7-7,6.7c-7.5,8.2-5.5,27.7,8.1,49.9
					c1.8-1.1,1.8-1.1,3.4-2.1c-12.5-22-15.5-40.4-6.6-47.7c2.6-2.1,3.9-3.2,4.7-3.8c0.5-0.4,0.7-1.1,0.6-1.7
					c-0.2-0.8-0.3-1.3-0.5-1.7C159.3,352.4,159,352.4,158.7,352.5z"/>
				<polygon class="st10" points="202.1,239.2 196.4,235.4 196.9,220.9 202.8,221.1 				"/>
				<polygon class="st7" points="202.1,239.2 196.4,235.4 196.9,220.9 202.8,221.1 				"/>
				<polygon class="st10" points="217.8,250.1 223.4,254.1 236.7,248.6 234.5,243.2 				"/>
				<polygon class="st7" points="217.8,250.1 223.4,254.1 236.7,248.6 234.5,243.2 				"/>
				<path class="st6" d="M194.4,212.3c-2.3,3.2-1.4,7.7,1.8,10c3.2,2.3,7.7,1.4,10-1.8c2.3-3.2,1.4-7.7-1.8-10
					C201.2,208.3,196.7,209.1,194.4,212.3"/>
				<path class="st7" d="M194.4,212.3c-2.3,3.2-1.4,7.7,1.8,10c3.2,2.3,7.7,1.4,10-1.8c2.3-3.2,1.4-7.7-1.8-10
					C201.2,208.3,196.7,209.1,194.4,212.3z"/>
				<path class="st6" d="M233.9,239.7c-2.3,3.2-1.4,7.7,1.8,10c3.2,2.3,7.7,1.4,10-1.8c2.3-3.2,1.4-7.7-1.8-10
					C240.6,235.7,236.2,236.5,233.9,239.7"/>
				<path class="st7" d="M233.9,239.7c-2.3,3.2-1.4,7.7,1.8,10c3.2,2.3,7.7,1.4,10-1.8c2.3-3.2,1.4-7.7-1.8-10
					C240.6,235.7,236.2,236.5,233.9,239.7z"/>
				<path class="st8" d="M107,391.2l-5.4,1.9c-2.4,0.8-5-0.4-5.8-2.8c-0.8-2.4,0.4-5,2.8-5.8l5.4-1.9c2.4-0.8,5,0.4,5.8,2.8
					C110.6,387.8,109.4,390.4,107,391.2"/>
				<path class="st9" d="M107,391.2l-5.4,1.9c-2.4,0.8-5-0.4-5.8-2.8c-0.8-2.4,0.4-5,2.8-5.8l5.4-1.9c2.4-0.8,5,0.4,5.8,2.8
					C110.6,387.8,109.4,390.4,107,391.2z"/>
				<path class="st8" d="M163.8,413.7l-3.4,4.6c-1.5,2-4.3,2.5-6.3,1c-2-1.5-2.5-4.3-1-6.3l3.4-4.6c1.5-2,4.3-2.5,6.3-1h0
					C164.8,408.8,165.3,411.6,163.8,413.7"/>
				<path class="st9" d="M163.8,413.7l-3.4,4.6c-1.5,2-4.3,2.5-6.3,1c-2-1.5-2.5-4.3-1-6.3l3.4-4.6c1.5-2,4.3-2.5,6.3-1h0
					C164.8,408.8,165.3,411.6,163.8,413.7z"/>
				<path class="st8" d="M159.8,222.5c-0.4,4.1-4.5,7-9.1,6.5c-4.6-0.5-8-4.1-7.6-8.2c0.3-2.7,2.2-4.9,4.8-5.9
					c0.7-0.3-1.5,3.9-1,6.4c0.4,2.1,3.6,2.6,4.3,2.6c0.7,0.1,3.6,0.3,4.5-1.6c1.1-2.4,0.1-7,0.7-6.6
					C158.7,217.4,160,219.9,159.8,222.5"/>
				<path class="st9" d="M159.8,222.5c-0.4,4.1-4.5,7-9.1,6.5c-4.6-0.5-8-4.1-7.6-8.2c0.3-2.7,2.2-4.9,4.8-5.9
					c0.7-0.3-1.5,3.9-1,6.4c0.4,2.1,3.6,2.6,4.3,2.6c0.7,0.1,3.6,0.3,4.5-1.6c1.1-2.4,0.1-7,0.7-6.6
					C158.7,217.4,160,219.9,159.8,222.5z"/>
				<path class="st8" d="M183.4,375.7c1.9-3.6,6.8-4.7,10.9-2.5c4.1,2.2,5.8,6.9,3.9,10.5c-1.3,2.4-3.9,3.7-6.7,3.6
					c-0.8,0,2.9-3,3.4-5.6c0.4-2.1-2.3-3.8-2.9-4.1c-0.6-0.3-3.2-1.7-4.7-0.2c-1.9,1.8-2.8,6.4-3.2,5.8
					C182.4,380.8,182.1,378,183.4,375.7"/>
				<path class="st9" d="M183.4,375.7c1.9-3.6,6.8-4.7,10.9-2.5c4.1,2.2,5.8,6.9,3.9,10.5c-1.3,2.4-3.9,3.7-6.7,3.6
					c-0.8,0,2.9-3,3.4-5.6c0.4-2.1-2.3-3.8-2.9-4.1c-0.6-0.3-3.2-1.7-4.7-0.2c-1.9,1.8-2.8,6.4-3.2,5.8
					C182.4,380.8,182.1,378,183.4,375.7z"/>
				<path class="st6" d="M201.1,282.8c-2.4,3.4-1.5,8.1,1.9,10.5c3.4,2.4,8.1,1.5,10.5-1.9c2.4-3.4,1.5-8.1-1.9-10.5
					C208.2,278.5,203.4,279.3,201.1,282.8"/>
				<path class="st7" d="M201.1,282.8c-2.4,3.4-1.5,8.1,1.9,10.5c3.4,2.4,8.1,1.5,10.5-1.9c2.4-3.4,1.5-8.1-1.9-10.5
					C208.2,278.5,203.4,279.3,201.1,282.8z"/>
				<path class="st6" d="M165.1,257.8c-2.4,3.4-1.5,8.1,1.9,10.5c3.4,2.4,8.1,1.5,10.5-1.9c2.4-3.4,1.5-8.1-1.9-10.5
					C172.2,253.5,167.5,254.4,165.1,257.8"/>
				<path class="st7" d="M165.1,257.8c-2.4,3.4-1.5,8.1,1.9,10.5c3.4,2.4,8.1,1.5,10.5-1.9c2.4-3.4,1.5-8.1-1.9-10.5
					C172.2,253.5,167.5,254.4,165.1,257.8z"/>
				<path class="st11" d="M155.8,398.2c0.1,0,0.1-0.1,0.2-0.1l0,0C155.9,398.1,155.9,398.2,155.8,398.2"/>
				<path class="st11" d="M155.7,398.3c0.1,0,0.1,0,0.2-0.1C155.8,398.2,155.7,398.2,155.7,398.3L155.7,398.3z"/>
				<path class="st6" d="M177.4,278.3c2.3-3.4,6.4-2.7,9.8-0.3c3.4,2.4,5,5.6,2.6,9c-2.3,3.4-6.1,1.6-9.5-0.7
					C177,283.8,175.1,281.7,177.4,278.3"/>
				<path class="st7" d="M177.4,278.3c2.3-3.4,6.4-2.7,9.8-0.3c3.4,2.4,5,5.6,2.6,9c-2.3,3.4-6.1,1.6-9.5-0.7
					C177,283.8,175.1,281.7,177.4,278.3z"/>
				<path class="st12" d="M172.3,315.2c-0.9-0.7-0.8-2.6,0.1-3.3c0.5-0.3,1.3-0.8,1.2-1.1c-0.1-1-0.5-2.1-1-3
					c-0.2-0.3-1.2-0.2-1.8-0.2c-1,0-2.2-1.6-1.9-2.5c0.6-2,0.6-2-1.1-3.1c-0.4-0.3-0.8-0.5-1.1-0.7c-1.1,0.4-1.6,1.7-3.2,1.2
					c-1.6-0.5-1.3-1.8-2-2.9c-0.6,0-1.3,0.1-1.9,0c-1.2-0.1-1.8,0.3-2,1.5c-0.3,1.5-2.2,2.1-3.4,1.1c-0.9-0.8-1.6-0.8-2.4,0
					c-0.2,0.2-0.5,0.4-0.7,0.5c-0.8,0.5-1,1-0.5,1.9c0.4,0.8,0.4,1.5-0.3,2.3c-0.5,0.6-1,1-1.8,0.8c-1.2-0.3-1.7,0.3-2,1.4
					c-0.6,2-0.7,2,0.7,2.9c1.3,0.9,1.3,2.8-0.1,3.6c-1,0.6-1.3,1.3-0.8,2.3c0.1,0.3,0.2,0.6,0.3,0.9c0.2,0.9,0.7,1.2,1.6,1.1
					c0.5-0.1,1.2-0.1,1.5,0.2c0.8,0.9,1.6,1.8,0.8,3.2c-0.2,0.3-0.2,1,0.1,1.2c0.8,0.7,1.7,1.3,2.5,1.8c0.4-0.3,0.8-0.6,1.1-0.8
					c1.4-1.1,3.1-0.6,3.6,1.1c0.2,1,0.7,1.4,1.7,1.3c0.4,0,0.8,0,1.3,0c0.8,0,1.2-0.3,1.4-1.1c0.1-0.5,0.3-1.2,0.7-1.4
					c1.1-0.5,2.3-1,3.2,0.3c0.2,0.2,0.4,0.3,0.7,0.6c0.5-0.3,1-0.6,1.5-0.9c1.5-1,1.5-1.1,0.9-2.7c-0.4-1.1,0.7-2.7,1.9-2.7
					c0.1,0,0.2,0,0.2,0c1.2,0.3,1.7-0.3,2.1-1.4C173.8,316.3,173.9,316.3,172.3,315.2 M166.8,313.6c0,3.9-3.2,6.9-7.1,6.9
					c-3.9,0-7-3.2-7-7c0-3.9,3.2-6.9,7.1-6.9C163.7,306.6,166.8,309.8,166.8,313.6"/>
				<path class="st7" d="M211.4,220.3c3.9-1.7,5.4-1.5,6.1-0.8c1.2,1.2-0.7,3.8,0.6,5.3c1.6,1.8,5.5-0.6,7.1,1.3
					c1.2,1.4-0.5,3.6,0.7,5c1.5,1.6,4.8-0.5,6.4,1.1c1,1,0.8,2.9,0.4,4.5"/>
			</g>
		</g>
	</g>
</g>
</svg>
