<?xml version="1.0" encoding="utf-8"?>
<!-- Generator: Adobe Illustrator 25.2.0, SVG Export Plug-In . SVG Version: 6.00 Build 0)  -->
<svg version="1.1" id="Lager_1" xmlns="http://www.w3.org/2000/svg" xmlns:xlink="http://www.w3.org/1999/xlink" x="0px" y="0px"
	 viewBox="0 0 90.2 143.3" style="enable-background:new 0 0 90.2 143.3;" xml:space="preserve">
<style type="text/css">
	.st0{clip-path:url(#SVGID_2_);}
	.st1{clip-path:url(#SVGID_4_);fill:#6B7B8E;}
	.st2{clip-path:url(#SVGID_4_);fill:none;stroke:#756B96;stroke-width:0.9504;stroke-miterlimit:10;}
	.st3{clip-path:url(#SVGID_4_);fill:#7B8DA6;}
	.st4{clip-path:url(#SVGID_4_);fill:none;stroke:#756B96;stroke-width:0.6336;stroke-miterlimit:10;}
	.st5{clip-path:url(#SVGID_4_);fill:#A8B2C0;}
	.st6{clip-path:url(#SVGID_4_);fill:#B2B2B2;}
	.st7{clip-path:url(#SVGID_4_);fill:#756B96;}
	.st8{clip-path:url(#SVGID_4_);fill:#474866;}
	.st9{clip-path:url(#SVGID_4_);fill:none;stroke:#756B96;stroke-width:0.4752;stroke-miterlimit:10;}
	.st10{clip-path:url(#SVGID_4_);fill:#424460;}
</style>
<g id="robot_maskot_sitter_och_läser_1_">
	<g>
		<defs>
			<rect id="SVGID_1_" x="-39.9" y="-53" width="188.6" height="266.7"/>
		</defs>
		<clipPath id="SVGID_2_">
			<use xlink:href="#SVGID_1_"  style="overflow:visible;"/>
		</clipPath>
		<g class="st0">
			<defs>
				<rect id="SVGID_3_" x="-39.9" y="-53" width="188.6" height="266.7"/>
			</defs>
			<clipPath id="SVGID_4_">
				<use xlink:href="#SVGID_3_"  style="overflow:visible;"/>
			</clipPath>
			<path class="st1" d="M47.6,122c0-0.7,0.1,0.1-0.2-1.1c-2.8-5.1-6.2-11.5-9.2-15.8c-2.4-3.5-9.8-8.3-12-3.3
				c-1.1,2.4-1.2,3-1.4,3.9c-0.2,1-0.2,2-0.4,4c-0.6,6.2-1,16.4-2.6,25c0.5,1.6,2.9-0.1,3.3,1.3c1.5-15,1.7-14.7,3-25.8
				c0.2-1.5,0.3-2.9,0.8-5.1c0.9-3.7,6.3,0.3,8.1,3.9c1.2,2.3,7.2,12.3,7.5,12.9c0.2,0.4,0.9,1.3,1.4,1.3c0.6,0,1-0.4,1.3-0.5
				C47.5,122.6,47.6,122.3,47.6,122"/>
			<path class="st2" d="M47.6,122c0-0.7,0.1,0.1-0.2-1.1c-2.8-5.1-6.2-11.5-9.2-15.8c-2.4-3.5-9.8-8.3-12-3.3
				c-1.1,2.4-1.2,3-1.4,3.9c-0.2,1-0.2,2-0.4,4c-0.6,6.2-1,16.4-2.6,25c0.5,1.6,2.9-0.1,3.3,1.3c1.5-15,1.7-14.7,3-25.8
				c0.2-1.5,0.3-2.9,0.8-5.1c0.9-3.7,6.3,0.3,8.1,3.9c1.2,2.3,7.2,12.3,7.5,12.9c0.2,0.4,0.9,1.3,1.4,1.3c0.6,0,1-0.4,1.3-0.5
				C47.5,122.6,47.6,122.3,47.6,122z"/>
			<path class="st3" d="M23.9,141.5h-4.3c-2,0-3.6-1.6-3.6-3.6s1.6-3.6,3.6-3.6h4.3c2,0,3.6,1.6,3.6,3.6S25.9,141.5,23.9,141.5"/>
			<path class="st4" d="M23.9,141.5h-4.3c-2,0-3.6-1.6-3.6-3.6s1.6-3.6,3.6-3.6h4.3c2,0,3.6,1.6,3.6,3.6S25.9,141.5,23.9,141.5z"/>
			<path class="st1" d="M2.6,85.9c-0.1-0.6,1-0.5,1.6-0.3c6.4,2.6,13.9,8.9,21.1,10c6.5,1.1,4.5-10,4.7-12.2l0.1-2.9
				c0-0.6,0.4-1.1,1-1.1l1-0.2c0.8-0.1,1.4,0.6,1.3,1.4c0,0.6-0.1,2.3-0.2,3.7c-0.5,5.3,1.4,16.2-5.9,15.3
				c-7.6-0.9-18.6-8.7-23.9-10.4c-0.6-0.2-1.2-0.8-1.2-1.5C2.1,87.4,2.6,86.2,2.6,85.9"/>
			<path class="st2" d="M2.6,85.9c-0.1-0.6,1-0.5,1.6-0.3c6.4,2.6,13.9,8.9,21.1,10c6.5,1.1,4.5-10,4.7-12.2l0.1-2.9
				c0-0.6,0.4-1.1,1-1.1l1-0.2c0.8-0.1,1.4,0.6,1.3,1.4c0,0.6-0.1,2.3-0.2,3.7c-0.5,5.3,1.4,16.2-5.9,15.3
				c-7.6-0.9-18.6-8.7-23.9-10.4c-0.6-0.2-1.2-0.8-1.2-1.5C2.1,87.4,2.6,86.2,2.6,85.9z"/>
			<path class="st3" d="M81.1,98.3c-5.2,16.5-11.9,29.1-23.9,28.3s-14.6-13.2-19.8-31.3c-2.6-9-2.8-17.4,2.4-22.5
				c4.1-4,16-5.3,21.3-4.9c5,0.3,17.1,3,20.5,7.1C86.4,80.8,84.1,88.9,81.1,98.3"/>
			<path class="st4" d="M81.1,98.3c-5.2,16.5-11.9,29.1-23.9,28.3s-14.6-13.2-19.8-31.3c-2.6-9-2.8-17.4,2.4-22.5
				c4.1-4,16-5.3,21.3-4.9c5,0.3,17.1,3,20.5,7.1C86.4,80.8,84.1,88.9,81.1,98.3z"/>
			<path class="st5" d="M75,98.9C69.7,115.5,63.1,128,51,127.2S36.4,114,31.2,95.9c-2.6-9-2.8-17.4,2.4-22.5c4.1-4,16-5.3,21.3-4.9
				c5,0.3,17.1,3,20.5,7.1C80.3,81.4,77.9,89.5,75,98.9"/>
			<path class="st2" d="M75,98.9C69.7,115.5,63.1,128,51,127.2S36.4,114,31.2,95.9c-2.6-9-2.8-17.4,2.4-22.5c4.1-4,16-5.3,21.3-4.9
				c5,0.3,17.1,3,20.5,7.1C80.3,81.4,77.9,89.5,75,98.9z"/>
			<path class="st3" d="M42.6,68.4L76.4,68c6.1-0.5,13.6-8.8,13.1-14.9l-2-22.7c-0.5-6.1-5.9-10.6-12-10l-36.8,3.3
				c-6.1,0.5-13.9,4.9-13.4,10.9l5.4,23.8C31.2,64.4,36.6,69,42.6,68.4"/>
			<path class="st4" d="M42.6,68.4L76.4,68c6.1-0.5,13.6-8.8,13.1-14.9l-2-22.7c-0.5-6.1-5.9-10.6-12-10l-36.8,3.3
				c-6.1,0.5-13.9,4.9-13.4,10.9l5.4,23.8C31.2,64.4,36.6,69,42.6,68.4z"/>
			<path class="st5" d="M37.2,72.1L74,68.8c6.1-0.5,10.6-5.9,10-12l-2-22.7c-0.5-6.1-5.9-10.6-12-10l-36.8,3.3
				c-6.1,0.5-10.6,5.9-10,12l2,22.7C25.7,68.1,31.1,72.7,37.2,72.1"/>
			<path class="st2" d="M37.2,72.1L74,68.8c6.1-0.5,10.6-5.9,10-12l-2-22.7c-0.5-6.1-5.9-10.6-12-10l-36.8,3.3
				c-6.1,0.5-10.6,5.9-10,12l2,22.7C25.7,68.1,31.1,72.7,37.2,72.1z"/>
			<polygon class="st5" points="43.3,24.5 37.7,25 30.6,15.8 34.3,12.9 			"/>
			<polygon class="st2" points="43.3,24.5 37.7,25 30.6,15.8 34.3,12.9 			"/>
			<polygon class="st5" points="58.6,23.1 64.2,22.7 69.6,12.3 65.4,10.1 			"/>
			<polygon class="st2" points="58.6,23.1 64.2,22.7 69.6,12.3 65.4,10.1 			"/>
			<path class="st1" d="M24.6,11.8c0.3,3.2,3.1,5.5,6.3,5.2c3.2-0.3,5.5-3.1,5.2-6.3c-0.3-3.2-3.1-5.5-6.3-5.2
				C26.6,5.8,24.3,8.6,24.6,11.8"/>
			<path class="st2" d="M24.6,11.8c0.3,3.2,3.1,5.5,6.3,5.2c3.2-0.3,5.5-3.1,5.2-6.3c-0.3-3.2-3.1-5.5-6.3-5.2
				C26.6,5.8,24.3,8.6,24.6,11.8z"/>
			<path class="st1" d="M63.2,8.3c0.3,3.2,3.1,5.5,6.3,5.2c3.2-0.3,5.5-3.1,5.2-6.3c-0.3-3.2-3.1-5.5-6.3-5.2
				C65.3,2.3,63,5.1,63.2,8.3"/>
			<path class="st2" d="M63.2,8.3c0.3,3.2,3.1,5.5,6.3,5.2c3.2-0.3,5.5-3.1,5.2-6.3c-0.3-3.2-3.1-5.5-6.3-5.2
				C65.3,2.3,63,5.1,63.2,8.3z"/>
			<path class="st1" d="M65.2,52c0.3,3.4,3.3,5.8,6.6,5.5c3.4-0.3,5.8-3.3,5.5-6.6c-0.3-3.4-3.3-5.8-6.6-5.5
				C67.4,45.6,64.9,48.6,65.2,52"/>
			<path class="st2" d="M65.2,52c0.3,3.4,3.3,5.8,6.6,5.5c3.4-0.3,5.8-3.3,5.5-6.6c-0.3-3.4-3.3-5.8-6.6-5.5
				C67.4,45.6,64.9,48.6,65.2,52z"/>
			<path class="st1" d="M30,55.1c0.3,3.4,3.3,5.8,6.6,5.5c3.4-0.3,5.8-3.3,5.5-6.6c-0.3-3.4-3.3-5.8-6.6-5.5
				C32.2,48.8,29.7,51.8,30,55.1"/>
			<path class="st2" d="M30,55.1c0.3,3.4,3.3,5.8,6.6,5.5c3.4-0.3,5.8-3.3,5.5-6.6c-0.3-3.4-3.3-5.8-6.6-5.5
				C32.2,48.8,29.7,51.8,30,55.1z"/>
			<path class="st6" d="M83.9,152.2c0,0,0.1-0.1,0.1-0.1l0,0C84,152.1,83.9,152.2,83.9,152.2"/>
			<path class="st7" d="M61,87.8c-0.9-0.1-1.7-1.5-1.3-2.3c0.2-0.4,0.5-1.1,0.4-1.3c-0.5-0.7-1.2-1.3-1.9-1.7
				c-0.3-0.1-0.9,0.4-1.3,0.6c-0.7,0.4-2.2-0.2-2.3-1c-0.4-1.6-0.4-1.6-2.1-1.7c-0.4,0-0.7,0-1.1,0c-0.6,0.7-0.4,1.8-1.7,2.1
				c-1.3,0.3-1.7-0.7-2.6-1.2c-0.4,0.2-0.9,0.6-1.3,0.8c-0.8,0.4-1.1,0.9-0.8,1.9c0.4,1.1-0.7,2.4-1.9,2.1c-0.9-0.2-1.5,0.1-1.7,1
				c-0.1,0.2-0.2,0.5-0.3,0.7c-0.4,0.6-0.2,1.1,0.4,1.5c0.6,0.4,0.9,0.9,0.8,1.7c-0.1,0.6-0.3,1.1-0.9,1.3c-0.9,0.3-1,0.9-0.8,1.8
				c0.4,1.6,0.4,1.6,1.7,1.7c1.3,0.1,2,1.4,1.4,2.5c-0.5,0.8-0.4,1.4,0.4,1.9c0.2,0.1,0.4,0.3,0.6,0.5c0.5,0.6,1,0.5,1.6,0.1
				c0.3-0.2,0.8-0.5,1.1-0.4c0.9,0.3,1.9,0.6,1.9,1.9c0,0.3,0.3,0.7,0.5,0.8c0.8,0.2,1.7,0.2,2.5,0.3c0.2-0.4,0.3-0.7,0.4-1
				c0.5-1.4,1.9-1.7,3-0.7c0.6,0.6,1.1,0.7,1.7,0.2c0.3-0.2,0.6-0.4,0.9-0.5c0.6-0.3,0.7-0.7,0.5-1.3c-0.2-0.4-0.3-1-0.1-1.3
				c0.5-0.8,1.2-1.6,2.4-1.1c0.2,0.1,0.4,0.1,0.7,0.1c0.2-0.4,0.4-0.8,0.6-1.3c0.6-1.3,0.6-1.3-0.5-2.3c-0.8-0.6-0.6-2.2,0.2-2.7
				c0.1,0,0.1-0.1,0.2-0.1c1-0.3,1.1-0.9,0.8-1.9C62.5,88,62.6,88,61,87.8 M56.6,89c1.6,2.7,0.6,6.1-2.1,7.7c-2.7,1.6-6.2,0.7-7.8-2
				c-1.6-2.7-0.6-6.1,2.1-7.7C51.5,85.4,55,86.3,56.6,89"/>
			<path class="st6" d="M83.8,152.3c0,0,0.1-0.1,0.1-0.1C83.9,152.2,83.9,152.3,83.8,152.3L83.8,152.3z"/>
			<path class="st2" d="M39.2,7.9c1.5-3.1,2.6-3.7,3.4-3.7c1.4,0.1,1.6,2.7,3.1,3c1.9,0.3,3.1-3.2,5-2.9c1.5,0.2,1.5,2.5,3,2.7
				c1.7,0.2,2.7-2.8,4.5-2.6c1.1,0.1,2,1.4,2.6,2.6"/>
			<path class="st1" d="M60.5,57.3c0.3,5.4-2.1,6.9-5.3,7.1c-3.2,0.3-6.1-0.7-6.8-6.1L60.5,57.3z"/>
			<path class="st2" d="M60.5,57.3c0.3,5.4-2.1,6.9-5.3,7.1c-3.2,0.3-6.1-0.7-6.8-6.1L60.5,57.3z"/>
			<path class="st1" d="M45.2,86c-0.1-0.6,1-0.6,1.6-0.4c6.5,2.2,21.1,12.3,28.3,13c6.5,0.7,3.9-10.3,4-12.5L79,83.3
				c0-0.6,0.4-1.1,0.9-1.2l1-0.2c0.8-0.2,1.4,0.5,1.4,1.3c0,0.6,0.1,2.3,0,3.7c-0.2,5.3,2.4,16.1-5,15.6
				c-7.6-0.5-25.8-11.8-31.2-13.2c-0.6-0.2-1.2-0.8-1.3-1.4C44.8,87.6,45.3,86.3,45.2,86"/>
			<path class="st2" d="M45.2,86c-0.1-0.6,1-0.6,1.6-0.4c6.5,2.2,21.1,12.3,28.3,13c6.5,0.7,3.9-10.3,4-12.5L79,83.3
				c0-0.6,0.4-1.1,0.9-1.2l1-0.2c0.8-0.2,1.4,0.5,1.4,1.3c0,0.6,0.1,2.3,0,3.7c-0.2,5.3,2.4,16.1-5,15.6
				c-7.6-0.5-25.8-11.8-31.2-13.2c-0.6-0.2-1.2-0.8-1.3-1.4C44.8,87.6,45.3,86.3,45.2,86z"/>
			<path class="st8" d="M43.7,98H22.2c-1.2,0-2.3-1-2.3-2.3V65c0-1.2,1-2.3,2.3-2.3h21.6c1.2,0,2.3,1,2.3,2.3v30.8
				C46,97,45,98,43.7,98"/>
			<path class="st9" d="M43.7,98H22.2c-1.2,0-2.3-1-2.3-2.3V65c0-1.2,1-2.3,2.3-2.3h21.6c1.2,0,2.3,1,2.3,2.3v30.8
				C46,97,45,98,43.7,98z"/>
			<path class="st3" d="M49.8,80.7c-1-1.2-2.2-2-3.7-2.2c0,0.5,0,0.9,0,1.4c0,0.2,0.1,0.7,0,0.8c0.6,0.7,0.9,1.4,1.2,2.2
				c0.6,1.6-1.2,3.1-1.7,3.4c-0.4,0.3-2.5,1.8-3.9,0.9c-1.7-1.2-2.8-4.8-3.1-4.3c-0.9,2.1-0.8,4.4,0.6,6.1c2.1,2.6,6.1,2.8,9,0.4
				C51.2,87.3,51.9,83.3,49.8,80.7"/>
			<path class="st4" d="M49.8,80.7c-1-1.2-2.2-2-3.7-2.2c0,0.5,0,0.9,0,1.4c0,0.2,0.1,0.7,0,0.8c0.6,0.7,0.9,1.4,1.2,2.2
				c0.6,1.6-1.2,3.1-1.7,3.4c-0.4,0.3-2.5,1.8-3.9,0.9c-1.7-1.2-2.8-4.8-3.1-4.3c-0.9,2.1-0.8,4.4,0.6,6.1c2.1,2.6,6.1,2.8,9,0.4
				C51.2,87.3,51.9,83.3,49.8,80.7z"/>
			<path class="st10" d="M13.7,98H7c-1.2,0-2.3-1-2.3-2.3V65c0-1.2,1-2.3,2.3-2.3h6.7c1.2,0,2.3,1,2.3,2.3v30.8C16,97,15,98,13.7,98
				"/>
			<path class="st9" d="M13.7,98H7c-1.2,0-2.3-1-2.3-2.3V65c0-1.2,1-2.3,2.3-2.3h6.7c1.2,0,2.3,1,2.3,2.3v30.8C16,97,15,98,13.7,98z
				"/>
			<path class="st8" d="M17.7,98L17.7,98c-1.2,0-2.3-1-2.3-2.3V65c0-1.2,1-2.3,2.3-2.3c1.2,0,2.3,1,2.3,2.3v30.8
				C19.9,97,18.9,98,17.7,98"/>
			<path class="st9" d="M17.7,98L17.7,98c-1.2,0-2.3-1-2.3-2.3V65c0-1.2,1-2.3,2.3-2.3c1.2,0,2.3,1,2.3,2.3v30.8
				C19.9,97,18.9,98,17.7,98z"/>
			<path class="st3" d="M1.4,80.2c0.8-1.2,1.9-2,3.3-2.2c0,0.5,0,0.9,0,1.4c0,0.2-0.1,0.7,0,0.8C4,81,3.8,81.7,3.5,82.5
				C3,84,4.6,85.5,5,85.9c0.4,0.3,2.2,1.8,3.5,0.9c1.5-1.2,2.5-4.8,2.7-4.3c0.8,2.1,0.7,4.4-0.5,6.1c-1.8,2.6-5.4,2.8-7.9,0.4
				C0.2,86.8-0.5,82.8,1.4,80.2"/>
			<path class="st4" d="M1.4,80.2c0.8-1.2,1.9-2,3.3-2.2c0,0.5,0,0.9,0,1.4c0,0.2-0.1,0.7,0,0.8C4,81,3.8,81.7,3.5,82.5
				C3,84,4.6,85.5,5,85.9c0.4,0.3,2.2,1.8,3.5,0.9c1.5-1.2,2.5-4.8,2.7-4.3c0.8,2.1,0.7,4.4-0.5,6.1c-1.8,2.6-5.4,2.8-7.9,0.4
				C0.2,86.8-0.5,82.8,1.4,80.2z"/>
			<path class="st1" d="M67.8,121.9c0-0.8,0.1,0.1-0.2-1.1c-2.9-5.3-6.4-11.7-9.5-16.2c-2.5-3.6-10.2-8.5-12.5-3.3
				c-1.1,2.4-1.3,3.1-1.5,4c-0.2,1-0.2,2-0.4,4.1c-0.6,6.3-1.1,16.8-2.7,25.6c0.6,1.6,3-0.1,3.5,1.4c1.6-15.4,1.8-15.1,3.2-26.4
				c0.2-1.6,0.3-3,0.8-5.2c0.9-3.8,6.6,0.3,8.4,4c1.2,2.4,7.4,12.5,7.8,13.2c0.2,0.5,0.9,1.3,1.4,1.3c0.6,0,1-0.5,1.4-0.5
				C67.7,122.5,67.8,122.2,67.8,121.9"/>
			<path class="st2" d="M67.8,121.9c0-0.8,0.1,0.1-0.2-1.1c-2.9-5.3-6.4-11.7-9.5-16.2c-2.5-3.6-10.2-8.5-12.5-3.3
				c-1.1,2.4-1.3,3.1-1.5,4c-0.2,1-0.2,2-0.4,4.1c-0.6,6.3-1.1,16.8-2.7,25.6c0.6,1.6,3-0.1,3.5,1.4c1.6-15.4,1.8-15.1,3.2-26.4
				c0.2-1.6,0.3-3,0.8-5.2c0.9-3.8,6.6,0.3,8.4,4c1.2,2.4,7.4,12.5,7.8,13.2c0.2,0.5,0.9,1.3,1.4,1.3c0.6,0,1-0.5,1.4-0.5
				C67.7,122.5,67.8,122.2,67.8,121.9z"/>
			<path class="st3" d="M43.2,141.9h-4.6c-2,0-3.7-1.6-3.7-3.7c0-2,1.6-3.7,3.7-3.7h4.6c2,0,3.7,1.6,3.7,3.7
				C46.9,140.3,45.2,141.9,43.2,141.9"/>
			<path class="st4" d="M43.2,141.9h-4.6c-2,0-3.7-1.6-3.7-3.7c0-2,1.6-3.7,3.7-3.7h4.6c2,0,3.7,1.6,3.7,3.7
				C46.9,140.3,45.2,141.9,43.2,141.9z"/>
		</g>
	</g>
</g>
</svg>
