<?xml version="1.0" encoding="utf-8"?>
<!-- Generator: Adobe Illustrator 25.2.0, SVG Export Plug-In . SVG Version: 6.00 Build 0)  -->
<svg version="1.1" id="Lager_1" xmlns="http://www.w3.org/2000/svg" xmlns:xlink="http://www.w3.org/1999/xlink" x="0px" y="0px"
	 viewBox="0 0 595.28 841.89" style="enable-background:new 0 0 595.28 841.89;" xml:space="preserve">
<style type="text/css">
	.st0{fill:#6B7B8E;stroke:#756B96;stroke-width:3;stroke-miterlimit:10;}
	.st1{fill:#7B8DA6;stroke:#756B96;stroke-width:2;stroke-miterlimit:10;}
	.st2{fill:#A8B2C0;stroke:#756B96;stroke-width:3;stroke-miterlimit:10;}
	.st3{fill:#B2B2B2;}
	.st4{fill:#756B96;}
	.st5{fill:none;stroke:#756B96;stroke-width:3;stroke-miterlimit:10;}
	.st6{fill:#474866;stroke:#756B96;stroke-width:1.5;stroke-miterlimit:10;}
	.st7{fill:#424460;stroke:#756B96;stroke-width:1.5;stroke-miterlimit:10;}
</style>
<path class="st0" d="M275.99,552.49c-0.06-2.34,0.3,0.33-0.57-3.51c-8.74-16.22-19.49-36.16-28.95-49.99
	c-7.52-10.99-30.85-26.1-37.92-10.31c-3.33,7.44-3.8,9.49-4.47,12.39c-0.72,3.11-0.69,6.21-1.32,12.51
	c-1.95,19.46-3.28,51.75-8.26,78.98c1.73,4.98,9.08-0.17,10.49,4.24c4.71-47.38,5.34-46.53,9.6-81.35c0.59-4.79,0.88-9.19,2.5-16.09
	c2.75-11.72,19.99,0.92,25.63,12.25c3.67,7.36,22.59,38.69,23.64,40.81c0.71,1.42,2.79,4.06,4.36,4.01c1.96-0.06,3.07-1.4,4.18-1.63
	C275.85,554.33,276.02,553.38,275.99,552.49z"/>
<path class="st1" d="M201.36,614.1h-13.72c-6.22,0-11.31-5.09-11.31-11.31l0,0c0-6.22,5.09-11.31,11.31-11.31h13.72
	c6.22,0,11.31,5.09,11.31,11.31l0,0C212.67,609.01,207.58,614.1,201.36,614.1z"/>
<path class="st0" d="M134.06,438.43c-0.18-2,3.12-1.7,4.99-0.95c20.09,8.14,43.91,27.99,66.47,31.7
	c20.42,3.36,14.15-31.69,14.91-38.53l0.18-9.18c0.03-1.8,1.35-3.32,3.13-3.6l3.22-0.51c2.5-0.4,4.38,1.75,4.25,4.28
	c-0.1,1.99-0.25,7.4-0.66,11.78c-1.57,16.63,4.57,51.18-18.63,48.26c-23.84-2.99-58.77-27.33-75.47-32.78
	c-1.98-0.65-3.68-2.6-3.84-4.68C132.52,443.18,134.15,439.36,134.06,438.43z"/>
<path class="st1" d="M381.84,477.69c-16.49,52.21-37.43,91.87-75.54,89.22s-46.21-41.57-62.45-98.82
	c-8.09-28.51-8.81-54.78,7.69-70.96c12.87-12.62,50.44-16.76,67.14-15.6c15.84,1.1,53.89,9.41,64.69,22.45
	C398.54,422.31,391.22,447.99,381.84,477.69z"/>
<path class="st2" d="M362.43,479.62c-16.49,52.21-37.43,91.87-75.54,89.22c-38.11-2.65-46.21-41.57-62.45-98.82
	c-8.09-28.51-8.81-54.78,7.69-70.96c12.87-12.62,50.44-16.76,67.14-15.6c15.84,1.1,53.89,9.41,64.69,22.45
	C379.13,424.23,371.8,449.92,362.43,479.62z"/>
<path class="st1" d="M260.35,383.28l106.47-1.31c19.12-1.72,43.07-27.93,41.35-47.05l-6.46-71.67
	c-1.72-19.12-18.77-33.35-37.89-31.62l-116.2,10.47c-19.12,1.72-43.98,15.36-42.26,34.47l17.09,75.08
	C224.19,370.77,241.24,385,260.35,383.28z"/>
<path class="st2" d="M243.11,394.95l116.2-10.47c19.12-1.72,33.35-18.77,31.62-37.89l-6.46-71.67
	c-1.72-19.12-18.77-33.35-37.89-31.62l-116.2,10.47c-19.12,1.72-33.35,18.77-31.62,37.89l6.46,71.67
	C206.95,382.45,224,396.68,243.11,394.95z"/>
<polygon class="st2" points="262.41,244.66 244.95,246.37 222.41,217.29 234.13,208.2 "/>
<polygon class="st2" points="310.91,240.29 328.39,238.85 345.38,206.21 332.21,199.36 "/>
<ellipse transform="matrix(0.6408 -0.7677 0.7677 0.6408 -76.1669 242.9756)" class="st0" cx="221.57" cy="202.88" rx="18.23" ry="18.23"/>
<circle class="st0" cx="343.62" cy="191.89" r="18.23"/>
<circle class="st0" cx="350.77" cy="329.66" r="19.27"/>
<circle class="st0" cx="239.69" cy="339.67" r="19.27"/>
<path class="st3" d="M390.68,647.77c0.09-0.12,0.17-0.25,0.24-0.38l0.03,0.02C390.87,647.54,390.77,647.65,390.68,647.77z"/>
<g>
	<path class="st4" d="M318.5,444.55c-2.83-0.27-5.28-4.67-4.18-7.36c0.56-1.37,1.72-3.46,1.2-4.13c-1.63-2.08-3.75-3.99-6.07-5.23
		c-0.84-0.45-2.82,1.13-4.22,1.89c-2.23,1.21-6.81-0.65-7.4-3.07c-1.23-5.07-1.23-5.08-6.57-5.38c-1.16-0.06-2.32-0.04-3.38-0.05
		c-1.87,2.25-1.24,5.77-5.45,6.77c-4.22,0.99-5.25-2.33-8.16-3.81c-1.27,0.75-2.7,1.76-4.26,2.5c-2.67,1.28-3.54,2.91-2.45,5.94
		c1.3,3.61-2.17,7.46-6.01,6.72c-2.97-0.57-4.6,0.28-5.4,3.09c-0.21,0.74-0.51,1.47-0.89,2.14c-1.15,2.05-0.77,3.56,1.29,4.79
		c2.04,1.23,2.92,2.83,2.44,5.5c-0.37,2.03-0.82,3.51-2.82,4.16c-2.96,0.95-3.19,2.93-2.54,5.63c1.24,5.12,1.13,5.14,5.31,5.42
		c3.96,0.26,6.45,4.35,4.51,7.91c-1.44,2.63-1.14,4.43,1.3,6.04c0.64,0.42,1.26,0.92,1.77,1.49c1.6,1.82,3.16,1.68,5.02,0.28
		c1-0.76,2.55-1.69,3.54-1.42c2.9,0.82,5.93,1.82,5.85,5.91c-0.02,0.86,0.94,2.34,1.66,2.48c2.6,0.52,5.29,0.58,7.83,0.8
		c0.54-1.32,0.91-2.22,1.27-3.12c1.7-4.29,6.11-5.42,9.33-2.16c1.84,1.87,3.44,2.1,5.49,0.66c0.87-0.61,1.79-1.16,2.73-1.66
		c1.82-0.97,2.33-2.22,1.55-4.26c-0.48-1.25-0.89-3.13-0.3-4.06c1.64-2.55,3.65-5.08,7.44-3.6c0.61,0.24,1.34,0.16,2.33,0.26
		c0.7-1.39,1.42-2.65,2-3.98c1.89-4.23,1.87-4.24-1.63-7.17c-2.38-1.99-2-6.91,0.65-8.48c0.17-0.1,0.33-0.23,0.51-0.29
		c3.01-0.98,3.43-2.94,2.68-5.84C323.24,445.06,323.4,445.02,318.5,444.55z M304.45,448.3c4.95,8.48,2.04,19.31-6.56,24.41
		c-8.5,5.03-19.56,2.21-24.48-6.24c-4.95-8.51-2.05-19.32,6.55-24.41C288.46,437.02,299.51,439.85,304.45,448.3z"/>
</g>
<path class="st3" d="M390.4,648.13c0.1-0.12,0.19-0.23,0.28-0.35c-0.08,0.13-0.16,0.26-0.24,0.38L390.4,648.13z"/>
<path class="st5" d="M249.68,192.39c4.79-9.73,8.22-11.79,10.58-11.56c4.34,0.42,4.95,8.57,9.91,9.36
	c5.99,0.96,9.89-10.14,15.93-9.14c4.71,0.78,4.85,7.93,9.5,8.54c5.45,0.72,8.59-8.69,14.3-8.31c3.61,0.24,6.36,4.28,8.26,8.14"/>
<path class="st0" d="M316.78,348.19c0.81,17-6.62,21.64-16.76,22.55c-10.14,0.91-19.31-2.23-21.55-19.1L316.78,348.19z"/>
<path class="st0" d="M268.65,438.87c-0.3-1.99,3.02-1.88,4.93-1.23c20.53,6.97,66.58,38.73,89.32,41.13
	c20.58,2.18,12.3-32.46,12.67-39.33l-0.35-9.17c-0.07-1.8,1.16-3.39,2.92-3.77l3.19-0.7c2.48-0.54,4.47,1.49,4.49,4.03
	c0.01,1.99,0.18,7.4,0.02,11.8c-0.61,16.7,7.51,50.83-15.82,49.26c-23.97-1.61-81.38-37.21-98.37-41.69
	c-2.02-0.53-3.83-2.38-4.11-4.45C267.38,443.69,268.79,439.79,268.65,438.87z"/>
<path class="st6" d="M263.86,476.64h-68.05c-3.94,0-7.14-3.19-7.14-7.14v-97.12c0-3.94,3.19-7.14,7.14-7.14h68.05
	c3.94,0,7.14,3.19,7.14,7.14v97.12C271,473.45,267.8,476.64,263.86,476.64z"/>
<path class="st1" d="M283.06,422.18c-3.02-3.79-6.96-6.32-11.71-6.8c-0.13,1.6-0.08,2.75,0,4.36c0.03,0.6,0.36,2.14,0.15,2.68
	c2.04,2.13,2.98,4.46,3.86,6.86c1.84,4.98-3.9,9.71-5.3,10.82c-1.36,1.08-8.01,5.76-12.47,2.75c-5.5-3.7-8.89-15.25-9.7-13.48
	c-2.97,6.52-2.54,13.95,1.81,19.4c6.47,8.12,19.19,8.75,28.4,1.41C287.32,442.83,289.54,430.29,283.06,422.18z"/>
<path class="st7" d="M169.2,476.64h-21.15c-3.94,0-7.14-3.19-7.14-7.14v-97.12c0-3.94,3.19-7.14,7.14-7.14h21.15
	c3.94,0,7.14,3.19,7.14,7.14v97.12C176.34,473.45,173.14,476.64,169.2,476.64z"/>
<path class="st6" d="M181.55,476.64L181.55,476.64c-3.94,0-7.14-3.19-7.14-7.14v-97.12c0-3.94,3.19-7.14,7.14-7.14h0
	c3.94,0,7.14,3.19,7.14,7.14v97.12C188.68,473.45,185.49,476.64,181.55,476.64z"/>
<path class="st1" d="M130.1,420.57c2.67-3.79,6.15-6.32,10.34-6.8c0.11,1.6,0.07,2.75,0,4.36c-0.03,0.6-0.31,2.14-0.14,2.68
	c-1.81,2.13-2.63,4.46-3.41,6.86c-1.62,4.98,3.44,9.71,4.68,10.82c1.2,1.08,7.07,5.76,11.02,2.75c4.86-3.7,7.86-15.25,8.57-13.48
	c2.62,6.52,2.24,13.95-1.6,19.4c-5.72,8.12-16.95,8.75-25.09,1.41C126.34,441.22,124.38,428.69,130.1,420.57z"/>
<path class="st0" d="M339.68,552.27c-0.06-2.39,0.31,0.34-0.59-3.59c-9.09-16.59-20.27-36.99-30.11-51.13
	c-7.82-11.24-32.08-26.69-39.44-10.54c-3.47,7.61-3.95,9.71-4.65,12.67c-0.75,3.18-0.71,6.35-1.37,12.79
	c-2.02,19.9-3.41,52.93-8.59,80.78c1.79,5.1,9.44-0.17,10.91,4.34c4.9-48.46,5.55-47.59,9.98-83.2c0.61-4.9,0.91-9.4,2.6-16.45
	c2.86-11.99,20.79,0.94,26.66,12.53c3.81,7.53,23.49,39.57,24.59,41.74c0.74,1.45,2.9,4.15,4.53,4.1c2.04-0.06,3.19-1.43,4.35-1.66
	C339.54,554.15,339.7,553.17,339.68,552.27z"/>
<path class="st1" d="M262.26,615.28H247.6c-6.36,0-11.57-5.21-11.57-11.57l0,0c0-6.36,5.21-11.57,11.57-11.57h14.66
	c6.36,0,11.57,5.21,11.57,11.57l0,0C273.82,610.07,268.62,615.28,262.26,615.28z"/>
</svg>
