<?xml version="1.0" encoding="utf-8"?>
<!-- Generator: Adobe Illustrator 25.2.0, SVG Export Plug-In . SVG Version: 6.00 Build 0)  -->
<svg version="1.1" id="Lager_1" xmlns="http://www.w3.org/2000/svg" xmlns:xlink="http://www.w3.org/1999/xlink" x="0px" y="0px"
	 viewBox="0 0 595.28 841.89" style="enable-background:new 0 0 595.28 841.89;" xml:space="preserve">
<style type="text/css">
	.st0{fill:#6B7B8E;stroke:#756B96;stroke-width:3;stroke-miterlimit:10;}
	.st1{fill:#7B8DA6;stroke:#756B96;stroke-width:2;stroke-miterlimit:10;}
	.st2{fill:#A8B2C0;stroke:#756B96;stroke-width:3;stroke-miterlimit:10;}
	.st3{fill:#B2B2B2;}
	.st4{fill:#756B96;}
	.st5{fill:none;stroke:#756B96;stroke-width:3;stroke-miterlimit:10;}
</style>
<g>
	<path class="st0" d="M151.84,623.26c5.58-64.29,25.8-107.28,54.93-109.8c19.08-1.65,19.08-1.65,19.08-1.65
		c-1-2.69-3.09-8.78-5.33-10.38c-23.17,4.58-6.19,0.75-23.97,4.82c-27.62,6.32-51.34,50.32-54.85,116.44
		C147.11,622.94,147.11,622.94,151.84,623.26z"/>
	<path class="st0" d="M266.96,224.98c-25.55,57.67-29,113.5-14.73,137.92c9.66,16.53,12.85,14.2,12.85,14.2
		c-2.56,1.29-9.49,7.13-12.22,6.79c-13.84-19.14-6.1-5.79-13.02-22.67c-11.21-27.32-8.3-89.69,20.7-142.54
		C264.66,222.18,263.27,222,266.96,224.98z"/>
	<path class="st1" d="M355.66,506.99c-40.89,36.41-79.18,59.76-110.56,37.98c-31.38-21.78-18.42-59.36-3.07-116.86
		c7.65-28.64,20.48-51.57,42.93-57.02c17.52-4.25,51.91,11.42,65.66,20.97c13.04,9.06,41.48,35.67,44.08,52.4
		C398.36,467.96,378.92,486.28,355.66,506.99z"/>
	<path class="st2" d="M338,498.71c-40.89,36.41-79.18,59.76-110.56,37.98s-18.42-59.36-3.07-116.86
		c7.65-28.64,20.48-51.57,42.93-57.02c17.52-4.25,51.91,11.42,65.66,20.97c13.04,9.06,41.48,35.67,44.08,52.4
		C380.7,459.68,361.26,478,338,498.71z"/>
	<path class="st1" d="M303.59,357.52l82.49,67.32c15.77,10.95,50.96,6.22,61.91-9.55l41.04-59.11c10.95-15.77,7-37.62-8.76-48.57
		l-95.84-66.53c-15.77-10.95-43.59-16.45-54.53-0.68l-35.07,68.56C283.88,324.72,287.83,346.57,303.59,357.52z"/>
	<path class="st0" d="M370.03,598.57c-1.69-1.09-2.19-3.33-1.15-5.05c32.31-53.64,41.6-99.63,19.41-117.81l-7.1-5.82
		c-1.39-1.14-1.77-3.12-0.89-4.69l1.59-2.85c1.24-2.21,4.28-2.56,5.99-0.69c10.65,11.64,2.05,1.65,12.9,14.34
		c18.07,21.12,11.52,69.1-23.23,123.01c-1.13,1.75-3.47,2.25-5.21,1.09C371.46,599.51,370.81,599.08,370.03,598.57z"/>
	<path class="st2" d="M282.88,355.41l95.84,66.53c15.77,10.95,37.62,7,48.57-8.76l41.04-59.11c10.95-15.77,7-37.62-8.76-48.57
		l-95.84-66.53c-15.77-10.95-37.62-7-48.57,8.76l-41.04,59.11C263.17,322.61,267.11,344.46,282.88,355.41z"/>
	<path class="st0" d="M283.46,541.11c-2.32,0.58-0.75,0.16-4.4,1.89c-14.22,12.47-6.24,4.44-17.92,17.1
		c-19.21,20.83-13.9,70.53,20.59,127.05c4.59-2.86,4.59-2.86,8.67-5.26c-31.75-56.18-39.38-103.08-16.77-121.62
		c6.53-5.35,10.03-8.23,11.9-9.76c1.26-1.03,1.81-2.7,1.41-4.28c-0.51-1.98-0.68-3.3-1.15-4.38
		C285.1,540.98,284.34,540.89,283.46,541.11z"/>
	<polygon class="st2" points="394.12,252.52 379.63,242.63 381,205.86 395.83,206.41 	"/>
	<polygon class="st2" points="434.12,280.29 448.45,290.41 482.42,276.27 476.72,262.57 	"/>
	
		<ellipse transform="matrix(0.9841 -0.1776 0.1776 0.9841 -28.3083 72.2796)" class="st0" cx="389.61" cy="194.27" rx="18.23" ry="18.23"/>
	<circle class="st0" cx="490.27" cy="264.16" r="18.23"/>
	<path class="st1" d="M151.81,639.89l-13.83,4.84c-6,2.1-12.64-1.09-14.74-7.1h0c-2.1-6,1.09-12.64,7.1-14.74l13.83-4.84
		c6-2.1,12.64,1.09,14.74,7.1l0,0C161.01,631.16,157.81,637.79,151.81,639.89z"/>
	<path class="st1" d="M296.56,697.04l-8.67,11.81c-3.76,5.13-11.04,6.24-16.17,2.48l0,0c-5.13-3.76-6.24-11.04-2.48-16.17
		l8.67-11.81c3.76-5.13,11.04-6.24,16.17-2.48h0C299.21,684.63,300.32,691.91,296.56,697.04z"/>
	<path class="st1" d="M286.26,209.91c-1.04,10.33-11.39,17.75-23.11,16.56c-11.72-1.18-20.37-10.52-19.33-20.85
		c0.7-6.93,5.59-12.55,12.27-15.14c1.81-0.7-3.83,9.93-2.49,16.42c1.09,5.27,9.11,6.57,10.84,6.74c1.78,0.18,9.19,0.81,11.36-4.04
		c2.72-6.09,0.17-17.87,1.85-16.73C283.45,196.78,286.95,203.13,286.26,209.91z"/>
	<path class="st1" d="M346.45,600.19c4.93-9.14,17.33-12.01,27.7-6.41c10.36,5.6,14.77,17.54,9.83,26.68
		c-3.31,6.13-9.98,9.44-17.14,9.27c-1.94-0.05,7.35-7.7,8.6-14.2c1.01-5.28-5.89-9.57-7.42-10.39c-1.58-0.85-8.18-4.28-12.04-0.63
		c-4.85,4.58-7.02,16.43-8.14,14.73C343.99,613.4,343.21,606.19,346.45,600.19z"/>
	<circle class="st0" cx="407.35" cy="374.41" r="19.27"/>
	<circle class="st0" cx="315.73" cy="310.81" r="19.27"/>
	<path class="st3" d="M276.19,657.62c0.14-0.06,0.27-0.13,0.4-0.2l0.02,0.04C276.47,657.52,276.33,657.57,276.19,657.62z"/>
	<path class="st3" d="M275.77,657.78c0.14-0.05,0.28-0.1,0.42-0.16c-0.13,0.07-0.27,0.14-0.4,0.2L275.77,657.78z"/>
	<path class="st0" d="M331.26,352.09c5.95-8.56,16.26-6.9,25.04-0.8c8.78,6.09,12.69,14.31,6.75,22.87
		c-5.95,8.56-15.42,4.2-24.2-1.9S325.31,360.66,331.26,352.09z"/>
	<g>
		<path class="st4" d="M318.21,446.1c-2.29-1.68-2.15-6.71,0.17-8.47c1.18-0.89,3.25-2.1,3.14-2.93c-0.34-2.63-1.18-5.35-2.54-7.6
			c-0.49-0.82-3-0.47-4.59-0.54c-2.54-0.1-5.52-4.05-4.79-6.43c1.54-4.99,1.54-5-2.89-7.98c-0.96-0.65-1.97-1.22-2.88-1.77
			c-2.76,0.97-4.02,4.33-8.15,3.02c-4.13-1.31-3.32-4.69-5.06-7.45c-1.47,0-3.22,0.13-4.94-0.03c-2.95-0.27-4.53,0.69-5.15,3.85
			c-0.73,3.76-5.68,5.3-8.61,2.7c-2.26-2.01-4.09-2.11-6.22-0.1c-0.56,0.53-1.19,1-1.86,1.39c-2.03,1.17-2.48,2.67-1.35,4.77
			c1.12,2.1,1.06,3.93-0.72,5.97c-1.36,1.55-2.5,2.6-4.55,2.13c-3.03-0.69-4.24,0.88-5.06,3.53c-1.55,5.03-1.66,5,1.79,7.37
			c3.27,2.25,3.31,7.04-0.17,9.11c-2.59,1.53-3.25,3.23-1.97,5.85c0.34,0.69,0.61,1.44,0.76,2.19c0.45,2.38,1.85,3.06,4.17,2.81
			c1.25-0.14,3.06-0.15,3.77,0.59c2.07,2.19,4.16,4.6,2,8.07c-0.45,0.73-0.39,2.49,0.16,2.98c1.97,1.78,4.25,3.21,6.32,4.7
			c1.14-0.86,1.92-1.44,2.68-2.03c3.66-2.81,8.02-1.53,9.12,2.92c0.62,2.54,1.88,3.56,4.38,3.38c1.06-0.08,2.13-0.08,3.19-0.03
			c2.06,0.1,3.14-0.72,3.52-2.86c0.23-1.32,0.83-3.14,1.82-3.64c2.71-1.35,5.74-2.5,8.23,0.71c0.4,0.52,1.07,0.83,1.87,1.42
			c1.31-0.83,2.57-1.55,3.76-2.39c3.78-2.67,3.77-2.68,2.27-6.99c-1.02-2.93,1.82-6.96,4.9-6.95c0.19,0,0.4-0.03,0.58,0.01
			c3.09,0.7,4.45-0.77,5.29-3.64C322.02,448.96,322.18,449.01,318.21,446.1z M304.22,442.13c-0.09,9.82-8.13,17.63-18.13,17.61
			c-9.88-0.03-17.93-8.11-17.83-17.89c0.1-9.84,8.13-17.65,18.12-17.62C296.26,424.25,304.31,432.34,304.22,442.13z"/>
	</g>
	<path class="st5" d="M417.9,204.26c9.92-4.39,13.87-3.77,15.53-2.08c3.06,3.1-1.7,9.74,1.6,13.54c3.98,4.58,14.09-1.43,18.08,3.21
		c3.11,3.62-1.37,9.2,1.8,12.65c3.72,4.05,12.17-1.15,16.3,2.8c2.61,2.5,2.14,7.36,1.11,11.55"/>
</g>
</svg>
