<?xml version="1.0" encoding="utf-8"?>
<!-- Generator: Adobe Illustrator 27.1.1, SVG Export Plug-In . SVG Version: 6.00 Build 0)  -->
<svg version="1.1" id="Lager_1" xmlns="http://www.w3.org/2000/svg" xmlns:xlink="http://www.w3.org/1999/xlink" x="0px" y="0px"
	 viewBox="0 0 109.6 97.8" style="enable-background:new 0 0 109.6 97.8;" xml:space="preserve">
<style type="text/css">
	.st0{fill:none;stroke:#7C8DA6;stroke-width:2;stroke-miterlimit:10;}
	.st1{fill:none;}
	.st2{enable-background:new    ;}
	.st3{fill:#7C8DA6;}
</style>
<g>
	<path class="st0" d="M26.8,91.7L3.6,53c-1.3-2.2-1.4-4.9-0.1-7.1L25.4,6.4c1.2-2.2,3.6-3.6,6.1-3.7L76.6,2c2.5,0,4.9,1.3,6.2,3.5
		L106,44.2c1.3,2.2,1.4,4.9,0.1,7.1L84.3,90.7c-1.2,2.2-3.6,3.6-6.1,3.7l-45.1,0.7C30.5,95.2,28.1,93.9,26.8,91.7z"/>
	<path class="st0" d="M30.2,84.5l-19-31.8c-1.3-2.3-1.4-5.1-0.1-7.3l18-32.4c1.3-2.3,3.7-3.7,6.3-3.8l37-0.7c2.6,0,5.1,1.3,6.4,3.6
		l19.1,31.8c1.3,2.3,1.4,5.1,0.1,7.3L80,83.6c-1.3,2.3-3.7,3.7-6.3,3.8L36.6,88C34,88.1,31.6,86.7,30.2,84.5z"/>
	<rect x="37.9" y="43.1" class="st1" width="35.1" height="34.4"/>
	<g class="st2">
		<path class="st3" d="M41.6,45.9c0,1.1-0.1,1.8-0.6,2.3l-0.1,0.1c-0.1,0.1-0.1,0.1-0.1,0.2s0,0.1,0.1,0.2l0.1,0.1
			c0.5,0.5,0.6,1.1,0.6,2.2v2.3c0,0.3-0.2,0.5-0.5,0.5h-0.9c-0.3,0-0.5-0.2-0.5-0.5v-3c0-0.4-0.1-0.5-0.2-0.7
			c-0.2-0.2-0.4-0.2-0.5-0.2h-0.3c-0.2,0-0.3,0.1-0.3,0.3v3.6c0,0.3-0.2,0.5-0.5,0.5h-0.9c-0.3,0-0.5-0.2-0.5-0.5V42.8
			c0-0.3,0.2-0.5,0.5-0.5h2.1c0.7,0,1.3,0.2,1.8,0.6c0.6,0.5,0.9,1.1,0.9,2.1V45.9z M38.5,44.2c-0.2,0-0.3,0.1-0.3,0.3v2.8
			c0,0.2,0.2,0.3,0.3,0.3h0.3c0.2,0,0.4,0,0.5-0.2c0.1-0.1,0.2-0.3,0.2-0.7v-1.6c0-0.7-0.5-0.9-0.7-0.9H38.5z"/>
		<path class="st3" d="M48,51.3c0,1-0.3,1.6-0.9,2.1c-0.5,0.4-1.1,0.6-1.8,0.6s-1.3-0.2-1.8-0.6c-0.5-0.4-0.9-1.1-0.9-2.1v-3.7
			c0-1,0.3-1.6,0.9-2.1c0.5-0.4,1.1-0.6,1.8-0.6s1.3,0.2,1.8,0.6c0.5,0.4,0.9,1.1,0.9,2.1V51.3z M46,47.5c0-0.3-0.1-0.5-0.2-0.6
			c-0.1-0.1-0.3-0.2-0.5-0.2c-0.2,0-0.4,0.1-0.5,0.2c-0.1,0.1-0.2,0.3-0.2,0.6v3.7c0,0.3,0.1,0.5,0.2,0.6c0.1,0.1,0.3,0.2,0.5,0.2
			c0.2,0,0.4-0.1,0.5-0.2c0.1-0.1,0.2-0.3,0.2-0.6V47.5z"/>
		<path class="st3" d="M54.4,51.2c0,1.1-0.3,1.7-0.7,2.1c-0.5,0.5-1.2,0.7-1.7,0.7c-0.3,0-0.5-0.1-0.7-0.1c-0.3-0.1-0.4-0.2-0.6-0.2
			c-0.1,0-0.2,0-0.3,0.1l-0.1,0c-0.1,0.1-0.3,0.2-0.5,0.2c-0.2,0-0.4-0.1-0.5-0.2c-0.1-0.1-0.2-0.3-0.2-0.5V42.8
			c0-0.3,0.2-0.5,0.5-0.5h0.9c0.3,0,0.5,0.2,0.5,0.5v1.8c0,0.1,0,0.1,0.1,0.2c0.1,0.1,0.2,0.1,0.3,0.1h0.3c0.7,0,1.3,0.2,1.8,0.6
			c0.5,0.4,0.9,1.1,0.9,2.1V51.2z M51.1,51.3c0,0.3,0.1,0.4,0.2,0.6c0.1,0.1,0.3,0.2,0.5,0.2c0.2,0,0.3-0.1,0.5-0.2
			c0.1-0.1,0.2-0.3,0.2-0.6v-3.8c0-0.3-0.1-0.5-0.2-0.6c-0.1-0.1-0.3-0.2-0.5-0.2c-0.2,0-0.4,0.1-0.5,0.2c-0.1,0.1-0.2,0.3-0.2,0.6
			V51.3z"/>
		<path class="st3" d="M60.8,51.3c0,1-0.3,1.6-0.9,2.1c-0.5,0.4-1.1,0.6-1.8,0.6c-0.7,0-1.3-0.2-1.8-0.6c-0.5-0.4-0.9-1.1-0.9-2.1
			v-3.7c0-1,0.3-1.6,0.9-2.1c0.5-0.4,1.1-0.6,1.8-0.6c0.7,0,1.3,0.2,1.8,0.6c0.5,0.4,0.9,1.1,0.9,2.1V51.3z M58.8,47.5
			c0-0.3-0.1-0.5-0.2-0.6c-0.1-0.1-0.3-0.2-0.5-0.2c-0.2,0-0.4,0.1-0.5,0.2c-0.1,0.1-0.2,0.3-0.2,0.6v3.7c0,0.3,0.1,0.5,0.2,0.6
			c0.1,0.1,0.3,0.2,0.5,0.2c0.2,0,0.4-0.1,0.5-0.2c0.1-0.1,0.2-0.3,0.2-0.6V47.5z"/>
		<path class="st3" d="M64.7,53.8c-0.8,0-1.4-0.2-1.8-0.6c-0.4-0.4-0.6-0.9-0.6-1.7v-4.4c0-0.2-0.1-0.3-0.3-0.3l-0.2,0
			c-0.2,0-0.4-0.3-0.4-0.5v-0.8c0-0.3,0.2-0.5,0.4-0.5l0.2,0c0.1,0,0.3-0.2,0.3-0.3v-0.8c0-0.3,0.2-0.5,0.5-0.5h0.9
			c0.3,0,0.5,0.2,0.5,0.5v0.8c0,0.2,0.1,0.3,0.3,0.3H65c0.3,0,0.5,0.2,0.5,0.5v0.8c0,0.3-0.2,0.5-0.5,0.5h-0.4
			c-0.2,0-0.3,0.1-0.3,0.3v4.1c0,0.4,0.2,0.7,0.5,0.7l0.2,0c0.3,0,0.5,0.2,0.5,0.5v0.8c0,0.3-0.2,0.5-0.5,0.5H64.7z"/>
		<path class="st3" d="M71.4,53.3c0,0.2-0.1,0.3-0.2,0.4c-0.1,0.1-0.3,0.2-0.5,0.2c-0.2,0-0.3-0.1-0.5-0.2l-0.1,0
			c-0.1-0.1-0.2-0.1-0.3-0.1c-0.2,0-0.3,0.1-0.5,0.2c-0.2,0.1-0.5,0.1-0.8,0.1c-1,0-2.4-0.9-2.4-2.6v-0.1c0-0.6,0.1-1.4,0.8-2
			c0.5-0.4,1.1-0.5,1.6-0.5h0.5c0.2,0,0.3-0.1,0.3-0.3v-0.8c0-0.3-0.1-0.4-0.2-0.6c-0.1-0.1-0.3-0.2-0.5-0.2c-0.2,0-0.3,0.1-0.5,0.2
			c-0.1,0.1-0.2,0.3-0.2,0.6v0.1c0,0.3-0.2,0.5-0.5,0.5h-0.9c-0.3,0-0.5-0.2-0.5-0.5v-0.1c0-1,0.3-1.6,0.9-2.1
			c0.5-0.4,1.1-0.6,1.8-0.6c0.7,0,1.3,0.2,1.8,0.6c0.5,0.4,0.9,1.1,0.9,2.1V53.3z M68.7,50.3c-0.2,0-0.3,0.1-0.5,0.2
			c-0.1,0.1-0.2,0.3-0.2,0.6v0.2c0,0.3,0.1,0.5,0.2,0.6c0.1,0.1,0.3,0.2,0.5,0.2c0.2,0,0.4-0.1,0.5-0.2c0.1-0.1,0.2-0.3,0.2-0.6
			v-0.7c0-0.2-0.1-0.3-0.4-0.3H68.7z"/>
		<path class="st3" d="M73.1,53.8c-0.3,0-0.5-0.2-0.5-0.5v-7.8c0-0.2,0.1-0.4,0.2-0.5c0.1-0.1,0.3-0.2,0.4-0.2
			c0.2,0,0.4,0.1,0.5,0.2l0.1,0c0.1,0.1,0.2,0.1,0.3,0.1c0.2,0,0.3-0.1,0.6-0.2c0.3-0.1,0.5-0.1,0.7-0.1c0.4,0,0.6,0.3,0.6,0.6v1
			c0,0.3-0.2,0.5-0.5,0.5H75c-0.2,0-0.3,0-0.4,0.1c-0.1,0.1-0.1,0.2-0.1,0.6v5.6c0,0.3-0.2,0.5-0.5,0.5H73.1z"/>
	</g>
</g>
</svg>
