<?xml version="1.0" encoding="utf-8"?>
<!-- Generator: Adobe Illustrator 25.2.0, SVG Export Plug-In . SVG Version: 6.00 Build 0)  -->
<svg version="1.1" id="Lager_1" xmlns="http://www.w3.org/2000/svg" xmlns:xlink="http://www.w3.org/1999/xlink" x="0px" y="0px"
	 viewBox="0 0 314.28 621.89" style="enable-background:new 0 0 314.28 621.89;" xml:space="preserve">
<style type="text/css">
	.st0{fill:none;stroke:#7C8DA6;stroke-width:2.3987;stroke-miterlimit:10;}
	.st1{fill:#1F1F1D;stroke:#7C8DA6;stroke-width:3.6593;stroke-miterlimit:10;}
	.st2{fill:none;stroke:#7C8DA6;stroke-width:2.3898;stroke-miterlimit:10;}
	.st3{clip-path:url(#SVGID_2_);}
	.st4{clip-path:url(#SVGID_4_);fill:#6B7B8E;}
	.st5{clip-path:url(#SVGID_4_);fill:none;stroke:#756B96;stroke-width:1.5941;stroke-miterlimit:10;}
	.st6{clip-path:url(#SVGID_4_);fill:#7B8DA6;}
	.st7{clip-path:url(#SVGID_4_);fill:none;stroke:#756B96;stroke-width:1.0627;stroke-miterlimit:10;}
	.st8{clip-path:url(#SVGID_4_);fill:#A8B2C0;}
	.st9{clip-path:url(#SVGID_4_);fill:#B2B2B2;}
	.st10{clip-path:url(#SVGID_4_);fill:#756B96;}
</style>
<g>
	<g>
		<path class="st0" d="M285.2,150.16L304,118.8c2.32-3.87,2.4-8.68,0.21-12.62l-17.76-31.96c-2.19-3.94-6.31-6.41-10.82-6.49
			l-36.56-0.6c-4.51-0.07-8.71,2.26-11.03,6.13l-18.8,31.36c-2.32,3.87-2.4,8.68-0.21,12.62l17.76,31.96
			c2.19,3.94,6.31,6.41,10.82,6.49l36.56,0.6C278.68,156.36,282.88,154.03,285.2,150.16z"/>
		<path class="st0" d="M202.03,89.78l18.8-31.36c2.32-3.87,2.4-8.68,0.21-12.62l-17.76-31.96c-2.19-3.94-6.31-6.41-10.82-6.49
			l-36.56-0.6c-4.51-0.07-8.71,2.26-11.03,6.13l-18.8,31.36c-2.32,3.87-2.4,8.68-0.21,12.62l17.76,31.96
			c2.19,3.94,6.31,6.41,10.82,6.49l36.56,0.6C195.5,95.98,199.71,93.65,202.03,89.78z"/>
		<path class="st0" d="M49.77,142.62l-17.76-31.96c-2.19-3.94-6.31-6.41-10.82-6.49l-17.07-0.28c-0.13,27.56-0.32,55.13-0.64,82.69
			c-0.02,1.96-0.06,3.92-0.08,5.88l16.33,0.27c4.51,0.07,8.71-2.26,11.03-6.13l18.8-31.36C51.88,151.37,51.96,146.56,49.77,142.62z"
			/>
		<path class="st0" d="M117.13,142.03l18.8-31.36c2.32-3.87,2.4-8.68,0.21-12.62l-17.76-31.96c-2.19-3.94-6.31-6.41-10.82-6.49
			L71,59c-4.51-0.07-8.71,2.26-11.03,6.13l-18.8,31.36c-2.32,3.87-2.4,8.68-0.21,12.62l17.76,31.96c2.19,3.94,6.31,6.41,10.82,6.49
			l36.56,0.6C110.61,148.23,114.81,145.89,117.13,142.03z"/>
		<path class="st0" d="M4.16,95.19l18.67,0.31c4.51,0.07,8.71-2.26,11.03-6.13l18.8-31.36c2.32-3.87,2.4-8.68,0.21-12.62
			L35.11,13.43c-2.19-3.94-6.31-6.41-10.82-6.49L4.37,6.62"/>
		<path class="st0" d="M4.37,6.62C4.36,36.14,4.29,65.67,4.16,95.19"/>
		<line class="st0" x1="219.02" y1="158.8" x2="196.02" y2="115.45"/>
		<line class="st0" x1="149.66" y1="115.82" x2="196.02" y2="115.45"/>
		<line class="st0" x1="128.92" y1="152.77" x2="149.66" y2="115.82"/>
		<line class="st0" x1="128.92" y1="152.77" x2="148.53" y2="186.69"/>
		<circle class="st1" cx="148.1" cy="187.45" r="1.93"/>
		<circle class="st1" cx="129.35" cy="153.14" r="1.93"/>
		<circle class="st1" cx="149.71" cy="116.58" r="1.93"/>
		<circle class="st1" cx="196.02" cy="115.45" r="1.93"/>
		<circle class="st1" cx="218.69" cy="159.17" r="1.93"/>
		<path class="st0" d="M114.94,339.36l18.8-31.36c2.32-3.87,2.4-8.68,0.21-12.62l-17.76-31.96c-2.19-3.94-6.31-6.41-10.82-6.49
			l-36.56-0.6c-4.51-0.07-8.71,2.26-11.03,6.13l-18.8,31.36c-2.32,3.87-2.4,8.68-0.21,12.62l17.76,31.96
			c2.19,3.94,6.31,6.41,10.82,6.49l36.56,0.6C108.42,345.56,112.62,343.22,114.94,339.36z"/>
		<path class="st0" d="M48.79,243.9l-17.75-31.97c-2.19-3.94-6.31-6.41-10.82-6.49l-16.99-0.28c-0.43,29.53-1,59.04-1.52,88.55
			l17.05,0.28c4.51,0.07,8.71-2.26,11.03-6.13l18.8-31.36C50.9,252.64,50.98,247.84,48.79,243.9z"/>
		<line class="st0" x1="64.07" y1="246.83" x2="117.44" y2="248.13"/>
		<line class="st0" x1="144.29" y1="292.58" x2="116.28" y2="247.55"/>
		<line class="st0" x1="64.75" y1="247.41" x2="40.07" y2="205.98"/>
		<line class="st0" x1="144.29" y1="292.58" x2="191.92" y2="292.87"/>
		<circle class="st1" cx="191.92" cy="292.87" r="1.93"/>
		<circle class="st1" cx="144.95" cy="292.3" r="1.93"/>
		<circle class="st1" cx="116.86" cy="248.33" r="1.93"/>
		<circle class="st1" cx="64.07" cy="246.83" r="1.93"/>
		<circle class="st1" cx="40.45" cy="206.27" r="1.93"/>
	</g>
	<path class="st2" d="M46.79,349.18l-17.64-31.94c-2.17-3.94-6.27-6.41-10.75-6.48l-17.1-0.28c-0.5,29.49-0.89,58.99-0.99,88.5
		l16.64,0.28c4.48,0.07,8.65-2.26,10.96-6.12l18.68-31.34C48.88,357.92,48.96,353.12,46.79,349.18z"/>
</g>
<g id="robot_maskot_håller_i_sig_1_">
	<g>
		<defs>
			<rect id="SVGID_1_" x="-50" y="235.01" width="311" height="454.99"/>
		</defs>
		<clipPath id="SVGID_2_">
			<use xlink:href="#SVGID_1_"  style="overflow:visible;"/>
		</clipPath>
		<g class="st3">
			<defs>
				<rect id="SVGID_3_" x="-50" y="235.01" width="311" height="454.99"/>
			</defs>
			<clipPath id="SVGID_4_">
				<use xlink:href="#SVGID_3_"  style="overflow:visible;"/>
			</clipPath>
			<path class="st4" d="M29.33,571.85c2.91-34.75,13.48-57.98,28.7-59.34l9.97-0.89c-0.52-1.45-1.61-4.74-2.78-5.61
				c-12.11,2.48-3.23,0.41-12.52,2.6c-14.43,3.41-26.82,27.19-28.66,62.93C26.86,571.67,26.86,571.67,29.33,571.85"/>
			<path class="st5" d="M29.33,571.85c2.91-34.75,13.48-57.98,28.7-59.34l9.97-0.89c-0.52-1.45-1.61-4.74-2.78-5.61
				c-12.11,2.48-3.23,0.41-12.52,2.6c-14.43,3.41-26.82,27.19-28.66,62.93C26.86,571.67,26.86,571.67,29.33,571.85z"/>
			<path class="st4" d="M89.47,356.6c-13.35,31.17-15.15,61.34-7.7,74.53c5.05,8.94,6.71,7.67,6.71,7.67
				c-1.34,0.7-4.96,3.86-6.38,3.67c-7.23-10.34-3.19-3.13-6.8-12.25c-5.86-14.77-4.34-48.47,10.82-77.04
				C88.27,355.09,87.55,354.99,89.47,356.6"/>
			<path class="st5" d="M89.47,356.6c-13.35,31.17-15.15,61.34-7.7,74.53c5.05,8.94,6.71,7.67,6.71,7.67
				c-1.34,0.7-4.96,3.86-6.38,3.67c-7.23-10.34-3.19-3.13-6.8-12.25c-5.86-14.77-4.34-48.47,10.82-77.04
				C88.27,355.09,87.55,354.99,89.47,356.6z"/>
			<path class="st6" d="M135.82,509.01c-21.36,19.68-41.37,32.3-57.76,20.52c-16.39-11.77-9.62-32.08-1.6-63.16
				c3.99-15.48,10.7-27.87,22.43-30.82c9.15-2.3,27.12,6.17,34.3,11.33c6.81,4.89,21.67,19.28,23.03,28.32
				C158.12,487.92,147.97,497.82,135.82,509.01"/>
			<path class="st7" d="M135.82,509.01c-21.36,19.68-41.37,32.3-57.76,20.52c-16.39-11.77-9.62-32.08-1.6-63.16
				c3.99-15.48,10.7-27.87,22.43-30.82c9.15-2.3,27.12,6.17,34.3,11.33c6.81,4.89,21.67,19.28,23.03,28.32
				C158.12,487.92,147.97,497.82,135.82,509.01z"/>
			<path class="st8" d="M126.59,504.53c-21.36,19.68-41.37,32.3-57.76,20.52c-16.39-11.77-9.62-32.08-1.6-63.16
				c3.99-15.48,10.7-27.87,22.43-30.82c9.15-2.3,27.12,6.17,34.3,11.33c6.81,4.89,21.67,19.28,23.03,28.32
				C148.89,483.44,138.74,493.34,126.59,504.53"/>
			<path class="st5" d="M126.59,504.53c-21.36,19.68-41.37,32.3-57.76,20.52c-16.39-11.77-9.62-32.08-1.6-63.16
				c3.99-15.48,10.7-27.87,22.43-30.82c9.15-2.3,27.12,6.17,34.3,11.33c6.81,4.89,21.67,19.28,23.03,28.32
				C148.89,483.44,138.74,493.34,126.59,504.53z"/>
			<path class="st6" d="M108.61,428.23l43.1,36.38c8.24,5.92,26.62,3.36,32.34-5.16l21.44-31.95c5.72-8.52,3.66-20.33-4.58-26.25
				l-50.07-35.96c-8.24-5.92-22.77-8.89-28.49-0.37l-18.32,37.05C98.31,410.5,100.37,422.31,108.61,428.23"/>
			<path class="st7" d="M108.61,428.23l43.1,36.38c8.24,5.92,26.62,3.36,32.34-5.16l21.44-31.95c5.72-8.52,3.66-20.33-4.58-26.25
				l-50.07-35.96c-8.24-5.92-22.77-8.89-28.49-0.37l-18.32,37.05C98.31,410.5,100.37,422.31,108.61,428.23z"/>
			<path class="st4" d="M143.32,558.5c-0.88-0.59-1.14-1.8-0.6-2.73c16.88-28.99,21.74-53.84,10.14-63.67l-3.71-3.14
				c-0.73-0.62-0.92-1.68-0.46-2.53l0.83-1.54c0.65-1.2,2.24-1.38,3.13-0.37c5.56,6.29,1.07,0.89,6.74,7.75
				c9.44,11.41,6.02,37.35-12.14,66.48c-0.59,0.95-1.81,1.21-2.72,0.59C144.07,559.01,143.73,558.78,143.32,558.5"/>
			<path class="st5" d="M143.32,558.5c-0.88-0.59-1.14-1.8-0.6-2.73c16.88-28.99,21.74-53.84,10.14-63.67l-3.71-3.14
				c-0.73-0.62-0.92-1.68-0.46-2.53l0.83-1.54c0.65-1.2,2.24-1.38,3.13-0.37c5.56,6.29,1.07,0.89,6.74,7.75
				c9.44,11.41,6.02,37.35-12.14,66.48c-0.59,0.95-1.81,1.21-2.72,0.59C144.07,559.01,143.73,558.78,143.32,558.5z"/>
			<path class="st8" d="M97.79,427.09l50.07,35.96c8.24,5.92,19.65,3.78,25.37-4.74l21.44-31.95c5.72-8.52,3.66-20.33-4.58-26.25
				l-50.07-35.96c-8.24-5.92-19.65-3.78-25.37,4.74l-21.44,31.95C87.49,409.36,89.55,421.17,97.79,427.09"/>
			<path class="st5" d="M97.79,427.09l50.07,35.96c8.24,5.92,19.65,3.78,25.37-4.74l21.44-31.95c5.72-8.52,3.66-20.33-4.58-26.25
				l-50.07-35.96c-8.24-5.92-19.65-3.78-25.37,4.74l-21.44,31.95C87.49,409.36,89.55,421.17,97.79,427.09z"/>
			<path class="st4" d="M98.09,527.45c-1.21,0.31-0.39,0.09-2.3,1.02c-7.43,6.74-3.26,2.4-9.36,9.24
				c-10.04,11.26-7.26,38.12,10.76,68.66c2.4-1.54,2.4-1.54,4.53-2.84c-16.59-30.36-20.57-55.71-8.76-65.73
				c3.41-2.89,5.24-4.45,6.22-5.28c0.66-0.56,0.94-1.46,0.73-2.31c-0.26-1.07-0.35-1.78-0.6-2.37
				C98.95,527.38,98.55,527.33,98.09,527.45"/>
			<path class="st5" d="M98.09,527.45c-1.21,0.31-0.39,0.09-2.3,1.02c-7.43,6.74-3.26,2.4-9.36,9.24
				c-10.04,11.26-7.26,38.12,10.76,68.66c2.4-1.54,2.4-1.54,4.53-2.84c-16.59-30.36-20.57-55.71-8.76-65.73
				c3.41-2.89,5.24-4.45,6.22-5.28c0.66-0.56,0.94-1.46,0.73-2.31c-0.26-1.07-0.35-1.78-0.6-2.37
				C98.95,527.38,98.55,527.33,98.09,527.45z"/>
			<polygon class="st8" points="155.9,371.48 148.34,366.14 149.05,346.27 156.8,346.57 			"/>
			<polygon class="st5" points="155.9,371.48 148.34,366.14 149.05,346.27 156.8,346.57 			"/>
			<polygon class="st8" points="176.81,386.49 184.29,391.96 202.04,384.32 199.06,376.92 			"/>
			<polygon class="st5" points="176.81,386.49 184.29,391.96 202.04,384.32 199.06,376.92 			"/>
			<path class="st4" d="M145.73,334.39c-3,4.47-1.93,10.61,2.39,13.71c4.32,3.1,10.26,2,13.25-2.47c3-4.47,1.93-10.61-2.39-13.71
				C154.66,328.81,148.73,329.92,145.73,334.39"/>
			<path class="st5" d="M145.73,334.39c-3,4.47-1.93,10.61,2.39,13.71c4.32,3.1,10.26,2,13.25-2.47c3-4.47,1.93-10.61-2.39-13.71
				C154.66,328.81,148.73,329.92,145.73,334.39z"/>
			<path class="st4" d="M198.32,372.16c-3,4.47-1.93,10.61,2.39,13.71c4.32,3.1,10.26,2,13.25-2.47c3-4.47,1.93-10.61-2.39-13.71
				C207.25,366.58,201.32,367.69,198.32,372.16"/>
			<path class="st5" d="M198.32,372.16c-3,4.47-1.93,10.61,2.39,13.71c4.32,3.1,10.26,2,13.25-2.47c3-4.47,1.93-10.61-2.39-13.71
				C207.25,366.58,201.32,367.69,198.32,372.16z"/>
			<path class="st6" d="M29.31,580.83l-7.23,2.62c-3.14,1.14-6.6-0.59-7.7-3.83c-1.1-3.24,0.57-6.83,3.71-7.97l7.23-2.62
				c3.14-1.14,6.6,0.59,7.7,3.83C34.12,576.11,32.45,579.7,29.31,580.83"/>
			<path class="st7" d="M29.31,580.83l-7.23,2.62c-3.14,1.14-6.6-0.59-7.7-3.83c-1.1-3.24,0.57-6.83,3.71-7.97l7.23-2.62
				c3.14-1.14,6.6,0.59,7.7,3.83C34.12,576.11,32.45,579.7,29.31,580.83z"/>
			<path class="st6" d="M104.94,611.72l-4.53,6.38c-1.97,2.77-5.77,3.38-8.45,1.34c-2.68-2.03-3.26-5.97-1.3-8.74l4.53-6.38
				c1.97-2.77,5.77-3.38,8.45-1.34h0C106.32,605.01,106.9,608.95,104.94,611.72"/>
			<path class="st7" d="M104.94,611.72l-4.53,6.38c-1.97,2.77-5.77,3.38-8.45,1.34c-2.68-2.03-3.26-5.97-1.3-8.74l4.53-6.38
				c1.97-2.77,5.77-3.38,8.45-1.34h0C106.32,605.01,106.9,608.95,104.94,611.72z"/>
			<path class="st6" d="M99.56,348.46c-0.55,5.58-5.95,9.59-12.07,8.95c-6.12-0.64-10.64-5.69-10.1-11.27
				c0.37-3.75,2.92-6.78,6.41-8.18c0.95-0.38-2,5.37-1.3,8.87c0.57,2.85,4.76,3.55,5.66,3.64c0.93,0.1,4.8,0.44,5.93-2.18
				c1.42-3.29,0.09-9.66,0.97-9.04C98.09,341.36,99.91,344.79,99.56,348.46"/>
			<path class="st7" d="M99.56,348.46c-0.55,5.58-5.95,9.59-12.07,8.95c-6.12-0.64-10.64-5.69-10.1-11.27
				c0.37-3.75,2.92-6.78,6.41-8.18c0.95-0.38-2,5.37-1.3,8.87c0.57,2.85,4.76,3.55,5.66,3.64c0.93,0.1,4.8,0.44,5.93-2.18
				c1.42-3.29,0.09-9.66,0.97-9.04C98.09,341.36,99.91,344.79,99.56,348.46z"/>
			<path class="st6" d="M131,559.38c2.58-4.94,9.06-6.49,14.47-3.47c5.41,3.02,7.71,9.48,5.14,14.42c-1.73,3.31-5.21,5.1-8.96,5.01
				c-1.01-0.03,3.84-4.16,4.49-7.68c0.53-2.85-3.08-5.17-3.88-5.62c-0.82-0.46-4.27-2.31-6.29-0.34c-2.53,2.47-3.67,8.88-4.25,7.96
				C129.72,566.51,129.31,562.62,131,559.38"/>
			<path class="st7" d="M131,559.38c2.58-4.94,9.06-6.49,14.47-3.47c5.41,3.02,7.71,9.48,5.14,14.42c-1.73,3.31-5.21,5.1-8.96,5.01
				c-1.01-0.03,3.84-4.16,4.49-7.68c0.53-2.85-3.08-5.17-3.88-5.62c-0.82-0.46-4.27-2.31-6.29-0.34c-2.53,2.47-3.67,8.88-4.25,7.96
				C129.72,566.51,129.31,562.62,131,559.38z"/>
			<path class="st4" d="M154.55,431.42c-3.17,4.73-2.04,11.21,2.53,14.49c4.57,3.28,10.84,2.11,14.01-2.62
				c3.17-4.72,2.04-11.21-2.53-14.49C163.99,425.52,157.72,426.69,154.55,431.42"/>
			<path class="st5" d="M154.55,431.42c-3.17,4.73-2.04,11.21,2.53,14.49c4.57,3.28,10.84,2.11,14.01-2.62
				c3.17-4.72,2.04-11.21-2.53-14.49C163.99,425.52,157.72,426.69,154.55,431.42z"/>
			<path class="st4" d="M106.68,397.05c-3.17,4.73-2.04,11.21,2.53,14.49c4.57,3.28,10.84,2.11,14.01-2.62
				c3.17-4.72,2.04-11.21-2.53-14.49C116.13,391.15,109.86,392.32,106.68,397.05"/>
			<path class="st5" d="M106.68,397.05c-3.17,4.73-2.04,11.21,2.53,14.49c4.57,3.28,10.84,2.11,14.01-2.62
				c3.17-4.72,2.04-11.21-2.53-14.49C116.13,391.15,109.86,392.32,106.68,397.05z"/>
			<path class="st9" d="M94.3,590.42c0.07-0.03,0.14-0.07,0.21-0.11l0.01,0.02C94.44,590.36,94.37,590.39,94.3,590.42"/>
			<path class="st9" d="M94.08,590.5c0.07-0.03,0.15-0.06,0.22-0.09c-0.07,0.04-0.14,0.08-0.21,0.11L94.08,590.5z"/>
			<path class="st4" d="M123.06,425.3c3.11-4.63,8.5-3.73,13.08-0.43c4.59,3.29,6.63,7.73,3.53,12.36s-8.06,2.27-12.64-1.03
				C122.44,432.91,119.96,429.93,123.06,425.3"/>
			<path class="st5" d="M123.06,425.3c3.11-4.63,8.5-3.73,13.08-0.43c4.59,3.29,6.63,7.73,3.53,12.36s-8.06,2.27-12.64-1.03
				C122.44,432.91,119.96,429.93,123.06,425.3z"/>
			<path class="st10" d="M116.25,476.1c-1.2-0.91-1.12-3.63,0.09-4.58c0.62-0.48,1.7-1.13,1.64-1.58c-0.18-1.42-0.62-2.89-1.33-4.11
				c-0.26-0.44-1.57-0.26-2.4-0.29c-1.33-0.05-2.88-2.19-2.5-3.47c0.8-2.7,0.81-2.7-1.51-4.31c-0.5-0.35-1.03-0.66-1.51-0.96
				c-1.44,0.53-2.1,2.34-4.26,1.63c-2.16-0.71-1.73-2.54-2.64-4.03c-0.77,0-1.68,0.07-2.58-0.02c-1.54-0.14-2.37,0.37-2.69,2.08
				c-0.38,2.03-2.97,2.86-4.5,1.46c-1.18-1.09-2.14-1.14-3.25-0.06c-0.29,0.29-0.62,0.54-0.97,0.75c-1.06,0.63-1.3,1.44-0.7,2.58
				c0.59,1.13,0.55,2.12-0.37,3.23c-0.71,0.84-1.31,1.4-2.38,1.15c-1.58-0.37-2.21,0.48-2.64,1.91c-0.81,2.72-0.87,2.7,0.93,3.98
				c1.71,1.22,1.73,3.8-0.09,4.92c-1.35,0.82-1.7,1.74-1.03,3.16c0.18,0.37,0.32,0.78,0.4,1.18c0.23,1.29,0.97,1.66,2.18,1.52
				c0.65-0.08,1.6-0.08,1.97,0.32c1.08,1.18,2.17,2.49,1.05,4.36c-0.24,0.39-0.2,1.35,0.08,1.61c1.03,0.96,2.22,1.73,3.3,2.54
				c0.6-0.47,1-0.78,1.4-1.1c1.91-1.52,4.19-0.83,4.76,1.58c0.33,1.37,0.98,1.93,2.29,1.83c0.55-0.04,1.11-0.04,1.67-0.02
				c1.07,0.05,1.64-0.39,1.84-1.55c0.12-0.71,0.44-1.7,0.95-1.97c1.42-0.73,3-1.35,4.3,0.38c0.21,0.28,0.56,0.45,0.98,0.77
				c0.68-0.45,1.34-0.84,1.96-1.29c1.98-1.44,1.97-1.45,1.19-3.78c-0.54-1.58,0.95-3.76,2.56-3.76c0.1,0,0.21-0.02,0.3,0.01
				c1.61,0.38,2.32-0.42,2.76-1.97C118.24,477.65,118.32,477.67,116.25,476.1 M108.94,473.95c-0.05,5.31-4.25,9.53-9.47,9.52
				c-5.16-0.02-9.37-4.38-9.31-9.67c0.05-5.32,4.25-9.54,9.47-9.52C104.78,464.29,108.99,468.67,108.94,473.95"/>
			<path class="st5" d="M168.33,345.4c5.18-2.37,7.25-2.04,8.12-1.12c1.6,1.68-0.89,5.27,0.83,7.32c2.08,2.48,7.36-0.77,9.45,1.74
				c1.62,1.96-0.71,4.97,0.94,6.83c1.94,2.19,6.36-0.62,8.51,1.51c1.37,1.35,1.12,3.98,0.58,6.24"/>
		</g>
	</g>
</g>
</svg>
