<?xml version="1.0" encoding="utf-8"?>
<!-- Generator: Adobe Illustrator 25.2.0, SVG Export Plug-In . SVG Version: 6.00 Build 0)  -->
<svg version="1.1" id="Lager_1" xmlns="http://www.w3.org/2000/svg" xmlns:xlink="http://www.w3.org/1999/xlink" x="0px" y="0px"
	 viewBox="0 0 109.6 97.8" style="enable-background:new 0 0 109.6 97.8;" xml:space="preserve">
<style type="text/css">
	.st0{fill:none;stroke:#7C8DA6;stroke-width:2;stroke-miterlimit:10;}
	.st1{fill:none;}
	.st2{fill:#7C8DA6;}
	.st3{font-family:'Aptly';}
	.st4{font-size:14px;}
</style>
<g>
	<path class="st0" d="M26.8,91.7L3.6,53c-1.3-2.2-1.4-4.9-0.1-7.1L25.4,6.4c1.2-2.2,3.6-3.6,6.1-3.7L76.6,2c2.5,0,4.9,1.3,6.2,3.5
		L106,44.2c1.3,2.2,1.4,4.9,0.1,7.1L84.3,90.7c-1.2,2.2-3.6,3.6-6.1,3.7l-45.1,0.7C30.5,95.2,28.1,93.9,26.8,91.7z"/>
	<path class="st0" d="M30.2,84.5l-19-31.8c-1.3-2.3-1.4-5.1-0.1-7.3l18-32.4c1.3-2.3,3.7-3.7,6.3-3.8l37-0.7c2.6,0,5.1,1.3,6.4,3.6
		l19.1,31.8c1.3,2.3,1.4,5.1,0.1,7.3L80,83.6c-1.3,2.3-3.7,3.7-6.3,3.8L36.6,88C34,88.1,31.6,86.7,30.2,84.5z"/>
	<rect x="37.9" y="43.1" class="st1" width="35.1" height="34.4"/>
	<text transform="matrix(1 0 0 1 35.6076 53.8496)" class="st2 st3 st4">Robotar</text>
</g>
</svg>
