<?xml version="1.0" encoding="utf-8"?>
<!-- Generator: Adobe Illustrator 25.2.0, SVG Export Plug-In . SVG Version: 6.00 Build 0)  -->
<svg version="1.1" id="Lager_1" xmlns="http://www.w3.org/2000/svg" xmlns:xlink="http://www.w3.org/1999/xlink" x="0px" y="0px"
	 viewBox="10 0 144.9 239.2" style="enable-background:new 0 0 144.9 239.2;" xml:space="preserve">
<style type="text/css">
	.st0{clip-path:url(#SVGID_2_);}
	.st1{clip-path:url(#SVGID_4_);fill:#6B7B8E;}
	.st2{clip-path:url(#SVGID_4_);fill:none;stroke:#756B96;stroke-width:0.6719;stroke-miterlimit:10;}
	.st3{clip-path:url(#SVGID_4_);fill:#7B8DA6;}
	.st4{clip-path:url(#SVGID_4_);fill:none;stroke:#756B96;stroke-width:0.4479;stroke-miterlimit:10;}
	.st5{clip-path:url(#SVGID_4_);fill:#A8B2C0;}
	.st6{clip-path:url(#SVGID_4_);fill:#B2B2B2;}
	.st7{clip-path:url(#SVGID_4_);fill:#756B96;}
	.st8{clip-path:url(#SVGID_6_);}
	.st9{clip-path:url(#SVGID_8_);fill:#756B96;}
	.st10{clip-path:url(#SVGID_10_);}
	.st11{clip-path:url(#SVGID_12_);fill:none;stroke:#7C8DA6;stroke-width:1.0171;stroke-miterlimit:10;}
	.st12{clip-path:url(#SVGID_12_);fill:#7C8DA5;}
	.st13{clip-path:url(#SVGID_12_);fill:none;stroke:#7C8DA6;stroke-width:0.7786;stroke-miterlimit:10;}
	.st14{clip-path:url(#SVGID_12_);fill:#1F1F1D;}
	.st15{clip-path:url(#SVGID_12_);fill:none;stroke:#7C8DA6;stroke-width:1.5514;stroke-miterlimit:10;}
	.st16{clip-path:url(#SVGID_12_);fill:none;stroke:#7C8DA6;stroke-width:1.0131;stroke-miterlimit:10;}
</style>
<g>
	<g id="robot_maskot_håller_i_sig_1_">
		<g>
			<defs>
				<rect id="SVGID_1_" x="26.9" y="78.7" width="133.3" height="188.6"/>
			</defs>
			<clipPath id="SVGID_2_">
				<use xlink:href="#SVGID_1_"  style="overflow:visible;"/>
			</clipPath>
			<g class="st0">
				<defs>
					<rect id="SVGID_3_" x="26.9" y="78.7" width="133.3" height="188.6"/>
				</defs>
				<clipPath id="SVGID_4_">
					<use xlink:href="#SVGID_3_"  style="overflow:visible;"/>
				</clipPath>
				<path class="st1" d="M61,218.3c1.2-14.4,5.8-24,12.3-24.6l4.3-0.4c-0.2-0.6-0.7-2-1.2-2.3c-5.2,1-1.4,0.2-5.4,1.1
					c-6.2,1.4-11.5,11.3-12.3,26.1C59.9,218.2,59.9,218.2,61,218.3"/>
				<path class="st2" d="M61,218.3c1.2-14.4,5.8-24,12.3-24.6l4.3-0.4c-0.2-0.6-0.7-2-1.2-2.3c-5.2,1-1.4,0.2-5.4,1.1
					c-6.2,1.4-11.5,11.3-12.3,26.1C59.9,218.2,59.9,218.2,61,218.3z"/>
				<path class="st1" d="M86.7,129.1C81,142,80.2,154.5,83.4,160c2.2,3.7,2.9,3.2,2.9,3.2c-0.6,0.3-2.1,1.6-2.7,1.5
					c-3.1-4.3-1.4-1.3-2.9-5.1c-2.5-6.1-1.9-20.1,4.6-31.9C86.2,128.5,85.9,128.4,86.7,129.1"/>
				<path class="st2" d="M86.7,129.1C81,142,80.2,154.5,83.4,160c2.2,3.7,2.9,3.2,2.9,3.2c-0.6,0.3-2.1,1.6-2.7,1.5
					c-3.1-4.3-1.4-1.3-2.9-5.1c-2.5-6.1-1.9-20.1,4.6-31.9C86.2,128.5,85.9,128.4,86.7,129.1z"/>
				<path class="st3" d="M106.6,192.2c-9.2,8.2-17.7,13.4-24.8,8.5c-7-4.9-4.1-13.3-0.7-26.2c1.7-6.4,4.6-11.5,9.6-12.8
					c3.9-1,11.6,2.6,14.7,4.7c2.9,2,9.3,8,9.9,11.7C116.2,183.5,111.8,187.6,106.6,192.2"/>
				<path class="st4" d="M106.6,192.2c-9.2,8.2-17.7,13.4-24.8,8.5c-7-4.9-4.1-13.3-0.7-26.2c1.7-6.4,4.6-11.5,9.6-12.8
					c3.9-1,11.6,2.6,14.7,4.7c2.9,2,9.3,8,9.9,11.7C116.2,183.5,111.8,187.6,106.6,192.2z"/>
				<path class="st5" d="M102.6,190.4c-9.2,8.2-17.7,13.4-24.8,8.5c-7-4.9-4.1-13.3-0.7-26.2c1.7-6.4,4.6-11.5,9.6-12.8
					c3.9-1,11.6,2.6,14.7,4.7c2.9,2,9.3,8,9.9,11.7C112.2,181.6,107.9,185.7,102.6,190.4"/>
				<path class="st2" d="M102.6,190.4c-9.2,8.2-17.7,13.4-24.8,8.5c-7-4.9-4.1-13.3-0.7-26.2c1.7-6.4,4.6-11.5,9.6-12.8
					c3.9-1,11.6,2.6,14.7,4.7c2.9,2,9.3,8,9.9,11.7C112.2,181.6,107.9,185.7,102.6,190.4z"/>
				<path class="st3" d="M94.9,158.8l18.5,15.1c3.5,2.5,11.4,1.4,13.9-2.1l9.2-13.2c2.5-3.5,1.6-8.4-2-10.9L113,132.7
					c-3.5-2.5-9.8-3.7-12.2-0.2L93,147.9C90.5,151.4,91.4,156.3,94.9,158.8"/>
				<path class="st4" d="M94.9,158.8l18.5,15.1c3.5,2.5,11.4,1.4,13.9-2.1l9.2-13.2c2.5-3.5,1.6-8.4-2-10.9L113,132.7
					c-3.5-2.5-9.8-3.7-12.2-0.2L93,147.9C90.5,151.4,91.4,156.3,94.9,158.8z"/>
				<path class="st1" d="M109.8,212.8c-0.4-0.2-0.5-0.7-0.3-1.1c7.2-12,9.3-22.3,4.3-26.4l-1.6-1.3c-0.3-0.3-0.4-0.7-0.2-1l0.4-0.6
					c0.3-0.5,1-0.6,1.3-0.2c2.4,2.6,0.5,0.4,2.9,3.2c4,4.7,2.6,15.5-5.2,27.5c-0.3,0.4-0.8,0.5-1.2,0.2
					C110.1,213,110,212.9,109.8,212.8"/>
				<path class="st2" d="M109.8,212.8c-0.4-0.2-0.5-0.7-0.3-1.1c7.2-12,9.3-22.3,4.3-26.4l-1.6-1.3c-0.3-0.3-0.4-0.7-0.2-1l0.4-0.6
					c0.3-0.5,1-0.6,1.3-0.2c2.4,2.6,0.5,0.4,2.9,3.2c4,4.7,2.6,15.5-5.2,27.5c-0.3,0.4-0.8,0.5-1.2,0.2
					C110.1,213,110,212.9,109.8,212.8z"/>
				<path class="st5" d="M90.3,158.3l21.5,14.9c3.5,2.5,8.4,1.6,10.9-2l9.2-13.2c2.5-3.5,1.6-8.4-2-10.9l-21.5-14.9
					c-3.5-2.5-8.4-1.6-10.9,2l-9.2,13.2C85.9,150.9,86.8,155.8,90.3,158.3"/>
				<path class="st2" d="M90.3,158.3l21.5,14.9c3.5,2.5,8.4,1.6,10.9-2l9.2-13.2c2.5-3.5,1.6-8.4-2-10.9l-21.5-14.9
					c-3.5-2.5-8.4-1.6-10.9,2l-9.2,13.2C85.9,150.9,86.8,155.8,90.3,158.3z"/>
				<path class="st1" d="M90.4,199.9c-0.5,0.1-0.2,0-1,0.4c-3.2,2.8-1.4,1-4,3.8c-4.3,4.7-3.1,15.8,4.6,28.5c1-0.6,1-0.6,1.9-1.2
					c-7.1-12.6-8.8-23.1-3.8-27.2c1.5-1.2,2.2-1.8,2.7-2.2c0.3-0.2,0.4-0.6,0.3-1c-0.1-0.4-0.2-0.7-0.3-1
					C90.8,199.9,90.6,199.8,90.4,199.9"/>
				<path class="st2" d="M90.4,199.9c-0.5,0.1-0.2,0-1,0.4c-3.2,2.8-1.4,1-4,3.8c-4.3,4.7-3.1,15.8,4.6,28.5c1-0.6,1-0.6,1.9-1.2
					c-7.1-12.6-8.8-23.1-3.8-27.2c1.5-1.2,2.2-1.8,2.7-2.2c0.3-0.2,0.4-0.6,0.3-1c-0.1-0.4-0.2-0.7-0.3-1
					C90.8,199.9,90.6,199.8,90.4,199.9z"/>
				<polygon class="st5" points="115.2,135.3 112,133 112.3,124.8 115.6,124.9 				"/>
				<polygon class="st2" points="115.2,135.3 112,133 112.3,124.8 115.6,124.9 				"/>
				<polygon class="st5" points="124.2,141.5 127.4,143.7 135,140.6 133.7,137.5 				"/>
				<polygon class="st2" points="124.2,141.5 127.4,143.7 135,140.6 133.7,137.5 				"/>
				<path class="st1" d="M110.9,119.9c-1.3,1.9-0.8,4.4,1,5.7c1.9,1.3,4.4,0.8,5.7-1c1.3-1.9,0.8-4.4-1-5.7
					C114.7,117.6,112.1,118,110.9,119.9"/>
				<path class="st2" d="M110.9,119.9c-1.3,1.9-0.8,4.4,1,5.7c1.9,1.3,4.4,0.8,5.7-1c1.3-1.9,0.8-4.4-1-5.7
					C114.7,117.6,112.1,118,110.9,119.9z"/>
				<path class="st1" d="M133.4,135.5c-1.3,1.9-0.8,4.4,1,5.7c1.9,1.3,4.4,0.8,5.7-1c1.3-1.9,0.8-4.4-1-5.7
					C137.2,133.2,134.7,133.7,133.4,135.5"/>
				<path class="st2" d="M133.4,135.5c-1.3,1.9-0.8,4.4,1,5.7c1.9,1.3,4.4,0.8,5.7-1c1.3-1.9,0.8-4.4-1-5.7
					C137.2,133.2,134.7,133.7,133.4,135.5z"/>
				<path class="st3" d="M60.9,222l-3.1,1.1c-1.3,0.5-2.8-0.2-3.3-1.6c-0.5-1.3,0.2-2.8,1.6-3.3l3.1-1.1c1.3-0.5,2.8,0.2,3.3,1.6
					C63,220.1,62.3,221.5,60.9,222"/>
				<path class="st4" d="M60.9,222l-3.1,1.1c-1.3,0.5-2.8-0.2-3.3-1.6c-0.5-1.3,0.2-2.8,1.6-3.3l3.1-1.1c1.3-0.5,2.8,0.2,3.3,1.6
					C63,220.1,62.3,221.5,60.9,222z"/>
				<path class="st3" d="M93.4,234.8l-1.9,2.6c-0.8,1.1-2.5,1.4-3.6,0.6c-1.1-0.8-1.4-2.5-0.6-3.6l1.9-2.6c0.8-1.1,2.5-1.4,3.6-0.6
					h0C94,232,94.2,233.7,93.4,234.8"/>
				<path class="st4" d="M93.4,234.8l-1.9,2.6c-0.8,1.1-2.5,1.4-3.6,0.6c-1.1-0.8-1.4-2.5-0.6-3.6l1.9-2.6c0.8-1.1,2.5-1.4,3.6-0.6
					h0C94,232,94.2,233.7,93.4,234.8z"/>
				<path class="st3" d="M91.1,125.7c-0.2,2.3-2.6,4-5.2,3.7c-2.6-0.3-4.6-2.4-4.3-4.7c0.2-1.6,1.3-2.8,2.7-3.4
					c0.4-0.2-0.9,2.2-0.6,3.7c0.2,1.2,2,1.5,2.4,1.5c0.4,0,2.1,0.2,2.5-0.9c0.6-1.4,0-4,0.4-3.7C90.4,122.8,91.2,124.2,91.1,125.7"
					/>
				<path class="st4" d="M91.1,125.7c-0.2,2.3-2.6,4-5.2,3.7c-2.6-0.3-4.6-2.4-4.3-4.7c0.2-1.6,1.3-2.8,2.7-3.4
					c0.4-0.2-0.9,2.2-0.6,3.7c0.2,1.2,2,1.5,2.4,1.5c0.4,0,2.1,0.2,2.5-0.9c0.6-1.4,0-4,0.4-3.7C90.4,122.8,91.2,124.2,91.1,125.7z"
					/>
				<path class="st3" d="M104.5,213.1c1.1-2,3.9-2.7,6.2-1.4c2.3,1.3,3.3,3.9,2.2,6c-0.7,1.4-2.2,2.1-3.8,2.1
					c-0.4,0,1.6-1.7,1.9-3.2c0.2-1.2-1.3-2.1-1.7-2.3c-0.4-0.2-1.8-1-2.7-0.1c-1.1,1-1.6,3.7-1.8,3.3
					C104,216.1,103.8,214.5,104.5,213.1"/>
				<path class="st4" d="M104.5,213.1c1.1-2,3.9-2.7,6.2-1.4c2.3,1.3,3.3,3.9,2.2,6c-0.7,1.4-2.2,2.1-3.8,2.1
					c-0.4,0,1.6-1.7,1.9-3.2c0.2-1.2-1.3-2.1-1.7-2.3c-0.4-0.2-1.8-1-2.7-0.1c-1.1,1-1.6,3.7-1.8,3.3
					C104,216.1,103.8,214.5,104.5,213.1z"/>
				<path class="st1" d="M114.6,160.1c-1.4,2-0.9,4.6,1.1,6c2,1.4,4.6,0.9,6-1.1c1.4-2,0.9-4.6-1.1-6
					C118.7,157.6,116,158.1,114.6,160.1"/>
				<path class="st2" d="M114.6,160.1c-1.4,2-0.9,4.6,1.1,6c2,1.4,4.6,0.9,6-1.1c1.4-2,0.9-4.6-1.1-6
					C118.7,157.6,116,158.1,114.6,160.1z"/>
				<path class="st1" d="M94.1,145.8c-1.4,2-0.9,4.6,1.1,6c2,1.4,4.6,0.9,6-1.1c1.4-2,0.9-4.6-1.1-6
					C98.2,143.4,95.5,143.9,94.1,145.8"/>
				<path class="st2" d="M94.1,145.8c-1.4,2-0.9,4.6,1.1,6c2,1.4,4.6,0.9,6-1.1c1.4-2,0.9-4.6-1.1-6
					C98.2,143.4,95.5,143.9,94.1,145.8z"/>
				<path class="st6" d="M88.8,226C88.8,226,88.9,225.9,88.8,226L88.8,226C88.9,226,88.8,226,88.8,226"/>
				<path class="st6" d="M88.7,226C88.7,226,88.8,226,88.7,226C88.8,226,88.7,226,88.7,226L88.7,226z"/>
				<path class="st1" d="M101.1,157.6c1.3-1.9,3.6-1.5,5.6-0.2c2,1.4,2.8,3.2,1.5,5.1c-1.3,1.9-3.5,0.9-5.4-0.4
					C100.9,160.7,99.8,159.5,101.1,157.6"/>
				<path class="st2" d="M101.1,157.6c1.3-1.9,3.6-1.5,5.6-0.2c2,1.4,2.8,3.2,1.5,5.1c-1.3,1.9-3.5,0.9-5.4-0.4
					C100.9,160.7,99.8,159.5,101.1,157.6z"/>
				<path class="st7" d="M98.2,178.6c-0.5-0.4-0.5-1.5,0-1.9c0.3-0.2,0.7-0.5,0.7-0.7c-0.1-0.6-0.3-1.2-0.6-1.7
					c-0.1-0.2-0.7-0.1-1-0.1c-0.6,0-1.2-0.9-1.1-1.4c0.3-1.1,0.3-1.1-0.6-1.8c-0.2-0.1-0.4-0.3-0.6-0.4c-0.6,0.2-0.9,1-1.8,0.7
					c-0.9-0.3-0.7-1.1-1.1-1.7c-0.3,0-0.7,0-1.1,0c-0.7-0.1-1,0.2-1.2,0.9c-0.2,0.8-1.3,1.2-1.9,0.6c-0.5-0.5-0.9-0.5-1.4,0
					c-0.1,0.1-0.3,0.2-0.4,0.3c-0.5,0.3-0.6,0.6-0.3,1.1c0.3,0.5,0.2,0.9-0.2,1.3c-0.3,0.3-0.6,0.6-1,0.5c-0.7-0.2-0.9,0.2-1.1,0.8
					c-0.3,1.1-0.4,1.1,0.4,1.7c0.7,0.5,0.7,1.6,0,2c-0.6,0.3-0.7,0.7-0.4,1.3c0.1,0.2,0.1,0.3,0.2,0.5c0.1,0.5,0.4,0.7,0.9,0.6
					c0.3,0,0.7,0,0.8,0.1c0.5,0.5,0.9,1,0.4,1.8c-0.1,0.2-0.1,0.6,0,0.7c0.4,0.4,1,0.7,1.4,1.1c0.3-0.2,0.4-0.3,0.6-0.5
					c0.8-0.6,1.8-0.3,2,0.7c0.1,0.6,0.4,0.8,1,0.8c0.2,0,0.5,0,0.7,0c0.5,0,0.7-0.2,0.8-0.6c0.1-0.3,0.2-0.7,0.4-0.8
					c0.6-0.3,1.3-0.6,1.8,0.2c0.1,0.1,0.2,0.2,0.4,0.3c0.3-0.2,0.6-0.3,0.8-0.5c0.8-0.6,0.8-0.6,0.5-1.6c-0.2-0.7,0.4-1.6,1.1-1.6
					c0,0,0.1,0,0.1,0c0.7,0.2,1-0.2,1.2-0.8C99.1,179.2,99.1,179.3,98.2,178.6 M95.1,177.7c0,2.2-1.8,3.9-4.1,3.9c-2.2,0-4-1.8-4-4
					c0-2.2,1.8-4,4.1-3.9C93.3,173.7,95.1,175.5,95.1,177.7"/>
				<path class="st2" d="M120.5,124.4c2.2-1,3.1-0.8,3.5-0.5c0.7,0.7-0.4,2.2,0.4,3c0.9,1,3.2-0.3,4.1,0.7c0.7,0.8-0.3,2.1,0.4,2.8
					c0.8,0.9,2.7-0.3,3.6,0.6c0.6,0.6,0.5,1.6,0.2,2.6"/>
			</g>
		</g>
	</g>
	<g id="Teckning_4_6_">
		<g>
			<defs>
				<rect id="SVGID_5_" x="29.6" y="30.7" width="25.5" height="25.5"/>
			</defs>
			<clipPath id="SVGID_6_">
				<use xlink:href="#SVGID_5_"  style="overflow:visible;"/>
			</clipPath>
			<g class="st8">
				<defs>
					<rect id="SVGID_7_" x="29.6" y="30.7" width="25.5" height="25.5"/>
				</defs>
				<clipPath id="SVGID_8_">
					<use xlink:href="#SVGID_7_"  style="overflow:visible;"/>
				</clipPath>
				<path class="st9" d="M46,53c-0.1,0-0.2,0.1-0.4,0.1c-0.6,0.1-1.1,0.3-1.7,0.4c-0.3,0.1-0.5,0.2-0.6,0.5
					c-0.2,0.6-0.5,1.2-0.8,1.8c-0.1,0.2-0.2,0.3-0.4,0.3c-1.1-0.2-2.2-0.3-3.3-0.5c-0.1,0-0.3-0.2-0.3-0.4c-0.1-0.7-0.2-1.4-0.3-2.1
					c0-0.1-0.1-0.3-0.3-0.4c-0.6-0.4-1.1-0.7-1.7-1.1c-0.1-0.1-0.4-0.1-0.5-0.1c-0.7,0.2-1.4,0.5-2,0.8c-0.2,0.1-0.4,0.1-0.5-0.1
					c-0.6-0.9-1.3-1.8-2-2.7c-0.1-0.2-0.1-0.4,0.1-0.5c0.5-0.5,0.9-1.1,1.3-1.7c0.1-0.1,0.1-0.4,0.1-0.5c-0.1-0.7-0.3-1.3-0.5-2
					c0-0.2-0.2-0.3-0.3-0.4c-0.6-0.3-1.3-0.6-1.9-0.8c-0.3-0.1-0.4-0.2-0.4-0.5c0.2-1.1,0.4-2.2,0.5-3.2c0-0.2,0.2-0.3,0.4-0.3
					c0.7-0.1,1.4-0.2,2.1-0.2c0.3,0,0.4-0.1,0.5-0.4c0.3-0.5,0.6-1.1,1-1.6c0.2-0.2,0.2-0.4,0.1-0.7c-0.3-0.6-0.5-1.2-0.7-1.9
					c-0.1-0.3-0.1-0.5,0.2-0.6c0.9-0.6,1.7-1.3,2.6-1.9c0.2-0.1,0.3-0.1,0.5,0c0.6,0.5,1.1,0.9,1.7,1.4c0.1,0.1,0.3,0.1,0.5,0.1
					c0.7-0.1,1.3-0.3,2-0.5c0.2,0,0.3-0.2,0.4-0.4c0.3-0.6,0.6-1.2,0.9-1.9c0.1-0.3,0.3-0.4,0.5-0.3c1.1,0.2,2.1,0.3,3.2,0.5
					c0.3,0,0.4,0.2,0.4,0.5c0.1,0.6,0.1,1.3,0.2,1.9c0,0.3,0.1,0.4,0.4,0.6c0.6,0.3,1.1,0.7,1.6,1c0.2,0.1,0.4,0.1,0.6,0.1
					c0.7-0.2,1.3-0.5,2-0.8c0.2-0.1,0.4-0.1,0.5,0.1c0.6,0.9,1.3,1.7,1.9,2.6c0.2,0.3,0.1,0.4-0.1,0.7c-0.4,0.5-0.8,1.1-1.3,1.6
					c-0.2,0.2-0.2,0.3-0.1,0.6c0.2,0.6,0.3,1.2,0.4,1.8c0.1,0.3,0.2,0.5,0.5,0.6c0.6,0.2,1.2,0.5,1.8,0.8c0.2,0.1,0.4,0.2,0.3,0.5
					c-0.2,1.1-0.3,2.2-0.5,3.3c0,0.1-0.2,0.3-0.4,0.3c-0.7,0.1-1.4,0.2-2.1,0.3c-0.2,0-0.3,0.1-0.4,0.3c-0.4,0.6-0.7,1.2-1.1,1.8
					c-0.1,0.1-0.1,0.3-0.1,0.5c0.2,0.7,0.5,1.4,0.8,2.1c0,0.1,0,0.4-0.1,0.5c-0.9,0.7-1.8,1.3-2.7,2c-0.1,0.1-0.4,0-0.5-0.1
					c-0.6-0.4-1.1-0.9-1.7-1.3C46.2,53.1,46.1,53.1,46,53 M42.4,50.9c4.1,0,7.5-3.4,7.5-7.5c0-4-3.4-7.4-7.5-7.4
					c-4.1,0-7.4,3.4-7.4,7.5C34.9,47.5,38.3,50.9,42.4,50.9"/>
				<path class="st9" d="M42.4,50.9c-4.1,0-7.5-3.4-7.5-7.5c0-4.1,3.4-7.5,7.5-7.5c4.1,0,7.5,3.4,7.5,7.5
					C49.9,47.5,46.5,50.9,42.4,50.9 M48.4,43.4c0-3.3-2.7-6-6-6c-3.3,0-6,2.7-6,6.1c0,3.3,2.7,6,6,6C45.7,49.4,48.4,46.7,48.4,43.4"
					/>
			</g>
		</g>
	</g>
	<g id="Teckning_11_1_">
		<g>
			<defs>
				<rect id="SVGID_9_" x="2" y="1.8" width="135.5" height="169.9"/>
			</defs>
			<clipPath id="SVGID_10_">
				<use xlink:href="#SVGID_9_"  style="overflow:visible;"/>
			</clipPath>
			<g class="st10">
				<defs>
					<rect id="SVGID_11_" x="2" y="1.8" width="135.5" height="169.9"/>
				</defs>
				<clipPath id="SVGID_12_">
					<use xlink:href="#SVGID_11_"  style="overflow:visible;"/>
				</clipPath>
				<path class="st11" d="M128.3,61.4l8-13.3c1-1.6,1-3.7,0.1-5.4l-7.5-13.6c-0.9-1.7-2.7-2.7-4.6-2.8l-15.5-0.3
					c-1.9,0-3.7,1-4.7,2.6l-8,13.3c-1,1.6-1,3.7-0.1,5.4l7.5,13.6c0.9,1.7,2.7,2.7,4.6,2.8l15.5,0.3C125.5,64,127.3,63,128.3,61.4z"
					/>
				<path class="st12" d="M91.8,37.9l8-13.3c1-1.6,1-3.7,0.1-5.4L92.4,5.7C91.4,4,89.7,3,87.8,2.9L72.3,2.7c-1.9,0-3.7,1-4.7,2.6
					l-8,13.3c-1,1.6-1,3.7-0.1,5.4l7.5,13.6c0.9,1.7,2.7,2.7,4.6,2.8l15.5,0.3C89.1,40.5,90.8,39.5,91.8,37.9"/>
				<path class="st11" d="M91.8,37.9l8-13.3c1-1.6,1-3.7,0.1-5.4L92.4,5.7C91.4,4,89.7,3,87.8,2.9L72.3,2.7c-1.9,0-3.7,1-4.7,2.6
					l-8,13.3c-1,1.6-1,3.7-0.1,5.4l7.5,13.6c0.9,1.7,2.7,2.7,4.6,2.8l15.5,0.3C89.1,40.5,90.8,39.5,91.8,37.9z"/>
				<path class="st12" d="M23.3,62.2l-7.5-13.6c-0.9-1.7-2.7-2.7-4.6-2.8L4,45.7C3.9,57.4,3.8,69.1,3.7,80.8c0,0.8,0,1.7,0,2.5
					l6.9,0.1c1.9,0,3.7-1,4.7-2.6l8-13.3C24.2,65.9,24.3,63.8,23.3,62.2"/>
				<path class="st11" d="M23.3,62.2l-7.5-13.6c-0.9-1.7-2.7-2.7-4.6-2.8L4,45.7C3.9,57.4,3.8,69.1,3.7,80.8c0,0.8,0,1.7,0,2.5
					l6.9,0.1c1.9,0,3.7-1,4.7-2.6l8-13.3C24.2,65.9,24.3,63.8,23.3,62.2z"/>
				<path class="st11" d="M54.5,60.5l8-13.3c1-1.6,1-3.7,0.1-5.4L55,28.3c-0.9-1.7-2.7-2.7-4.6-2.8l-15.5-0.3c-1.9,0-3.7,1-4.7,2.6
					l-8,13.3c-1,1.6-1,3.7-0.1,5.4l7.5,13.6c0.9,1.7,2.7,2.7,4.6,2.8l15.5,0.3C51.7,63.1,53.5,62.1,54.5,60.5z"/>
				<path class="st12" d="M4,39.8l7.9,0.1c1.9,0,3.7-1,4.7-2.6l8-13.3c1-1.6,1-3.7,0.1-5.4L17.1,5.2c-0.9-1.7-2.7-2.7-4.6-2.8
					L4.1,2.3"/>
				<path class="st11" d="M4,39.8l7.9,0.1c1.9,0,3.7-1,4.7-2.6l8-13.3c1-1.6,1-3.7,0.1-5.4L17.1,5.2c-0.9-1.7-2.7-2.7-4.6-2.8
					L4.1,2.3"/>
				<line class="st11" x1="98.9" y1="66.8" x2="89.2" y2="48.4"/>
				<line class="st13" x1="69.5" y1="48.5" x2="89.2" y2="48.4"/>
				<line class="st11" x1="60.7" y1="64.2" x2="69.5" y2="48.6"/>
				<line class="st11" x1="60.7" y1="64.2" x2="69.1" y2="78.6"/>
				<path class="st14" d="M68.9,78.1c0.5,0,0.8,0.4,0.8,0.8s-0.4,0.8-0.8,0.8s-0.8-0.4-0.8-0.8S68.4,78.1,68.9,78.1"/>
				<circle class="st15" cx="68.9" cy="78.9" r="0.8"/>
				<path class="st14" d="M60.9,63.6c0.5,0,0.8,0.4,0.8,0.8c0,0.5-0.4,0.8-0.8,0.8c-0.5,0-0.8-0.4-0.8-0.8
					C60.1,63.9,60.5,63.6,60.9,63.6"/>
				<path class="st15" d="M60.9,63.6c0.5,0,0.8,0.4,0.8,0.8c0,0.5-0.4,0.8-0.8,0.8c-0.5,0-0.8-0.4-0.8-0.8
					C60.1,63.9,60.5,63.6,60.9,63.6z"/>
				<path class="st14" d="M69.6,48.1c0.5,0,0.8,0.4,0.8,0.8c0,0.5-0.4,0.8-0.8,0.8s-0.8-0.4-0.8-0.8C68.7,48.4,69.1,48.1,69.6,48.1"
					/>
				<path class="st15" d="M69.6,48.1c0.5,0,0.8,0.4,0.8,0.8c0,0.5-0.4,0.8-0.8,0.8s-0.8-0.4-0.8-0.8C68.7,48.4,69.1,48.1,69.6,48.1z
					"/>
				<path class="st14" d="M89.2,47.6c0.5,0,0.8,0.4,0.8,0.8c0,0.5-0.4,0.8-0.8,0.8c-0.5,0-0.8-0.4-0.8-0.8
					C88.4,48,88.7,47.6,89.2,47.6"/>
				<circle class="st15" cx="89.2" cy="48.4" r="0.8"/>
				<path class="st14" d="M98.8,66.1c0.5,0,0.8,0.4,0.8,0.8c0,0.5-0.4,0.8-0.8,0.8c-0.5,0-0.8-0.4-0.8-0.8
					C98,66.5,98.4,66.1,98.8,66.1"/>
				<path class="st15" d="M98.8,66.1c0.5,0,0.8,0.4,0.8,0.8c0,0.5-0.4,0.8-0.8,0.8c-0.5,0-0.8-0.4-0.8-0.8
					C98,66.5,98.4,66.1,98.8,66.1z"/>
				<path class="st12" d="M52.7,147.2l8-13.3c1-1.6,1-3.7,0.1-5.4L53.2,115c-0.9-1.7-2.7-2.7-4.6-2.8L33.2,112c-1.9,0-3.7,1-4.7,2.6
					l-8,13.3c-1,1.6-1,3.7-0.1,5.4l7.5,13.6c0.9,1.7,2.7,2.7,4.6,2.8l15.5,0.3C50,149.8,51.7,148.8,52.7,147.2"/>
				<path class="st11" d="M52.7,147.2l8-13.3c1-1.6,1-3.7,0.1-5.4L53.2,115c-0.9-1.7-2.7-2.7-4.6-2.8L33.2,112c-1.9,0-3.7,1-4.7,2.6
					l-8,13.3c-1,1.6-1,3.7-0.1,5.4l7.5,13.6c0.9,1.7,2.7,2.7,4.6,2.8l15.5,0.3C50,149.8,51.7,148.8,52.7,147.2z"/>
				<path class="st11" d="M22.7,105.9l-7.5-13.6c-0.9-1.7-2.7-2.7-4.6-2.8l-7.2-0.1c-0.2,12.5-0.4,25-0.6,37.5l7.2,0.1
					c1.9,0,3.7-1,4.7-2.6l8-13.3C23.6,109.6,23.6,107.6,22.7,105.9z"/>
				<line class="st11" x1="32.9" y1="105" x2="55.6" y2="105.6"/>
				<line class="st11" x1="67" y1="124.4" x2="55.1" y2="105.3"/>
				<line class="st11" x1="33.2" y1="105.3" x2="22.8" y2="87.7"/>
				<line class="st11" x1="67" y1="124.4" x2="87.1" y2="124.6"/>
				<path class="st14" d="M87.1,123.7c0.5,0,0.8,0.4,0.8,0.8c0,0.5-0.4,0.8-0.8,0.8s-0.8-0.4-0.8-0.8
					C86.3,124.1,86.7,123.7,87.1,123.7"/>
				<path class="st15" d="M87.1,123.7c0.5,0,0.8,0.4,0.8,0.8c0,0.5-0.4,0.8-0.8,0.8s-0.8-0.4-0.8-0.8
					C86.3,124.1,86.7,123.7,87.1,123.7z"/>
				<path class="st14" d="M67.2,123.5c0.5,0,0.8,0.4,0.8,0.8s-0.4,0.8-0.8,0.8c-0.5,0-0.8-0.4-0.8-0.8S66.8,123.5,67.2,123.5"/>
				<path class="st15" d="M67.2,123.5c0.5,0,0.8,0.4,0.8,0.8s-0.4,0.8-0.8,0.8c-0.5,0-0.8-0.4-0.8-0.8S66.8,123.5,67.2,123.5z"/>
				<path class="st14" d="M55.3,104.9c0.5,0,0.8,0.4,0.8,0.8c0,0.5-0.4,0.8-0.8,0.8c-0.5,0-0.8-0.4-0.8-0.8
					C54.5,105.2,54.9,104.9,55.3,104.9"/>
				<path class="st15" d="M55.3,104.9c0.5,0,0.8,0.4,0.8,0.8c0,0.5-0.4,0.8-0.8,0.8c-0.5,0-0.8-0.4-0.8-0.8
					C54.5,105.2,54.9,104.9,55.3,104.9z"/>
				<path class="st14" d="M32.9,104.2c0.5,0,0.8,0.4,0.8,0.8s-0.4,0.8-0.8,0.8s-0.8-0.4-0.8-0.8S32.5,104.2,32.9,104.2"/>
				<path class="st15" d="M32.9,104.2c0.5,0,0.8,0.4,0.8,0.8s-0.4,0.8-0.8,0.8s-0.8-0.4-0.8-0.8S32.5,104.2,32.9,104.2z"/>
				<path class="st14" d="M22.9,87c0.5,0,0.8,0.4,0.8,0.8s-0.4,0.8-0.8,0.8c-0.5,0-0.8-0.4-0.8-0.8S22.5,87,22.9,87"/>
				<path class="st15" d="M22.9,87c0.5,0,0.8,0.4,0.8,0.8s-0.4,0.8-0.8,0.8c-0.5,0-0.8-0.4-0.8-0.8S22.5,87,22.9,87z"/>
				<path class="st16" d="M22.3,149.9l-7.5-13.5c-0.9-1.7-2.7-2.7-4.6-2.7L3,133.5c-0.2,12.5-0.4,25-0.4,37.5l7.1,0.1
					c1.9,0,3.7-1,4.6-2.6l7.9-13.3C23.1,153.6,23.2,151.5,22.3,149.9z"/>
			</g>
		</g>
	</g>
</g>
</svg>
