<?xml version="1.0" encoding="utf-8"?>
<!-- Generator: Adobe Illustrator 25.2.0, SVG Export Plug-In . SVG Version: 6.00 Build 0)  -->
<svg version="1.1" id="Lager_1" xmlns="http://www.w3.org/2000/svg" xmlns:xlink="http://www.w3.org/1999/xlink" x="0px" y="0px"
	 viewBox="0 0 110.6 97.8" style="enable-background:new 0 0 110.6 97.8;" xml:space="preserve">
<defs>
  <style type="text/css">
    @import url('https://use.typekit.net/ecm7jiz.css');
 </style>
</defs>
<style type="text/css">
	.st0{fill:none;stroke:#7C8DA6;stroke-width:2;stroke-miterlimit:10;}
	.st1{fill:none;}
	.st2{fill:#7C8DA6;}
	.st3{font-family:'Aptly';}
	.st4{font-size:12px;}
	.st5{fill:#020203;}
	.st6{font-family:'ArialMT';}
</style>
<path class="st0" d="M27.5,92L4.3,53.3c-1.3-2.2-1.4-4.9-0.1-7.1L26.1,6.7c1.2-2.2,3.6-3.6,6.1-3.7l45.1-0.7c2.5,0,4.9,1.3,6.2,3.5
	l23.2,38.7c1.3,2.2,1.4,4.9,0.1,7.1L85,91c-1.2,2.2-3.6,3.6-6.1,3.7l-45.1,0.7C31.2,95.5,28.8,94.2,27.5,92z"/>
<path class="st0" d="M30.9,84.8L11.9,53c-1.3-2.3-1.4-5.1-0.1-7.3l18-32.4c1.3-2.3,3.7-3.7,6.3-3.8l37-0.7c2.6,0,5.1,1.3,6.4,3.6
	l19.1,31.8c1.3,2.3,1.4,5.1,0.1,7.3l-18,32.4c-1.3,2.3-3.7,3.7-6.3,3.8l-37.1,0.6C34.7,88.4,32.3,87,30.9,84.8z"/>
<rect x="38.6" y="43.4" class="st1" width="35.1" height="34.4"/>
<text transform="matrix(1 0 0 1 17.8096 52.9216)" class="st2 st3 st4" style="font-family: 'Aptly'; font-weight: bold;">Sociala medier</text>
<text transform="matrix(1 0 0 1 60.9544 54.9283)" class="st5 st6 st4"> </text>
</svg>
