<?xml version="1.0" encoding="utf-8"?>
<!-- Generator: Adobe Illustrator 27.1.1, SVG Export Plug-In . SVG Version: 6.00 Build 0)  -->
<svg version="1.1" id="Lager_1" xmlns="http://www.w3.org/2000/svg" xmlns:xlink="http://www.w3.org/1999/xlink" x="0px" y="0px"
	 viewBox="0 0 110.6 97.8" style="enable-background:new 0 0 110.6 97.8;" xml:space="preserve">
<style type="text/css">
	.st0{fill:none;stroke:#7C8DA6;stroke-width:2;stroke-miterlimit:10;}
	.st1{fill:none;}
	.st2{enable-background:new    ;}
	.st3{fill:#7C8DA6;}
	.st4{fill:#020203;}
	.st5{font-family:'ArialMT';}
	.st6{font-size:14px;}
</style>
<path class="st0" d="M27.5,92L4.3,53.3c-1.3-2.2-1.4-4.9-0.1-7.1L26.1,6.7c1.2-2.2,3.6-3.6,6.1-3.7l45.1-0.7c2.5,0,4.9,1.3,6.2,3.5
	l23.2,38.7c1.3,2.2,1.4,4.9,0.1,7.1L85,91c-1.2,2.2-3.6,3.6-6.1,3.7l-45.1,0.7C31.2,95.5,28.8,94.2,27.5,92z"/>
<path class="st0" d="M30.9,84.8L11.9,53c-1.3-2.3-1.4-5.1-0.1-7.3l18-32.4c1.3-2.3,3.7-3.7,6.3-3.8l37-0.7c2.6,0,5.1,1.3,6.4,3.6
	l19.1,31.8c1.3,2.3,1.4,5.1,0.1,7.3l-18,32.4c-1.3,2.3-3.7,3.7-6.3,3.8l-37.1,0.6C34.7,88.4,32.3,87,30.9,84.8z"/>
<rect x="38.6" y="43.4" class="st1" width="35.1" height="34.4"/>
<g class="st2">
	<path class="st3" d="M23.7,50.3c0,1-0.3,1.7-0.9,2.1C22.4,52.8,21.7,53,21,53c-0.7,0-1.3-0.2-1.8-0.6c-0.6-0.5-0.9-1.1-0.9-2.1
		v-0.7c0-0.3,0.3-0.5,0.6-0.5h0.9c0.3,0,0.5,0.2,0.5,0.5v0.7c0,0.3,0.1,0.5,0.2,0.6c0.1,0.1,0.3,0.2,0.5,0.2c0.2,0,0.4-0.1,0.5-0.2
		c0.1-0.1,0.2-0.3,0.2-0.6v-0.6c0-0.4,0-0.7-0.2-0.9c-0.1-0.3-0.4-0.4-0.7-0.6L20,47.5c-0.6-0.4-1.1-0.7-1.3-1.2
		c-0.2-0.4-0.3-0.9-0.3-1.7V44c0-1,0.3-1.7,0.9-2.1c0.5-0.4,1.1-0.6,1.8-0.6c0.7,0,1.3,0.2,1.8,0.6c0.6,0.5,0.9,1.1,0.9,2.1v0.6
		c0,0.3-0.3,0.5-0.6,0.5h-0.9c-0.3,0-0.5-0.2-0.5-0.5V44c0-0.3-0.1-0.5-0.2-0.6c-0.1-0.1-0.3-0.2-0.5-0.2c-0.2,0-0.4,0.1-0.5,0.2
		c-0.1,0.1-0.2,0.3-0.2,0.6v0.5c0,0.4,0.1,0.7,0.2,0.9c0.1,0.3,0.4,0.4,0.7,0.7l0.9,0.6c0.6,0.4,1,0.7,1.3,1.1
		c0.2,0.4,0.3,0.9,0.3,1.7V50.3z"/>
	<path class="st3" d="M30.1,50.3c0,1-0.3,1.6-0.9,2.1c-0.5,0.4-1.1,0.6-1.8,0.6s-1.3-0.2-1.8-0.6c-0.5-0.4-0.9-1.1-0.9-2.1v-3.7
		c0-1,0.3-1.6,0.9-2.1c0.5-0.4,1.1-0.6,1.8-0.6s1.3,0.2,1.8,0.6c0.5,0.4,0.9,1.1,0.9,2.1V50.3z M28.2,46.6c0-0.3-0.1-0.5-0.2-0.6
		c-0.1-0.1-0.3-0.2-0.5-0.2c-0.2,0-0.4,0.1-0.5,0.2c-0.1,0.1-0.2,0.3-0.2,0.6v3.7c0,0.3,0.1,0.5,0.2,0.6c0.1,0.1,0.3,0.2,0.5,0.2
		c0.2,0,0.4-0.1,0.5-0.2c0.1-0.1,0.2-0.3,0.2-0.6V46.6z"/>
	<path class="st3" d="M36.5,50.4c0,0.9-0.3,1.5-0.9,2c-0.5,0.4-1.1,0.6-1.8,0.6s-1.3-0.2-1.8-0.6c-0.5-0.4-0.9-1.1-0.9-2.1v-3.7
		c0-1,0.3-1.6,0.9-2.1c0.5-0.4,1.1-0.6,1.8-0.6s1.3,0.2,1.8,0.6c0.5,0.4,0.9,1.1,0.9,2v0.1c0,0.3-0.2,0.5-0.5,0.5h-0.9
		c-0.3,0-0.5-0.2-0.5-0.5v-0.1c0-0.3-0.1-0.4-0.2-0.6c-0.1-0.1-0.3-0.2-0.5-0.2c-0.2,0-0.4,0.1-0.5,0.2c-0.1,0.1-0.2,0.3-0.2,0.6
		v3.8c0,0.3,0.1,0.4,0.2,0.6c0.1,0.1,0.3,0.2,0.5,0.2c0.2,0,0.3-0.1,0.5-0.2c0.1-0.1,0.2-0.3,0.2-0.6v-0.1c0-0.3,0.2-0.5,0.5-0.5H36
		c0.3,0,0.5,0.2,0.5,0.5V50.4z"/>
	<path class="st3" d="M39.5,42.7c0,0.3-0.2,0.5-0.5,0.5h-0.9c-0.3,0-0.5-0.2-0.5-0.5v-0.8c0-0.3,0.2-0.5,0.5-0.5H39
		c0.3,0,0.5,0.2,0.5,0.5V42.7z M39.5,52.4c0,0.3-0.2,0.5-0.5,0.5h-0.9c-0.3,0-0.5-0.2-0.5-0.5v-7.8c0-0.3,0.2-0.5,0.5-0.5H39
		c0.3,0,0.5,0.2,0.5,0.5V52.4z"/>
	<path class="st3" d="M45.9,52.4c0,0.2-0.1,0.3-0.2,0.4c-0.1,0.1-0.3,0.2-0.5,0.2c-0.2,0-0.4-0.1-0.5-0.2l-0.1,0
		c-0.1-0.1-0.2-0.1-0.3-0.1c-0.2,0-0.3,0.1-0.5,0.2C43.6,53,43.3,53,43,53c-1,0-2.4-0.9-2.4-2.6v-0.1c0-0.6,0.1-1.4,0.8-2
		c0.5-0.4,1.1-0.5,1.6-0.5h0.5c0.2,0,0.4-0.1,0.4-0.3v-0.8c0-0.3-0.1-0.4-0.2-0.6c-0.1-0.1-0.3-0.2-0.5-0.2c-0.2,0-0.3,0.1-0.5,0.2
		c-0.1,0.1-0.2,0.3-0.2,0.6v0.1c0,0.3-0.2,0.5-0.5,0.5h-0.9c-0.3,0-0.5-0.2-0.5-0.5v-0.1c0-1,0.3-1.6,0.9-2.1
		c0.5-0.4,1.1-0.6,1.8-0.6s1.3,0.2,1.8,0.6c0.5,0.4,0.9,1.1,0.9,2.1V52.4z M43.2,49.4c-0.2,0-0.3,0.1-0.5,0.2
		c-0.1,0.1-0.2,0.3-0.2,0.6v0.2c0,0.3,0.1,0.5,0.2,0.6c0.1,0.1,0.3,0.2,0.5,0.2c0.2,0,0.4-0.1,0.5-0.2c0.1-0.1,0.2-0.3,0.2-0.6v-0.7
		c0-0.2-0.1-0.3-0.4-0.3H43.2z"/>
	<path class="st3" d="M49,52.4c0,0.3-0.2,0.5-0.5,0.5h-0.9c-0.3,0-0.5-0.2-0.5-0.5V41.9c0-0.3,0.2-0.5,0.5-0.5h0.9
		c0.3,0,0.5,0.2,0.5,0.5V52.4z"/>
	<path class="st3" d="M55.3,52.4c0,0.2-0.1,0.3-0.2,0.4c-0.1,0.1-0.3,0.2-0.5,0.2c-0.2,0-0.4-0.1-0.5-0.2l-0.1,0
		c-0.1-0.1-0.2-0.1-0.3-0.1c-0.2,0-0.3,0.1-0.5,0.2C53,53,52.8,53,52.5,53c-1,0-2.4-0.9-2.4-2.6v-0.1c0-0.6,0.1-1.4,0.8-2
		c0.5-0.4,1.1-0.5,1.6-0.5H53c0.2,0,0.4-0.1,0.4-0.3v-0.8c0-0.3-0.1-0.4-0.2-0.6c-0.1-0.1-0.3-0.2-0.5-0.2c-0.2,0-0.3,0.1-0.5,0.2
		c-0.1,0.1-0.2,0.3-0.2,0.6v0.1c0,0.3-0.2,0.5-0.5,0.5h-0.9c-0.3,0-0.5-0.2-0.5-0.5v-0.1c0-1,0.3-1.6,0.9-2.1
		c0.5-0.4,1.1-0.6,1.8-0.6s1.3,0.2,1.8,0.6c0.5,0.4,0.9,1.1,0.9,2.1V52.4z M52.7,49.4c-0.2,0-0.3,0.1-0.5,0.2
		c-0.1,0.1-0.2,0.3-0.2,0.6v0.2c0,0.3,0.1,0.5,0.2,0.6c0.1,0.1,0.3,0.2,0.5,0.2c0.2,0,0.4-0.1,0.5-0.2c0.1-0.1,0.2-0.3,0.2-0.6v-0.7
		c0-0.2-0.1-0.3-0.4-0.3H52.7z"/>
	<path class="st3" d="M63.6,44.2c0.1,0.1,0.2,0.1,0.4,0.1c0.1,0,0.2,0,0.4-0.1c0.2-0.1,0.5-0.3,1.3-0.3c0.6,0,1.2,0.2,1.7,0.6
		c0.5,0.4,0.8,1.1,0.8,2v5.9c0,0.3-0.2,0.5-0.5,0.5h-0.9c-0.3,0-0.5-0.2-0.5-0.5v-5.8c0-0.3-0.1-0.4-0.2-0.6
		c-0.1-0.1-0.3-0.2-0.5-0.2S65.1,45.9,65,46c-0.1,0.1-0.2,0.3-0.2,0.6v5.8c0,0.3-0.2,0.5-0.5,0.5h-0.9c-0.3,0-0.5-0.2-0.5-0.5v-5.8
		c0-0.3-0.1-0.4-0.2-0.6c-0.1-0.1-0.3-0.2-0.5-0.2s-0.4,0.1-0.5,0.2c-0.1,0.1-0.2,0.3-0.2,0.6v5.8c0,0.3-0.2,0.5-0.5,0.5h-0.9
		c-0.3,0-0.5-0.2-0.5-0.5v-7.8c0-0.2,0.1-0.4,0.2-0.5c0.1-0.1,0.3-0.2,0.4-0.2c0.2,0,0.4,0.1,0.5,0.2l0.1,0c0.1,0.1,0.2,0.1,0.3,0.1
		c0.2,0,0.3-0.1,0.5-0.2c0.3-0.1,0.6-0.2,0.9-0.2C63.1,43.9,63.4,44.1,63.6,44.2z"/>
	<path class="st3" d="M74.5,50.4c0,0.9-0.3,1.5-0.9,2c-0.5,0.4-1.1,0.6-1.8,0.6c-0.7,0-1.3-0.2-1.8-0.6c-0.5-0.4-0.9-1.1-0.9-2.1
		v-3.7c0-1,0.3-1.6,0.9-2.1c0.5-0.4,1.1-0.6,1.8-0.6c0.7,0,1.3,0.2,1.8,0.6c0.5,0.4,0.9,1.1,0.9,2v1.8c0,0.4-0.3,0.7-0.7,0.7h-2.3
		c-0.2,0-0.3,0.1-0.3,0.3v1c0,0.3,0.1,0.4,0.2,0.6c0.1,0.1,0.3,0.2,0.5,0.2c0.2,0,0.3-0.1,0.5-0.2c0.1-0.1,0.2-0.3,0.2-0.6v-0.1
		c0-0.3,0.2-0.5,0.5-0.5H74c0.3,0,0.5,0.2,0.5,0.5V50.4z M71.2,47c0,0.2,0.1,0.3,0.3,0.3h0.6c0.2,0,0.4-0.1,0.4-0.3v-0.5
		c0-0.3-0.1-0.4-0.2-0.6c-0.1-0.1-0.3-0.2-0.5-0.2s-0.4,0.1-0.5,0.2c-0.1,0.1-0.2,0.3-0.2,0.6V47z"/>
	<path class="st3" d="M75.6,46.7c0-1,0.3-1.6,0.9-2.1c0.2-0.2,0.5-0.3,0.8-0.4c0.3-0.1,0.6-0.2,1.2-0.2h0.2c0.1,0,0.2,0,0.3-0.1
		c0-0.1,0.1-0.1,0.1-0.2v-1.8c0-0.3,0.2-0.5,0.5-0.5h0.9c0.3,0,0.5,0.2,0.5,0.5v10.4c0,0.2-0.1,0.4-0.2,0.5C80.6,53,80.4,53,80.2,53
		c-0.2,0-0.4-0.1-0.5-0.2l-0.1,0c-0.1-0.1-0.2-0.1-0.3-0.1c-0.2,0-0.3,0.1-0.6,0.2C78.6,53,78.3,53,78.1,53c-0.5,0-1.2-0.2-1.7-0.7
		c-0.4-0.4-0.7-1-0.7-2.1V46.7z M78.9,46.6c0-0.3-0.1-0.4-0.2-0.6c-0.1-0.1-0.3-0.2-0.5-0.2c-0.2,0-0.3,0.1-0.5,0.2
		c-0.1,0.1-0.2,0.3-0.2,0.6v3.8c0,0.3,0.1,0.5,0.2,0.6c0.1,0.1,0.3,0.2,0.5,0.2c0.2,0,0.4-0.1,0.5-0.2c0.1-0.1,0.2-0.3,0.2-0.6V46.6
		z"/>
	<path class="st3" d="M84,42.7c0,0.3-0.2,0.5-0.5,0.5h-0.9c-0.3,0-0.5-0.2-0.5-0.5v-0.8c0-0.3,0.2-0.5,0.5-0.5h0.9
		c0.3,0,0.5,0.2,0.5,0.5V42.7z M84,52.4c0,0.3-0.2,0.5-0.5,0.5h-0.9c-0.3,0-0.5-0.2-0.5-0.5v-7.8c0-0.3,0.2-0.5,0.5-0.5h0.9
		c0.3,0,0.5,0.2,0.5,0.5V52.4z"/>
	<path class="st3" d="M90.4,50.4c0,0.9-0.3,1.5-0.9,2c-0.5,0.4-1.1,0.6-1.8,0.6c-0.7,0-1.3-0.2-1.8-0.6c-0.5-0.4-0.9-1.1-0.9-2.1
		v-3.7c0-1,0.3-1.6,0.9-2.1c0.5-0.4,1.1-0.6,1.8-0.6c0.7,0,1.3,0.2,1.8,0.6c0.5,0.4,0.9,1.1,0.9,2v1.8c0,0.4-0.3,0.7-0.7,0.7h-2.3
		c-0.2,0-0.3,0.1-0.3,0.3v1c0,0.3,0.1,0.4,0.2,0.6c0.1,0.1,0.3,0.2,0.5,0.2c0.2,0,0.3-0.1,0.5-0.2c0.1-0.1,0.2-0.3,0.2-0.6v-0.1
		c0-0.3,0.2-0.5,0.5-0.5h0.9c0.3,0,0.5,0.2,0.5,0.5V50.4z M87.1,47c0,0.2,0.1,0.3,0.3,0.3h0.6c0.2,0,0.4-0.1,0.4-0.3v-0.5
		c0-0.3-0.1-0.4-0.2-0.6c-0.1-0.1-0.3-0.2-0.5-0.2s-0.4,0.1-0.5,0.2c-0.1,0.1-0.2,0.3-0.2,0.6V47z"/>
	<path class="st3" d="M92.1,52.9c-0.3,0-0.5-0.2-0.5-0.5v-7.8c0-0.2,0.1-0.4,0.2-0.5c0.1-0.1,0.3-0.2,0.4-0.2c0.2,0,0.4,0.1,0.5,0.2
		l0.1,0c0.1,0.1,0.2,0.1,0.3,0.1c0.2,0,0.3-0.1,0.6-0.2c0.3-0.1,0.5-0.1,0.7-0.1c0.4,0,0.6,0.3,0.6,0.6v1c0,0.3-0.2,0.5-0.5,0.5H94
		c-0.2,0-0.3,0-0.4,0.1c-0.1,0.1-0.1,0.2-0.1,0.6v5.6c0,0.3-0.2,0.5-0.5,0.5H92.1z"/>
</g>
<text transform="matrix(1 0 0 1 60.9544 54.9283)" class="st4 st5 st6"> </text>
</svg>
